<?xml version="1.0" encoding="utf-8"?>
<!-- Generator: Adobe Illustrator 20.1.0, SVG Export Plug-In . SVG Version: 6.00 Build 0)  -->
<svg version="1.1" id="Layer_1" xmlns="http://www.w3.org/2000/svg" xmlns:xlink="http://www.w3.org/1999/xlink" x="0px" y="0px"
	 viewBox="0 0 223.8 221" style="enable-background:new 0 0 223.8 221;" xml:space="preserve">
<style type="text/css">
	.st0{fill:#070808;}
</style>
<g>
	<path class="st0" d="M44.2,158.7C28.9,156.3,0,143.5,0,112c0-27.4,21.8-40.6,37.5-45.2c0.2-11,2.5-33.1,17.1-49
		C65.3,6,80.4,0,99.4,0c21.1,0,37.4,6.1,48.4,18.2c10.3,11.3,13.3,25.1,14.2,34c11.3-0.7,30.9,0.1,45.1,11.6
		c10.7,8.6,16.3,21.3,16.7,37.7c0.1,0.9,2.2,32-22.3,44.8l-7.2-13.7c15.6-8.2,14.1-30.1,14.1-30.4c-0.3-12.3-3.9-20.8-11-26.5
		c-15-12.1-41.2-7.4-41.5-7.4l-10.1,1.9l0.9-10.2c0-0.2,1.4-18.8-10.4-31.6c-8-8.6-20.4-13-36.9-13c-14.5,0-25.7,4.3-33.5,12.7
		C50.8,44.7,53,71.9,53.1,72.2l0.6,7.2l-7.2,1.1c-1.2,0.2-31.1,5.3-31.1,31.5c0,26.4,29.8,31.3,31.1,31.5L44.2,158.7z"/>
	<path class="st0" d="M176.6,139.7h-25.5l14.3-24.9c2.1-3.7,0.9-8.4-2.8-10.5c-3.7-2.1-8.4-0.9-10.5,2.8L137.8,132l-14.3-24.8
		c-2.1-3.7-6.8-5-10.5-2.8c-3.7,2.1-5,6.8-2.8,10.5l14.3,24.9H96c-4.3,0-7.7,3.5-7.7,7.7s3.5,7.7,7.7,7.7h28.4L110.1,180
		c-2.1,3.7-0.9,8.4,2.8,10.5c1.2,0.7,2.5,1,3.8,1c2.7,0,5.3-1.4,6.7-3.9l14.3-24.8l14.3,24.8c1.4,2.5,4,3.9,6.7,3.9
		c1.3,0,2.6-0.3,3.8-1c3.7-2.1,5-6.8,2.8-10.5l-14.3-24.9h25.5c4.3,0,7.7-3.5,7.7-7.7S180.9,139.7,176.6,139.7z"/>
	<path class="st0" d="M79.9,196.4L91.4,185c3-3,3-7.9,0-10.9c-3-3-7.9-3-10.9,0L69,185.5l-11.4-11.4c-3-3-7.9-3-10.9,0
		c-3,3-3,7.9,0,10.9l11.4,11.4l-11.4,11.4c-3,3-3,7.9,0,10.9c1.5,1.5,3.5,2.3,5.5,2.3c2,0,4-0.8,5.5-2.3L69,207.3l11.4,11.4
		c1.5,1.5,3.5,2.3,5.5,2.3c2,0,4-0.8,5.5-2.3c3-3,3-7.9,0-10.9L79.9,196.4z"/>
</g>
</svg>
