<?xml version="1.0" encoding="utf-8"?>
<!-- Generator: Adobe Illustrator 20.1.0, SVG Export Plug-In . SVG Version: 6.00 Build 0)  -->
<svg version="1.1" id="Layer_1" xmlns="http://www.w3.org/2000/svg" xmlns:xlink="http://www.w3.org/1999/xlink" x="0px" y="0px"
	 viewBox="0 0 99.6 229.1" style="enable-background:new 0 0 99.6 229.1;" xml:space="preserve">
<g>
	<path d="M75.2,136.4V27c0-14.9-12.1-27-27-27s-27,12.1-27,27v111.5C7.9,147.8,0,162.9,0,179.3c0,27.5,22.3,49.8,49.8,49.8
		c27.5,0,49.8-22.3,49.8-49.8C99.6,161.6,90.3,145.4,75.2,136.4z M49.8,221.1c-23,0-41.8-18.7-41.8-41.8c0-14.3,7.2-27.5,19.3-35.2
		c1-0.6,1.7-1.7,1.9-2.9c0,0,0-0.1,0-0.1c0-0.1,0-0.1,0-0.2c0-0.1,0-0.1,0-0.2c0,0,0,0,0,0V27C29.3,16.5,37.8,8,48.2,8
		S67.1,16.5,67.1,27v111.8c0,0.3,0,0.5,0.1,0.8c0,0,0,0,0,0c0,0.1,0,0.1,0,0.2c0.1,0.3,0.2,0.6,0.3,0.8c0,0,0,0.1,0,0.1
		c0,0.1,0.1,0.1,0.1,0.2c0,0.1,0.1,0.1,0.1,0.2c0,0,0,0.1,0.1,0.1c0.2,0.3,0.5,0.7,0.9,0.9c0,0,0.1,0.1,0.1,0.1c0,0,0.1,0.1,0.1,0.1
		c0.1,0,0.1,0.1,0.2,0.1c0,0,0,0,0,0c13.8,7.3,22.3,21.4,22.3,37C91.6,202.3,72.8,221.1,49.8,221.1z"/>
	<path d="M46.4,34.7H25.3c-1.7,0-3-1.4-3-3c0-1.7,1.4-3,3-3h21.1c1.7,0,3,1.4,3,3C49.4,33.3,48,34.7,46.4,34.7z"/>
	<path d="M47,47.7H25.9c-1.7,0-3-1.4-3-3c0-1.7,1.4-3,3-3H47c1.7,0,3,1.4,3,3C50.1,46.4,48.7,47.7,47,47.7z"/>
	<path d="M47,60.1H25.9c-1.7,0-3-1.4-3-3c0-1.7,1.4-3,3-3H47c1.7,0,3,1.4,3,3C50.1,58.8,48.7,60.1,47,60.1z"/>
	<path d="M47,71.5H25.9c-1.7,0-3-1.4-3-3s1.4-3,3-3H47c1.7,0,3,1.4,3,3S48.7,71.5,47,71.5z"/>
	<path d="M47,82.7H25.9c-1.7,0-3-1.4-3-3s1.4-3,3-3H47c1.7,0,3,1.4,3,3S48.7,82.7,47,82.7z"/>
	<path d="M59.1,155.3v-47.8c0-5.5-4.5-10-10-10s-10,4.5-10,10v47.7c-10.9,4-18.8,14.5-18.8,26.8c0,15.8,12.8,28.6,28.6,28.6
		c15.8,0,28.6-12.8,28.6-28.6C77.5,169.7,69.8,159.4,59.1,155.3z"/>
</g>
</svg>
