<?xml version="1.0" standalone="no"?><!DOCTYPE svg PUBLIC "-//W3C//DTD SVG 1.1//EN" "http://www.w3.org/Graphics/SVG/1.1/DTD/svg11.dtd" ><svg xmlns="http://www.w3.org/2000/svg"><metadata></metadata><defs><font id="webfont" horiz-adv-x="2572"><font-face font-family="Antwerp" font-weight="300" font-stretch="normal" units-per-em="2048" panose-1="2 0 5 5 7 0 0 2 0 3" ascent="1954" descent="-599" x-height="3" bbox="-55 -559 2439 1954" underline-thickness="40" underline-position="-251" unicode-range="U+0020-fb04" /><missing-glyph horiz-adv-x="518"  /><glyph glyph-name=".null" unicode="" d="" /><glyph glyph-name="nonmarkingreturn" unicode="" d="" /><glyph glyph-name="space" unicode=" " d="" /><glyph glyph-name="exclam" unicode="!" d="M197 16 q-47 47 -47 113 q0 66 47 113 q47 47 112.5 47 q65.5 0 111.5 -47 q46 -47 46 -113 q0 -66 -46 -113 q-46 -47 -111.5 -47 q-65.5 0 -112.5 47 ZM176 1341 q0 57 35 90 q35 33 98 33 q59 0 94 -32.5 q35 -32.5 35 -90.5 q0 -33 -30 -213 q-49 -299 -70 -677 l-62 0 q-20 379 -69 677 q-31 180 -31 213 Z" /><glyph glyph-name="quotedbl" unicode="&quot;" d="M123 829 l0 635 l248 0 l-176 -635 l-72 0 ZM522 829 l0 635 l248 0 l-176 -635 l-72 0 Z" /><glyph glyph-name="numbersign" unicode="#" d="M68 512 l0 80 l309 0 l0 282 l-309 0 l0 80 l309 0 l0 480 l82 0 l0 -480 l286 0 l0 480 l86 0 l0 -480 l308 0 l0 -80 l-308 0 l0 -282 l308 0 l0 -80 l-308 0 l0 -512 l-86 0 l0 512 l-286 0 l0 -512 l-82 0 l0 512 l-309 0 ZM459 592 l286 0 l0 282 l-286 0 l0 -282 Z" /><glyph glyph-name="dollar" unicode="$" d="M125 469 l84 10 q29 -117 102 -272 q27 -61 94.5 -98 q67.5 -37 151.5 -46 l0 582 l-70 33 q-154 72 -241.5 165 q-87.5 93 -87.5 238 q0 143 107.5 250 q107.5 107 291.5 127 l0 254 l80 0 l0 -248 l6 0 q86 0 181.5 -13 q95.5 -13 151.5 -26.5 q56 -13.5 68 -19.5 q-25 -188 -38 -356 l-78 0 q-37 123 -74 241 q-10 29 -65.5 53.5 q-55.5 24.5 -151.5 26.5 l0 -510 q213 -102 283 -151 q168 -123 167 -301 q0 -190 -125.5 -306 q-125.5 -116 -324.5 -131 l0 -313 l-80 0 l0 311 q-98 4 -202.5 24.5 q-104.5 20.5 -161.5 39.5 l-56 20 q0 211 -12 416 ZM346 1143 q0 -78 54.5 -134.5 q54.5 -56.5 156.5 -109.5 l0 465 q-96 -16 -153.5 -75.5 q-57.5 -59.5 -57.5 -145.5 ZM637 61 q113 10 189.5 77 q76.5 67 76.5 175 q0 98 -67.5 164 q-67.5 66 -198.5 131 l0 -547 Z" /><glyph glyph-name="percent" unicode="%" d="M182 827.5 q-82 106.5 -82 260 q0 153.5 82 259 q82 105.5 213 105.5 q131 0 213 -105.5 q82 -105.5 82 -259 q0 -153.5 -82 -260 q-82 -106.5 -213 -106.5 q-131 0 -213 106.5 ZM135 37 l1272 1421 l59 -51 l-1271 -1430 l-60 60 ZM260 1087 q0 -299 135 -299 q135 0 135 299 q0 301 -135 301 q-135 0 -135 -301 ZM918 338 q0 154 81.5 259 q81.5 105 215 105 q133.5 0 215 -105 q81.5 -105 81.5 -259 q0 -156 -81.5 -261.5 q-81.5 -105.5 -215 -105.5 q-133.5 0 -215 105.5 q-81.5 105.5 -81.5 261.5 ZM1214.5 637 q-135.5 0 -135.5 -299 q0 -299 135.5 -299 q135.5 0 135.5 299 q0 299 -135.5 299 Z" /><glyph glyph-name="ampersand" unicode="&amp;" d="M139 356 q0 160 106.5 281 q106.5 121 293.5 166 q-129 33 -213 126 q-84 93 -84 214 q0 137 99 234.5 q99 97.5 286 97.5 q150 0 251 -84 q101 -84 101 -215 q0 -102 -75 -195.5 q-75 -93.5 -222 -140.5 l399 -365 l43 72 q102 162 103 229 q0 57 -80 72 l-111 20 l0 72 l275 -8 l256 10 l0 -74 l-86 -18 q-53 -10 -91 -53 q-38 -43 -110 -154 l-141 -219 l299 -277 q68 -66 217 -88 l0 -67 l-178 8 l-154 -8 l-289 276 q-195 -299 -477 -299 q-197 0 -307.5 115.5 q-110.5 115.5 -110.5 271.5 ZM328 418 q0 -131 84 -222.5 q84 -91.5 225 -91.5 q104 0 193.5 59.5 q89.5 59.5 148.5 160.5 l-455 419 q-94 -49 -145 -139 q-51 -90 -51 -186 ZM414 1204 q0 -86 49 -162.5 q49 -76.5 178 -164.5 q92 55 143.5 141 q51.5 86 51.5 170 q0 102 -64.5 160.5 q-64.5 58.5 -150.5 58.5 q-84 0 -145.5 -54.5 q-61.5 -54.5 -61.5 -148.5 Z" /><glyph glyph-name="quotesingle" unicode="&#39;" d="M123 829 l0 635 l248 0 l-176 -635 l-72 0 Z" /><glyph glyph-name="parenleft" unicode="(" d="M84 586 l0 39 q0 268 141.5 538.5 q141.5 270.5 372.5 392.5 l31 -45 q-102 -72 -176 -186.5 q-74 -114.5 -110 -240.5 q-36 -126 -51.5 -236.5 q-15.5 -110.5 -15.5 -216.5 l0 -49 q0 -147 26 -296 q26 -149 110 -321 q84 -172 219 -266 l-31 -43 q-236 121 -376 390.5 q-140 269.5 -140 539.5 Z" /><glyph glyph-name="parenright" unicode=")" d="M14 -301 q135 94 219 266 q84 172 110 320.5 q26 148.5 26 296.5 l0 49 q0 106 -15.5 216.5 q-15.5 110.5 -51.5 236.5 q-36 126 -109.5 241 q-73.5 115 -176.5 186 l31 45 q231 -123 372.5 -393 q141.5 -270 141.5 -538 l0 -39 q0 -270 -140 -539.5 q-140 -269.5 -376 -390.5 l-31 43 Z" /><glyph glyph-name="asterisk" unicode="*" d="M147 647 l37 127 l375 131 l-375 131 l-37 127 l129 58 l304 -269 l-74 400 l96 90 l96 -92 l-75 -398 l309 267 l127 -56 l-35 -129 l-389 -129 l389 -129 l35 -129 l-127 -55 l-309 266 l75 -397 l-96 -92 l-96 90 l74 399 l-304 -270 l-129 59 Z" /><glyph glyph-name="plus" unicode="+" d="M131 692 l0 82 l432 0 l0 440 l82 0 l0 -440 l432 0 l0 -82 l-432 0 l0 -442 l-82 0 l0 442 l-432 0 Z" /><glyph glyph-name="comma" unicode="," d="M78 -256 q100 49 152.5 112.5 q52.5 63.5 52.5 127.5 q0 59 -46.5 105 q-46.5 46 -132.5 71 q-2 4 -2 12 q0 47 58.5 102.5 q58.5 55.5 107.5 55.5 q72 0 134.5 -65.5 q62.5 -65.5 62.5 -162.5 q0 -135 -108.5 -248.5 q-108.5 -113.5 -252.5 -160.5 l-26 51 Z" /><glyph glyph-name="hyphen" unicode="-" d="M139 494 l0 141 l496 0 l0 -141 l-496 0 Z" /><glyph glyph-name="period" unicode="." d="M161 16 q-46 47 -46 113 q0 66 46 113 q46 47 111.5 47 q65.5 0 111.5 -47 q46 -47 46 -113 q0 -66 -46 -113 q-46 -47 -111.5 -47 q-65.5 0 -111.5 47 Z" /><glyph glyph-name="slash" unicode="/" d="M47 -238 l922 1946 l80 -39 l-926 -1943 l-76 36 Z" /><glyph glyph-name="zero" unicode="0" d="M104 717 q0 309 135.5 525 q135.5 216 362.5 216 q229 0 364.5 -215 q135.5 -215 135.5 -526 q0 -201 -57.5 -369 q-57.5 -168 -173 -273.5 q-115.5 -105.5 -269.5 -105.5 q-227 0 -362.5 218.5 q-135.5 218.5 -135.5 529.5 ZM328 717 q0 -362 70.5 -516 q70.5 -154 203.5 -154 q135 0 206 153.5 q71 153.5 71 516 q0 362.5 -71 512 q-71 149.5 -206 149.5 q-135 0 -204.5 -148 q-69.5 -148 -69.5 -513 Z" /><glyph glyph-name="one" unicode="1" d="M233 1194 l0 94 l398 154 l129 0 q-10 -539 -10 -965 q0 -125 4 -289 q2 -78 96 -92 l182 -24 l0 -86 l-397 14 l-373 -14 l0 86 l170 24 q109 14 109 92 q2 336 2 484 q0 412 -4 495.5 q-4 83.5 -27 83.5 q-9 0 -279 -57 Z" /><glyph glyph-name="two" unicode="2" d="M135 -2 l0 123 q330 328 473 481 q123 131 166 225.5 q43 94.5 43 198.5 q0 147 -71.5 241.5 q-71.5 94.5 -225.5 94.5 q-57 0 -106 -20.5 q-49 -20.5 -49 -69.5 l0 -228 l-52 -40 q-74 2 -124 52 q-50 50 -50 120 q0 102 127 192 q127 90 334 90 q190 0 314 -101.5 q124 -101.5 124 -277.5 q0 -109 -57 -197.5 q-57 -88.5 -213 -246.5 l-432 -438 l739 14 l-35 -215 q-240 4 -546 4 q-310 0 -359 -2 Z" /><glyph glyph-name="three" unicode="3" d="M117 193 q0 66 52 105.5 q52 39.5 128 43.5 l49 -41 l0 -205 q0 -49 143 -49 q180 0 272.5 93 q92.5 93 92.5 220 q0 139 -105.5 231.5 q-105.5 92.5 -310.5 92.5 l-133 -6 l4 121 q467 61 467 313 q0 94 -66.5 155.5 q-66.5 61.5 -197.5 61.5 q-164 0 -303 -112 l-43 63 q195 178 465 178 q174 0 267 -84 q93 -84 93 -203 q0 -137 -102.5 -227 q-102.5 -90 -261.5 -119 q158 -4 296 -115.5 q138 -111.5 138 -285.5 q0 -205 -155.5 -330 q-155.5 -125 -397.5 -125 q-195 0 -293 62 q-98 62 -98 162 Z" /><glyph glyph-name="four" unicode="4" d="M61 412 l0 100 q33 72 254.5 428 q221.5 356 366.5 569 l174 -6 q-553 -772 -676 -989 l510 0 l0 37 q0 262 -12 348 l217 6 l0 -391 l231 0 l0 -102 l-231 0 l0 -230 q0 -47 20.5 -66.5 q20.5 -19.5 79.5 -31.5 l90 -21 l0 -73 l-294 10 l-289 -10 l0 73 l90 21 q57 12 77.5 31.5 q20.5 19.5 20.5 66.5 l0 230 l-629 0 Z" /><glyph glyph-name="five" unicode="5" d="M127 193 q0 66 52 105.5 q52 39.5 128 43.5 l49 -41 l0 -205 q0 -49 160 -49 q162 0 267.5 95.5 q105.5 95.5 105.5 230.5 q0 102 -44 179 q-44 77 -120 120 q-76 43 -166 63.5 q-90 20.5 -194 20.5 q-86 0 -168 -8 l36 686 l822 20 l-15 -207 q-66 -10 -268 -10 l-455 4 l-16 -291 q53 4 102 4 q90 0 177.5 -14 q87.5 -14 176.5 -50 q89 -36 155.5 -90.5 q66.5 -54.5 108.5 -139.5 q42 -85 42 -191 q0 -199 -152.5 -349.5 q-152.5 -150.5 -392.5 -150.5 q-190 0 -290.5 63 q-100.5 63 -100.5 161 Z" /><glyph glyph-name="six" unicode="6" d="M102 557 q0 377 243 650.5 q243 273.5 663 379.5 l28 -65 q-508 -182 -733 -764 l27 -6 q51 90 145 141 q94 51 217 51 q178 0 306 -126 q128 -126 128 -347 q0 -217 -142 -359.5 q-142 -142.5 -368 -142.5 q-242 0 -378 170 q-136 170 -136 418 ZM332 467 q0 -94 27.5 -181 q27.5 -87 96 -155 q68.5 -68 169.5 -68 q135 0 212.5 112 q77.5 112 77.5 267 q0 170 -81.5 282 q-81.5 112 -217 112 q-135.5 0 -210 -107.5 q-74.5 -107.5 -74.5 -261.5 Z" /><glyph glyph-name="seven" unicode="7" d="M131 1206 l2 215 l973 0 l0 -137 q-20 -35 -54 -95.5 q-34 -60.5 -125 -232.5 q-91 -172 -166 -329.5 q-75 -157.5 -150.5 -351 q-75.5 -193.5 -104.5 -330.5 l-264 -23 q186 588 749 1340 l-4 6 q-164 -61 -440 -62 l-416 0 Z" /><glyph glyph-name="eight" unicode="8" d="M119 350 q0 152 105.5 254.5 q105.5 102.5 230.5 136.5 q-119 51 -200 140.5 q-81 89.5 -81 212.5 q0 178 129 274 q129 96 313.5 96 q184.5 0 307.5 -90 q123 -90 123 -248 q0 -231 -295 -319 q350 -145 350 -430 q0 -156 -134 -282 q-134 -126 -370 -126 q-236 0 -357.5 119 q-121.5 119 -121.5 262 ZM309 360 q0 -129 81 -219 q81 -90 224 -90 q131 0 211 75 q80 75 80 196 q0 139 -94 224 q-94 85 -289 156 q-213 -123 -213 -342 ZM439 1326.5 q-77 -62.5 -77 -171 q0 -108.5 75 -177.5 q75 -69 233 -134 q100 39 155.5 118.5 q55.5 79.5 55.5 174.5 q0 117 -78 184.5 q-78 67.5 -185 67.5 q-102 0 -179 -62.5 Z" /><glyph glyph-name="nine" unicode="9" d="M80 965 q0 217 141 355 q141 138 367 138 q244 0 380 -166 q136 -166 136 -413 q0 -377 -243 -650.5 q-243 -273.5 -662 -380.5 l-29 66 q508 182 733 764 l-26 6 q-109 -193 -351 -192 q-178 0 -312 127 q-134 127 -134 346 ZM291 989 q0 -170 81 -279.5 q81 -109.5 216 -109.5 q135 0 210.5 107.5 q75.5 107.5 75.5 261.5 q0 152 -73.5 273.5 q-73.5 121.5 -218.5 121.5 q-135 0 -213 -110.5 q-78 -110.5 -78 -264.5 Z" /><glyph glyph-name="colon" unicode=":" d="M185 16 q-46 47 -46 113 q0 66 46 113 q46 47 111.5 47 q65.5 0 112 -47 q46.5 -47 46.5 -113 q0 -66 -46.5 -113 q-46.5 -47 -112 -47 q-65.5 0 -111.5 47 ZM185 694 q-46 47 -46 112.5 q0 65.5 46 113 q46 47.5 111.5 47.5 q65.5 0 112 -47.5 q46.5 -47.5 46.5 -113 q0 -65.5 -46.5 -112.5 q-46.5 -47 -112 -47 q-65.5 0 -111.5 47 Z" /><glyph glyph-name="semicolon" unicode=";" d="M102 -256 q100 49 152.5 112.5 q52.5 63.5 52.5 127.5 q0 59 -46 105 q-46 46 -132 71 q-2 4 -2 12 q0 47 58.5 102.5 q58.5 55.5 107.5 55.5 q72 0 134 -65.5 q62 -65.5 62 -162.5 q0 -135 -108.5 -248.5 q-108.5 -113.5 -251.5 -160.5 l-27 51 ZM187 694 q-46 47 -46 112.5 q0 65.5 46 113 q46 47.5 112 47.5 q66 0 112 -47.5 q46 -47.5 46 -113 q0 -65.5 -46 -112.5 q-46 -47 -112 -47 q-66 0 -112 47 Z" /><glyph glyph-name="less" unicode="&lt;" d="M84 672 l0 125 l946 374 l0 -88 l-866 -335 l0 -27 l866 -336 l0 -88 l-946 375 Z" /><glyph glyph-name="equal" unicode="=" d="M131 512 l0 80 l946 0 l0 -80 l-946 0 ZM131 874 l0 80 l946 0 l0 -80 l-946 0 Z" /><glyph glyph-name="greater" unicode="&gt;" d="M176 297 l0 88 l868 336 l0 27 l-868 335 l0 88 l948 -374 l0 -125 l-948 -375 Z" /><glyph glyph-name="question" unicode="?" d="M70 1247 q0 84 89 150.5 q89 66.5 253 66.5 q184 0 297.5 -83 q113.5 -83 113.5 -234 q0 -96 -62.5 -197.5 q-62.5 -101.5 -136 -170 q-73.5 -68.5 -136 -141.5 q-62.5 -73 -62.5 -120 q0 -39 8 -88 l-51 12 l-61 156 q6 72 53 147.5 q47 75.5 99 130 q52 54.5 95 130 q43 75.5 43 151.5 q0 109 -58 175.5 q-58 66.5 -177 66.5 q-113 0 -113 -64 l0 -217 l-45 -35 q-63 2 -106 49 q-43 47 -43 115 ZM298 16 q-46 47 -46 113 q0 66 46 113 q46 47 111.5 47 q65.5 0 111.5 -47 q46 -47 46 -113 q0 -66 -46 -113 q-46 -47 -111.5 -47 q-65.5 0 -111.5 47 Z" /><glyph glyph-name="at" unicode="@" d="M98 465 q0 389 259 638 q259 249 651 249 q377 -2 606 -234.5 q229 -232.5 229 -568.5 q0 -264 -131 -422 q-131 -158 -342 -158 q-82 0 -141.5 41 q-59.5 41 -73.5 115 q-27 -55 -95.5 -105.5 q-68.5 -50.5 -168.5 -50.5 q-127 0 -204 75 q-77 75 -77 177 q0 297 547 334 l0 133 q0 248 -194 248 q-129 0 -129 -80 l0 -164 l-50 -33 q-63 10 -106 47 q-43 37 -43 99 q0 80 106.5 138 q106.5 58 280.5 58 q166 0 243.5 -75.5 q77.5 -75.5 77.5 -247.5 q0 -80 -8 -260 q-8 -180 -8 -221 q0 -123 113 -123 q111 0 185.5 77.5 q74.5 77.5 104 181 q29.5 103.5 29.5 218.5 q0 307 -205.5 514 q-205.5 207 -533.5 207 q-184 0 -332.5 -67.5 q-148.5 -67.5 -240 -181.5 q-91.5 -114 -138.5 -254 q-47 -140 -47 -296 q0 -158 52.5 -303 q52.5 -145 149.5 -262 q97 -117 251.5 -186.5 q154.5 -69.5 343.5 -69.5 q115 0 255 36 q140 36 238 111 l31 -45 q-100 -90 -256 -138 q-156 -48 -305 -48 q-412 2 -668 251 q-256 249 -256 646 ZM797 258 q0 -78 48 -125 q48 -47 122 -47 q76 0 129 48 q53 48 55 153 l6 211 q-63 -10 -93 -15.5 q-30 -5.5 -90.5 -24 q-60.5 -18.5 -92 -41 q-31.5 -22.5 -58 -63.5 q-26.5 -41 -26.5 -96 Z" /><glyph glyph-name="A" unicode="a" d="M-23 -10 l0 73 l103 21 q47 8 71.5 29.5 q24.5 21.5 43.5 66.5 l495 1268 l139 39 q227 -612 519 -1305 q20 -47 40.5 -68.5 q20.5 -21.5 67.5 -29.5 l103 -21 l0 -73 l-316 10 l-319 -10 l0 73 l110 21 q59 10 80 33 q12 13 12 33 q0 14 -6 32 l-157 414 l-500 0 l-146 -414 q-7 -20 -7 -35 q0 -18 11 -30 q19 -23 78 -33 l107 -21 l0 -73 l-313 10 l-216 -10 ZM496 686 l436 0 l-219 584 l-217 -584 Z" /><glyph glyph-name="B" unicode="b" d="M90 -10 l0 73 l111 21 q57 10 77.5 30.5 q20.5 20.5 22.5 67.5 q6 195 6 533 l-6 534 q-4 51 -23.5 70.5 q-19.5 19.5 -76.5 30.5 l-111 20 l0 74 l316 -10 q256 8 423 8 q186 0 307 -92.5 q121 -92.5 121 -249.5 q0 -131 -83.5 -224.5 q-83.5 -93.5 -255.5 -121.5 l0 -15 q178 -16 290.5 -121.5 q112.5 -105.5 112.5 -257.5 q0 -63 -25.5 -124.5 q-25.5 -61.5 -83 -121 q-57.5 -59.5 -168 -95 q-110.5 -35.5 -260.5 -35.5 q-133 0 -378 16 l-316 -10 ZM508 705 l4 -482 q0 -94 57 -125 q49 -29 205 -28 q152 0 240 84 q88 84 88 231 q0 141 -83 230.5 q-83 89.5 -267 89.5 l-244 0 ZM508 813 q94 -27 205 -27 q190 2 264 74 q74 72 74 221 q0 133 -79 208 q-79 75 -231 75 q-37 0 -233 -8 l0 -543 Z" /><glyph glyph-name="C" unicode="c" d="M109 709 q0 317 216 536 q216 219 549 219 q193 0 353 -53 l162 23 l-46 -433 l-65 0 l-37 111 q-88 264 -367 264 q-100 0 -191 -28.5 q-91 -28.5 -175 -93 q-84 -64.5 -134 -189.5 q-50 -125 -50 -295 q0 -315 169 -495.5 q169 -180.5 472 -180.5 q127 0 239 33 l117 317 l74 0 q-6 -166 -6 -354 q-25 -14 -69 -33.5 q-44 -19.5 -183.5 -53.5 q-139.5 -34 -278.5 -34 q-352 0 -550.5 212.5 q-198.5 212.5 -198.5 527.5 Z" /><glyph glyph-name="D" unicode="d" d="M90 -10 l0 73 l111 21 q57 10 77.5 30.5 q20.5 20.5 22.5 67.5 q6 195 6 533 l-6 534 q-4 51 -23.5 70.5 q-19.5 19.5 -76.5 30.5 l-111 20 l0 74 l316 -10 q250 20 440 20 q373 0 573.5 -208 q200.5 -208 200.5 -513 q0 -336 -216 -542.5 q-216 -206.5 -636 -206.5 q-117 0 -362 16 l-316 -10 ZM508 223 q0 -100 67.5 -127.5 q67.5 -27.5 239.5 -27.5 q80 0 152.5 14 q72.5 14 152.5 55 q80 41 138.5 107.5 q58.5 66.5 96.5 181.5 q38 115 38 264 q0 319 -161 495.5 q-161 176.5 -474 176.5 q-37 0 -114 1 q-77 1 -99 1 q-25 0 -31 -7 q-6 -7 -6 -26 l0 -1108 Z" /><glyph glyph-name="E" unicode="e" d="M90 -10 l0 73 l111 21 q57 10 78.5 31.5 q21.5 21.5 21.5 66.5 q6 195 6 533 l-6 534 q-4 51 -23.5 70.5 q-19.5 19.5 -76.5 30.5 l-111 20 l0 74 l316 -10 l514 0 l325 22 q-16 -125 -37 -416 l-73 0 l-25 101 q-27 102 -62.5 151 q-35.5 49 -95.5 49 l-407 0 q-25 0 -31 -7 q-6 -7 -6 -25 l0 -537 q160 2 280 8 q49 4 73 25.5 q24 21.5 38 79.5 l29 112 l71 0 l-10 -262 l10 -270 l-71 0 l-29 113 q-16 57 -38.5 79.5 q-22.5 22.5 -72.5 24.5 l-280 8 l0 -467 q0 -129 149 -129 l252 0 q88 0 143.5 31 q55.5 31 110.5 133 l97 176 l69 0 l-69 -444 q-279 10 -402 10 l-452 0 l-316 -10 Z" /><glyph glyph-name="F" unicode="f" d="M90 -10 l0 73 l111 21 q57 10 77.5 30.5 q20.5 20.5 22.5 67.5 q6 195 6 533 l-6 534 q-4 51 -23.5 70.5 q-19.5 19.5 -76.5 30.5 l-111 20 l0 74 l316 -10 l552 0 l328 22 q-16 -125 -37 -416 l-73 0 l-27 101 q-29 104 -62.5 152 q-33.5 48 -93.5 48 l-448 0 q-25 0 -31 -7 q-6 -7 -6 -25 l0 -578 q221 2 340 8 q51 2 73.5 24.5 q22.5 22.5 36.5 80.5 l29 112 l72 0 l-10 -262 l10 -270 l-72 0 l-29 113 q-16 57 -38.5 79.5 q-22.5 22.5 -71.5 24.5 l-340 8 l0 -467 q0 -47 21.5 -68.5 q21.5 -21.5 78.5 -29.5 l131 -21 l0 -73 l-333 10 l-316 -10 Z" /><glyph glyph-name="G" unicode="g" d="M111 715 q0 178 67.5 323.5 q67.5 145.5 180 236.5 q112.5 91 254 140 q141.5 49 292.5 49 q227 0 395 -57 l164 33 l-45 -439 l-65 0 l-88 275 q-2 10 -50.5 30.5 q-48.5 20.5 -131.5 40 q-83 19.5 -160 19.5 q-268 0 -431 -169 q-163 -169 -163 -447 q0 -131 38 -249 q38 -118 113.5 -217.5 q75.5 -99.5 209.5 -157.5 q134 -58 308 -58 q80 0 155 22.5 q75 22.5 75 61.5 l0 307 q0 49 -20.5 69.5 q-20.5 20.5 -80.5 30.5 l-129 21 l0 77 l340 -10 l269 10 l0 -77 l-70 -21 q-59 -18 -79.5 -35.5 q-20.5 -17.5 -20.5 -64.5 l0 -371 q-289 -119 -516 -119 q-186 0 -333 49.5 q-147 49.5 -235 125 q-88 75.5 -144 178 q-56 102.5 -77.5 198 q-21.5 95.5 -21.5 195.5 Z" /><glyph glyph-name="H" unicode="h" d="M90 -10 l0 73 l111 21 q57 10 77.5 30.5 q20.5 20.5 22.5 67.5 q6 211 6 549 l-6 520 q-2 47 -22.5 67.5 q-20.5 20.5 -77.5 31.5 l-111 20 l0 74 l316 -10 l313 10 l0 -74 l-111 -20 q-57 -10 -77.5 -31 q-20.5 -21 -22.5 -68 q-6 -156 -6 -475 l798 0 l-6 475 q-2 47 -22.5 67.5 q-20.5 20.5 -77.5 31.5 l-111 20 l0 74 l314 -10 l315 10 l0 -74 l-110 -20 q-57 -10 -78 -31 q-21 -21 -23 -68 q-6 -182 -6 -520 l6 -549 q2 -47 22.5 -67.5 q20.5 -20.5 78.5 -30.5 l110 -21 l0 -73 l-315 10 l-314 -10 l0 73 l111 21 q57 10 77.5 30.5 q20.5 20.5 22.5 67.5 q6 184 6 504 l-798 0 l6 -504 q2 -47 22.5 -67.5 q20.5 -20.5 77.5 -30.5 l111 -21 l0 -73 l-313 10 l-316 -10 Z" /><glyph glyph-name="I" unicode="i" d="M90 -10 l0 73 l111 21 q57 10 77.5 30.5 q20.5 20.5 22.5 67.5 q6 195 6 533 l-6 534 q-4 51 -23.5 70.5 q-19.5 19.5 -76.5 30.5 l-111 20 l0 74 l316 -10 l313 10 l0 -74 l-111 -20 q-57 -10 -76.5 -30 q-19.5 -20 -23.5 -71 q-6 -197 -6 -534 l6 -533 q2 -47 22.5 -67.5 q20.5 -20.5 77.5 -30.5 l111 -21 l0 -73 l-313 10 l-316 -10 Z" /><glyph glyph-name="J" unicode="j" d="M12 -297 q137 29 200.5 108.5 q63.5 79.5 66.5 260.5 q4 346 6 643 l-6 534 q-4 51 -23.5 69.5 q-19.5 18.5 -77.5 31.5 l-100 20 l0 74 l305 -10 l313 10 l0 -74 l-108 -20 q-59 -10 -77.5 -28.5 q-18.5 -18.5 -23.5 -72.5 q-6 -197 -6 -534 l2 -529 q2 -47 24.5 -68.5 q22.5 -21.5 80.5 -29.5 l108 -14 l0 -74 l-215 0 q-8 -168 -98 -260 q-104 -104 -336 -109 l-35 72 Z" /><glyph glyph-name="K" unicode="k" d="M90 -10 l0 73 l111 21 q57 10 77.5 30.5 q20.5 20.5 22.5 67.5 q6 195 6 533 l-6 534 q-4 51 -23.5 70.5 q-19.5 19.5 -76.5 30.5 l-111 20 l0 74 l316 -10 l313 10 l0 -74 l-111 -20 q-57 -10 -76.5 -30 q-19.5 -20 -23.5 -71 q-6 -176 -6 -473 l233 0 q152 164 352 453 q27 35 27 61 q0 43 -88 60 l-108 20 l0 74 l301 -10 l274 10 l0 -74 l-94 -22 q-55 -12 -99.5 -46 q-44.5 -34 -119.5 -128 l-299 -355 l456 -647 q27 -39 55.5 -55.5 q28.5 -16.5 86.5 -30.5 l94 -23 l0 -73 l-270 10 l-99 -6 q-129 203 -244.5 376 q-115.5 173 -164.5 244 l-52 72 l-241 0 l6 -504 q2 -47 22.5 -67.5 q20.5 -20.5 77.5 -30.5 l111 -21 l0 -73 l-313 10 l-316 -10 Z" /><glyph glyph-name="L" unicode="l" d="M90 -10 l0 73 l111 21 q57 10 77.5 30.5 q20.5 20.5 22.5 67.5 q6 195 6 533 l-6 534 q-4 51 -23.5 70.5 q-19.5 19.5 -76.5 30.5 l-111 20 l0 74 l316 -10 l313 10 l0 -74 l-111 -20 q-57 -10 -76.5 -30 q-19.5 -20 -23.5 -71 q-6 -197 -6 -534 q0 -268 8 -506 q2 -66 35 -90.5 q33 -24.5 112 -24.5 l232 0 q88 0 143 31 q55 31 111 133 l96 176 l70 0 l-49 -444 q-299 10 -420 10 l-434 0 l-316 -10 Z" /><glyph glyph-name="M" unicode="m" d="M80 -10 l0 73 l110 21 q57 10 78 30.5 q21 20.5 23 67.5 q10 246 15 513.5 q5 267.5 5 410.5 l0 143 q0 49 -21.5 69.5 q-21.5 20.5 -78.5 31.5 l-111 20 l0 74 l275 -10 l196 10 l494 -1192 l448 1118 l0 74 l175 -10 l315 10 l0 -74 l-111 -20 q-59 -10 -81 -32 q-20 -20 -19 -61 q0 -257 7 -616.5 q7 -359.5 7 -458.5 q0 -47 21.5 -67.5 q21.5 -20.5 79.5 -30.5 l108 -21 l0 -73 l-313 10 l-316 -10 l0 73 l111 21 q57 10 78.5 30.5 q21.5 20.5 21.5 67.5 l-12 1116 l-538 -1310 l-93 0 q-291 700 -555 1308 q2 -840 2 -1114 q0 -47 20.5 -67.5 q20.5 -20.5 78.5 -30.5 l110 -21 l0 -73 l-276 10 l-254 -10 Z" /><glyph glyph-name="N" unicode="n" d="M80 -10 l0 73 l110 21 q57 10 78 30.5 q21 20.5 23 67.5 q20 492 20 1067 q0 47 -20.5 68.5 q-20.5 21.5 -77.5 32.5 l-104 20 l0 74 l264 -10 l194 10 q41 -90 82 -144 l735 -985 q-8 406 -20 934 q-2 49 -22.5 69.5 q-20.5 20.5 -77.5 31.5 l-111 20 l0 74 l274 -10 l267 10 l0 -74 l-111 -20 q-57 -10 -78.5 -31 q-21.5 -21 -21.5 -70 q-12 -543 -13 -1259 l-102 0 q-266 365 -506.5 686 q-240.5 321 -349.5 461 l-106 139 q2 -819 2 -1094 q0 -47 21.5 -67.5 q21.5 -20.5 78.5 -30.5 l110 -21 l0 -73 l-284 10 l-254 -10 Z" /><glyph glyph-name="O" unicode="o" d="M111 702 q0 334 206.5 548 q206.5 214 554.5 214 q133 0 258 -47 q125 -47 228.5 -136 q103.5 -89 166 -233.5 q62.5 -144.5 62.5 -322.5 q0 -334 -204.5 -545 q-204.5 -211 -551.5 -211 q-133 0 -259 46 q-126 46 -230 133.5 q-104 87.5 -167.5 231.5 q-63.5 144 -63.5 322 ZM330 743 q0 -330 154.5 -503.5 q154.5 -173.5 371.5 -173.5 q109 0 198 39.5 q89 39.5 146 102 q57 62.5 96 146.5 q39 84 55.5 167 q16.5 83 16.5 167 q0 328 -154.5 504 q-154.5 176 -373.5 176 q-135 0 -238.5 -59.5 q-103.5 -59.5 -160 -154.5 q-56.5 -95 -84 -200 q-27.5 -105 -27.5 -211 Z" /><glyph glyph-name="P" unicode="p" d="M90 -10 l0 73 l111 21 q57 10 77.5 30.5 q20.5 20.5 22.5 67.5 q6 195 6 533 l-6 534 q-4 51 -23.5 70.5 q-19.5 19.5 -76.5 30.5 l-111 20 l0 74 l395 -6 q199 18 332 18 q80 0 156 -21.5 q76 -21.5 143.5 -67.5 q67.5 -46 109.5 -129 q42 -83 42 -191 q0 -82 -30 -159 q-30 -77 -90.5 -144.5 q-60.5 -67.5 -167 -108.5 q-106.5 -41 -245.5 -41 l-110 12 l0 84 q80 -2 100 -2 q143 0 234.5 91 q91.5 91 91.5 261 q0 154 -86 239 q-86 85 -228 85 l-192 0 q-25 0 -32 -8 q-7 -8 -7 -25 q-4 -279 -4 -616 l6 -533 q2 -47 22.5 -67.5 q20.5 -20.5 77.5 -30.5 l111 -21 l0 -73 l-313 10 l-316 -10 Z" /><glyph glyph-name="Q" unicode="q" d="M111 702 q0 334 206.5 548 q206.5 214 554.5 214 q133 0 258 -47 q125 -47 228.5 -136 q103.5 -89 166 -233.5 q62.5 -144.5 62.5 -322.5 q0 -270 -137 -464.5 q-137 -194.5 -381 -260.5 q543 -250 817 -315 q71 -17 131 -17 q48 0 90 10 l13 -86 q-98 -45 -190 -66 q-64 -15 -126 -15 q-27 0 -54 3 q-89 9 -155.5 23 q-66.5 14 -157.5 60.5 q-91 46.5 -142.5 77 q-51.5 30.5 -149.5 92.5 q-201 127 -361 204 q-274 8 -473.5 201.5 q-199.5 193.5 -199.5 529.5 ZM330 743 q0 -330 154.5 -503.5 q154.5 -173.5 371.5 -173.5 q109 0 198 39.5 q89 39.5 146 102 q57 62.5 96 146.5 q39 84 55.5 167 q16.5 83 16.5 167 q0 328 -154.5 504 q-154.5 176 -373.5 176 q-135 0 -238.5 -59.5 q-103.5 -59.5 -160 -154.5 q-56.5 -95 -84 -200 q-27.5 -105 -27.5 -211 Z" /><glyph glyph-name="R" unicode="r" d="M90 -10 l0 73 l111 21 q57 10 78.5 31.5 q21.5 21.5 21.5 66.5 q6 195 6 533 l-6 534 q-4 51 -23.5 70.5 q-19.5 19.5 -76.5 30.5 l-111 20 l0 74 l414 -6 q180 18 313 18 q57 0 113.5 -9 q56.5 -9 116 -36 q59.5 -27 102.5 -67.5 q43 -40.5 71.5 -109.5 q28.5 -69 28.5 -157 q0 -121 -77.5 -220 q-77.5 -99 -217.5 -157 l0 -8 l228 -323 q106 -152 200 -240 q68 -66 187 -78 l-21 -84 q-213 0 -319.5 55.5 q-106.5 55.5 -196.5 186.5 q-37 51 -141.5 222 q-104.5 171 -132.5 212 l-250 0 q2 -221 8 -461 q2 -47 22.5 -67.5 q20.5 -20.5 77.5 -30.5 l111 -21 l0 -73 l-321 10 l-316 -10 ZM508 748 q111 -16 295 -17 q78 0 154.5 83 q76.5 83 76.5 241 q0 147 -95 228 q-95 81 -243 81 l-151 0 q-25 0 -31 -7 q-6 -7 -6 -26 l0 -583 Z" /><glyph glyph-name="S" unicode="s" d="M125 469 l84 10 q29 -117 102 -272 q31 -70 115 -108 q84 -38 176 -38 q123 0 212 67 q89 67 89 185 q0 84 -60.5 153 q-60.5 69 -137 107.5 q-76.5 38.5 -192.5 95 q-116 56.5 -179 99.5 q-176 121 -176 313 q0 162 132 272.5 q132 110.5 353 110.5 q86 0 181.5 -13 q95.5 -13 151.5 -26.5 q56 -13.5 68 -19.5 q-25 -188 -38 -356 l-78 0 q-35 123 -74 241 q-8 31 -66.5 55.5 q-58.5 24.5 -158.5 24.5 q-123 0 -203 -62.5 q-80 -62.5 -80 -164.5 q0 -86 77 -153.5 q77 -67.5 185.5 -116 q108.5 -48.5 217 -103.5 q108.5 -55 185 -147.5 q76.5 -92.5 76.5 -214.5 q0 -203 -141 -321 q-141 -118 -356 -118 q-104 0 -217 21.5 q-113 21.5 -174 42.5 l-62 20 q0 24 0 49 q1 172 -12 367 Z" /><glyph glyph-name="T" unicode="t" d="M51 1040 l23 416 q139 -23 315 -22 l342 -7 l342 7 q78 0 157 6 q79 6 118 10 l41 6 q2 -229 18 -416 l-82 0 l-35 121 q-55 178 -182 178 l-274 0 q-6 -287 -7 -624 l7 -533 q2 -47 22.5 -67.5 q20.5 -20.5 77.5 -30.5 l108 -21 l0 -73 l-311 10 l-315 -10 l0 73 l110 21 q57 10 78 30.5 q21 20.5 23 67.5 q6 195 6 533 l-6 624 l-273 0 q-129 0 -184 -178 l-37 -121 l-82 0 Z" /><glyph glyph-name="U" unicode="u" d="M57 1370 l0 74 l316 -10 l313 10 l0 -74 l-108 -20 q-57 -10 -79 -31 q-22 -21 -22 -70 l0 -753 q0 -221 119 -318.5 q119 -97.5 305 -97.5 q440 0 440 489 q0 125 -2 391.5 q-2 266.5 -2 288.5 q0 49 -21.5 69.5 q-21.5 20.5 -78.5 31.5 l-111 20 l0 74 l275 -10 l262 10 l0 -74 l-111 -20 q-57 -10 -78.5 -31 q-21.5 -21 -21.5 -70 l-4 -698 q0 -281 -149.5 -431.5 q-149.5 -150.5 -440.5 -150.5 q-285 0 -437.5 134.5 q-152.5 134.5 -152.5 388.5 l0 757 q0 49 -21.5 69.5 q-21.5 20.5 -78.5 31.5 l-111 20 Z" /><glyph glyph-name="V" unicode="v" d="M-16 1370 l0 74 l315 -10 l332 10 l0 -74 l-111 -20 q-59 -12 -82 -34 q-14 -13 -13 -34 q0 -13 5 -31 q68 -197 168 -470 q100 -273 166 -447 l65 -174 l398 1091 q7 18 6 32 q0 20 -13 33 q-24 22 -83 34 l-109 20 l0 74 l322 -10 l215 10 l0 -74 l-103 -20 q-47 -8 -71.5 -30 q-24.5 -22 -42.5 -67 l-494 -1265 l-170 -21 q-227 635 -489 1284 q-20 47 -42 68.5 q-22 21.5 -67 30.5 l-102 20 Z" /><glyph glyph-name="W" unicode="w" d="M-10 1370 l0 74 l315 -10 l332 10 l0 -74 l-111 -20 q-59 -12 -82 -34 q-14 -13 -13 -34 q0 -13 5 -31 l359 -1091 l319 809 l-92 282 q-16 47 -37.5 68.5 q-21.5 21.5 -69.5 30.5 l-102 20 l0 74 l397 -8 l260 8 l0 -74 l-120 -24 q-41 -8 -62.5 -24.5 q-21.5 -16.5 -33.5 -58.5 q-3 -12 -3 -26 q0 -36 21 -88 l344 -989 l379 1091 q6 17 5 31 q0 21 -13 34 q-23 22 -82 34 l-111 20 l0 74 l322 -10 l215 10 l0 -74 l-103 -20 q-47 -8 -71.5 -30 q-24.5 -22 -42.5 -67 q-147 -381 -265 -697 q-118 -316 -161 -441 l-46 -127 l-169 -21 q-238 641 -316 887 l-336 -866 l-170 -21 q-272 788 -450 1284 q-18 47 -41 68.5 q-23 21.5 -68 30.5 l-102 20 Z" /><glyph glyph-name="X" unicode="x" d="M23 -10 l0 73 l102 21 q68 12 127 90 q203 276 393 553 l-373 524 q-57 80 -147 99 l-102 20 l0 74 l313 -10 l350 10 l0 -74 l-119 -20 q-49 -8 -56 -42 q-1 -6 -1 -13 q0 -29 25 -64 q111 -176 243 -369 q59 84 117.5 176 q58.5 92 87.5 142 l31 51 q25 40 24 67 q0 41 -55 52 l-111 20 l0 74 l349 -10 l194 10 l0 -74 l-102 -20 q-76 -14 -142 -99 q-209 -268 -340 -460 q197 -287 435 -617 q57 -76 127 -90 l102 -21 l0 -73 l-301 10 l-328 -10 l0 73 l105 21 q55 10 63 34 q2 5 2 11 q0 21 -22 51 l-316 469 q-147 -221 -309 -469 q-22 -30 -22 -51 q0 -6 2 -11 q8 -24 61 -34 l117 -21 l0 -73 l-223 10 l-301 -10 Z" /><glyph glyph-name="Y" unicode="y" d="M-23 1370 l0 74 l316 -10 l321 10 l0 -74 l-110 -20 q-92 -17 -92 -64 q0 -16 10 -35 l346 -620 q131 217 342 614 q12 22 12 40 q0 48 -90 65 l-110 20 l0 74 l313 -10 l215 10 l0 -74 l-96 -20 q-45 -8 -69.5 -30 q-24.5 -22 -51.5 -67 l-414 -696 l0 -100 q0 -143 4 -275 q2 -47 20.5 -67.5 q18.5 -20.5 76.5 -30.5 l110 -21 l0 -73 l-315 10 l-314 -10 l0 73 l109 21 q57 10 75.5 29.5 q18.5 19.5 20.5 68.5 q4 131 4 275 l0 90 q-141 242 -415 704 q-29 45 -54.5 66.5 q-25.5 21.5 -70.5 32.5 l-93 20 Z" /><glyph glyph-name="Z" unicode="z" d="M98 -8 l0 86 q356 471 918 1261 l-629 0 q-59 0 -94 -48 q-35 -48 -62 -150 l-26 -101 l-74 0 l-16 416 q20 -2 54 -6 q34 -4 116 -10 q82 -6 135 -6 l850 8 l0 -88 q-324 -446 -887 -1227 q-8 -8 -3 -20.5 q5 -12.5 26 -12.5 l512 0 q88 0 144 31 q56 31 112 133 l96 176 l69 0 l-69 -444 q-279 10 -402 10 l-512 0 l-258 -8 Z" /><glyph glyph-name="bracketleft" unicode="[" d="M190 -348 l0 1898 l482 0 l0 -71 l-353 0 q90 -360 91 -850 q0 -483 -91 -908 l353 0 l0 -69 l-482 0 Z" /><glyph glyph-name="backslash" unicode="\" d="M45 1669 l80 39 l922 -1946 l-76 -36 l-926 1943 Z" /><glyph glyph-name="bracketright" unicode="]" d="M33 -279 l352 0 q-90 424 -90 908 q0 213 22.5 426 q22.5 213 44.5 317 l23 107 l-352 0 l0 71 l481 0 l0 -1898 l-481 0 l0 69 Z" /><glyph glyph-name="asciicircum" unicode="^" d="M162 465 l366 969 l123 0 l367 -969 l-86 0 l-330 887 l-24 0 l-330 -887 l-86 0 Z" /><glyph glyph-name="underscore" unicode="_" d="M154 -227 l698 0 l0 -103 l-698 0 l0 103 Z" /><glyph glyph-name="grave" unicode="`" d="M190 1507 l248 0 l191 -374 l-76 -13 l-363 387 Z" /><glyph glyph-name="a" unicode="a" d="M84 221 q0 297 547 334 l0 133 q0 248 -195 248 q-129 0 -129 -80 l0 -164 l-49 -33 q-63 10 -106 47 q-43 37 -43 99 q0 80 105 138 q105 58 280 58 q168 0 245.5 -75.5 q77.5 -75.5 77.5 -247.5 q0 -80 -8 -254 q-8 -174 -8 -215 q0 -121 96 -121 q53 0 90 37 l21 -37 q-27 -55 -80.5 -87 q-53.5 -32 -114.5 -32 q-80 0 -129 42 q-49 42 -55 118 q-25 -59 -94.5 -109.5 q-69.5 -50.5 -169.5 -50.5 q-127 0 -204 75 q-77 75 -77 177 ZM270 258 q0 -78 48.5 -125 q48.5 -47 121.5 -47 q76 0 129.5 48 q53.5 48 55.5 153 l6 211 q-186 -29 -254 -66 q-107 -57 -107 -174 Z" /><glyph glyph-name="b" unicode="b" d="M27 1446 l0 29 l249 71 l56 0 l0 -452 l-25 -256 l19 -4 q45 76 132 121.5 q87 45.5 185 45.5 q182 0 310 -134 q128 -134 128 -371 q0 -209 -136 -368 q-136 -159 -365 -159 q-150 0 -281 60 l-88 -45 l-57 12 l0 1307 q0 55 -8.5 78.5 q-8.5 23.5 -34.5 33.5 l-84 31 ZM332 281 q0 -113 61.5 -176.5 q61.5 -63.5 188.5 -63.5 q143 0 226 107.5 q83 107.5 83 312.5 q0 199 -93 308.5 q-93 109.5 -229 109.5 q-121 0 -179 -56.5 q-58 -56.5 -58 -130.5 l0 -411 Z" /><glyph glyph-name="c" unicode="c" d="M88 469 q0 229 136 380.5 q136 151.5 354 151.5 q162 0 240.5 -61 q78.5 -61 78.5 -125 q0 -61 -42 -101 q-42 -40 -105 -48 l-60 34 l0 119 q0 70 -21.5 88.5 q-21.5 18.5 -90.5 18.5 q-131 0 -215 -112 q-84 -112 -84 -310.5 q0 -198.5 104 -299 q104 -100.5 244 -100.5 q88 0 163.5 41 q75.5 41 108.5 109 l39 -57 q-121 -227 -401 -228 q-186 0 -317.5 127 q-131.5 127 -131.5 373 Z" /><glyph glyph-name="d" unicode="d" d="M88 475 q0 223 139.5 374.5 q139.5 151.5 356.5 151.5 q154 0 254 -55 l0 260 q0 113 -11.5 154 q-11.5 41 -50.5 55 l-84 31 l0 29 l273 71 l57 0 q-6 -205 -6 -452 l0 -736 q0 -160 8 -204 q10 -53 102 -60 l54 -4 l0 -57 l-279 -49 l-57 0 l4 147 l-17 2 q-117 -164 -323 -164 q-180 0 -300 133 q-120 133 -120 373 ZM279 508 q0 -193 90 -296 q90 -103 223 -103 q121 0 183.5 51 q62.5 51 62.5 123 l0 409 q0 113 -71 173.5 q-71 60.5 -177 60.5 q-156 0 -233.5 -128 q-77.5 -128 -77.5 -290 Z" /><glyph glyph-name="e" unicode="e" d="M90 469 q0 248 137.5 390 q137.5 142 315.5 142 q102 0 181 -37.5 q79 -37.5 124 -99 q45 -61.5 67.5 -130 q22.5 -68.5 22.5 -138.5 l0 -37 l-655 0 q-2 -23 -2 -55 q0 -199 100 -299.5 q100 -100.5 237 -100.5 q88 0 164 41 q76 41 109 109 l39 -57 q-121 -227 -398 -228 q-186 0 -314 127 q-128 127 -128 373 ZM285 627 l458 6 q0 10 1 19 q0 122 -49 197 q-52 81 -160 81 q-106 0 -174 -80 q-68 -80 -76 -223 Z" /><glyph glyph-name="f" unicode="f" d="M63 -10 l0 59 l64 14 q59 14 79.5 34 q20.5 20 20.5 65 l0 731 l-155 0 l0 70 l155 0 q0 158 47.5 276.5 q47.5 118.5 125 184 q77.5 65.5 165.5 97 q88 31.5 185 31.5 q68 0 136 -24.5 q68 -24.5 68 -65.5 q0 -33 -49 -84 q-49 -51 -96 -51 q-2 0 -25.5 31 q-23.5 31 -65.5 60.5 q-42 29.5 -89 29.5 q-115 0 -170 -105 q-53 -100 -53 -382 l241 14 l-16 -115 l-225 35 l0 -721 q0 -49 18 -71.5 q18 -22.5 74 -32.5 l108 -21 l0 -59 l-291 10 l-252 -10 Z" /><glyph glyph-name="g" unicode="g" d="M72 -268 q0 90 58 153.5 q58 63.5 151 96.5 l0 18 q-66 8 -105 57 q-39 49 -39 113 q0 88 127 190 q-164 90 -164 287 q0 156 109.5 255 q109.5 99 294.5 99 q139 0 246 -71 l317 47 l0 -178 l-23 -4 l-200 67 l-13 -12 q57 -84 58 -191 q0 -160 -112.5 -257 q-112.5 -97 -291.5 -97 q-92 0 -168 31 q-35 -57 -34.5 -100 q0.5 -43 40 -62.5 q39.5 -19.5 195.5 -38.5 l209 -24 q61 -8 103 -18.5 q42 -10.5 88.5 -36 q46.5 -25.5 71 -74 q24.5 -48.5 24.5 -119.5 q0 -168 -140.5 -280.5 q-140.5 -112.5 -402.5 -112.5 q-205 0 -302 78 q-97 78 -97 184 ZM246 -227 q0 -111 85 -168.5 q85 -57.5 216 -57.5 q139 0 217 60.5 q78 60.5 78 167.5 q0 135 -127 162 q-162 33 -355 38 q-47 -23 -80.5 -75.5 q-33.5 -52.5 -33.5 -126.5 ZM289 666 q0 -143 61.5 -219 q61.5 -76 147.5 -76 q109 0 154.5 80.5 q45.5 80.5 45.5 189.5 q0 147 -60 221 q-60 74 -146 74 q-109 0 -156 -82 q-47 -82 -47 -188 Z" /><glyph glyph-name="h" unicode="h" d="M55 1446 l0 29 l267 71 l57 0 l0 -452 q0 -88 -8.5 -151.5 q-8.5 -63.5 -16.5 -84.5 l-8 -20 l19 -4 q37 57 122.5 112 q85.5 55 198.5 55 q326 0 326 -335 l-4 -504 q0 -45 20.5 -64.5 q20.5 -19.5 77.5 -34.5 l61 -14 l0 -59 l-249 10 l-252 -10 l0 59 l63 14 q70 16 86 68 q16 55 16 408 q0 78 -7 133 q-7 55 -28.5 110.5 q-21.5 55.5 -67.5 83 q-46 27.5 -116 27.5 q-143 0 -188 -79 q-45 -79 -45 -245 l0 -407 q0 -47 21.5 -66.5 q21.5 -19.5 78.5 -32.5 l62 -14 l0 -59 l-252 10 l-232 -10 l0 59 l43 14 q61 20 81 37 q20 17 20 62 l0 1044 q0 113 -10.5 154 q-10.5 41 -49.5 55 l-86 31 Z" /><glyph glyph-name="i" unicode="i" d="M61 -10 l0 59 l64 14 q59 14 79.5 34 q20.5 20 20.5 65 l0 446 q0 109 -12 152 q-12 43 -53 57 l-84 31 l0 29 l258 137 l74 0 q-4 -150 -5 -348 l0 -504 q0 -47 19.5 -65.5 q19.5 -18.5 79.5 -33.5 l63 -14 l0 -59 l-250 10 l-254 -10 ZM201 1258.5 q-41 39.5 -41 99 q0 59.5 41 99.5 q41 40 98 40 q57 0 98 -40 q41 -40 41 -99.5 q0 -59.5 -41 -99 q-41 -39.5 -98 -39.5 q-57 0 -98 39.5 Z" /><glyph glyph-name="j" unicode="j" d="M2 -442 q111 37 154 106.5 q43 69.5 43 202.5 l0 741 q0 109 -12.5 152 q-12.5 43 -51.5 57 l-86 31 l0 29 l260 137 l74 0 q-6 -150 -6 -348 l0 -492 q0 -47 20.5 -66.5 q20.5 -19.5 79.5 -33.5 l62 -15 l0 -59 l-164 0 l0 -170 q0 -133 -87 -219 q-87 -86 -233 -103 l-18 -2 l-35 52 ZM173 1258.5 q-40 39.5 -40 99 q0 59.5 40 99.5 q40 40 99.5 40 q59.5 0 99.5 -40 q40 -40 40 -99.5 q0 -59.5 -40 -99 q-40 -39.5 -99.5 -39.5 q-59.5 0 -99.5 39.5 Z" /><glyph glyph-name="k" unicode="k" d="M41 -10 l0 59 l61 14 q59 14 80 34 q21 20 21 65 l0 1044 q0 113 -11.5 154 q-11.5 41 -50.5 55 l-84 31 l0 29 l273 71 l57 0 q-6 -324 -6 -567 l0 -401 l113 0 l239 221 q25 25 25 48 q0 7 -2 14 q-10 30 -54 36 l-79 10 l0 70 l208 -10 l271 10 l0 -59 l-58 -15 q-109 -29 -186 -100 l-235 -205 l319 -438 q45 -63 123 -84 l65 -19 l0 -59 l-249 2 l-56 -4 q-27 55 -112.5 181 q-85.5 126 -159.5 224 l-72 97 l-100 0 l0 -336 q0 -47 20.5 -65.5 q20.5 -18.5 79.5 -33.5 l62 -14 l0 -59 l-250 10 l-252 -10 Z" /><glyph glyph-name="l" unicode="l" d="M39 -10 l0 59 l63 14 q59 12 80 32 q21 20 21 67 l0 1044 q0 113 -11.5 154 q-11.5 41 -50.5 55 l-84 31 l0 29 l275 71 l57 0 q-6 -338 -6 -622 l0 -762 q0 -47 19.5 -65.5 q19.5 -18.5 78.5 -33.5 l72 -14 l0 -59 l-260 10 l-254 -10 Z" /><glyph glyph-name="m" unicode="m" d="M72 848 l0 29 l239 137 l58 0 l-7 -176 l19 -4 q35 55 122 111 q87 56 199 56 q219 0 291 -163 l19 -4 q33 59 120 113 q87 54 201 54 q326 0 326 -335 l-4 -504 q0 -45 20.5 -64.5 q20.5 -19.5 77.5 -34.5 l62 -14 l0 -59 l-250 10 l-252 -10 l0 59 l63 14 q70 16 86 68 q16 55 17 408 q0 72 -6.5 122 q-6.5 50 -26 109 q-19.5 59 -66.5 91 q-47 32 -120 32 q-143 0 -188.5 -79 q-45.5 -79 -45.5 -245 l0 -407 q0 -45 20.5 -64.5 q20.5 -19.5 77.5 -34.5 l62 -14 l0 -59 l-250 10 l-234 -10 l0 59 l43 14 q72 23 86 68 q16 55 17 408 q0 72 -6 122 q-6 50 -25.5 109 q-19.5 59 -67 91 q-47.5 32 -120.5 32 q-143 0 -188.5 -79 q-45.5 -79 -45.5 -245 l0 -407 q0 -47 20.5 -66.5 q20.5 -19.5 80.5 -32.5 l61 -14 l0 -59 l-252 10 l-231 -10 l0 59 l43 14 q61 20 80.5 37 q19.5 17 19.5 62 l0 446 q0 113 -11 154 q-11 41 -50 55 l-84 31 Z" /><glyph glyph-name="n" unicode="n" d="M72 848 l0 29 l239 137 l58 0 l-7 -176 l19 -4 q35 55 122 111 q87 56 199 56 q326 0 326 -335 l-4 -504 q0 -45 20.5 -64.5 q20.5 -19.5 77.5 -34.5 l62 -14 l0 -59 l-250 10 l-252 -10 l0 59 l63 14 q70 16 86 68 q16 55 17 408 q0 78 -7 133 q-7 55 -28.5 110.5 q-21.5 55.5 -68 83 q-46.5 27.5 -115.5 27.5 q-143 0 -188.5 -79 q-45.5 -79 -45.5 -245 l0 -407 q0 -47 20.5 -66.5 q20.5 -19.5 80.5 -32.5 l61 -14 l0 -59 l-252 10 l-231 -10 l0 59 l43 14 q61 20 80.5 37 q19.5 17 19.5 62 l0 446 q0 113 -11 154 q-11 41 -50 55 l-84 31 Z" /><glyph glyph-name="o" unicode="o" d="M88 477 q0 229 135 376.5 q135 147.5 363 147.5 q193 0 330 -134 q137 -134 137 -371.5 q0 -237.5 -136.5 -382 q-136.5 -144.5 -357.5 -144.5 q-188 0 -329.5 132 q-141.5 132 -141.5 376 ZM279 504 q0 -223 87 -341 q87 -118 209 -118 q104 0 173 70.5 q69 70.5 91.5 160 q22.5 89.5 22.5 191.5 q0 231 -85 345 q-85 114 -210 114 q-106 0 -174.5 -71 q-68.5 -71 -91 -160 q-22.5 -89 -22.5 -191 Z" /><glyph glyph-name="p" unicode="p" d="M41 -449 l61 15 q57 12 77 31.5 q20 19.5 20 66.5 l0 944 q0 113 -11.5 154 q-11.5 41 -50.5 55 l-84 31 l0 29 l254 137 l58 0 l-7 -176 l19 -4 q45 76 132 121.5 q87 45.5 185 45.5 q182 0 310.5 -134 q128.5 -134 128.5 -371 q0 -207 -136.5 -367 q-136.5 -160 -365.5 -160 q-158 0 -281 62 q31 -72 31 -224 l0 -143 q0 -47 21.5 -68.5 q21.5 -21.5 78.5 -29.5 l92 -15 l0 -59 l-282 10 l-250 -10 l0 59 ZM383 281 q0 -106 71.5 -169 q71.5 -63 172.5 -63 q147 0 231 101.5 q84 101.5 84 310.5 q0 193 -92 300 q-92 107 -225 107 q-121 0 -181.5 -53 q-60.5 -53 -60.5 -127 l0 -407 Z" /><glyph glyph-name="q" unicode="q" d="M88 475 q0 227 139.5 376.5 q139.5 149.5 356.5 149.5 q170 0 301 -79 q33 49 123 79 l32 -10 q-2 -20 -5 -58 q-3 -38 -8 -157 q-5 -119 -5 -241 l-2 -871 q0 -47 19.5 -66.5 q19.5 -19.5 74.5 -31.5 l64 -15 l0 -59 l-250 10 l-283 -10 l0 59 l92 15 q55 8 78 29.5 q23 21.5 23 68.5 l0 178 q0 150 10 289 l-17 2 q-117 -164 -323 -164 q-180 0 -300 133 q-120 133 -120 373 ZM279 508 q0 -193 90 -296 q90 -103 223 -103 q121 0 183.5 51 q62.5 51 62.5 123 l0 409 q0 113 -71 173.5 q-71 60.5 -177 60.5 q-156 0 -233.5 -128 q-77.5 -128 -77.5 -290 Z" /><glyph glyph-name="r" unicode="r" d="M72 848 l0 29 l239 137 l58 0 l-7 -230 l19 -4 q53 76 138 143.5 q85 67.5 167 67.5 q72 0 112 -36.5 q40 -36.5 40 -88.5 q0 -41 -29 -76.5 q-29 -35.5 -78 -56.5 l-29 0 l-120 107 q-131 -70 -187 -119 l0 -559 q0 -47 21.5 -67.5 q21.5 -20.5 79.5 -31.5 l92 -14 l0 -59 l-283 10 l-231 -10 l0 59 l43 14 q61 20 80.5 37 q19.5 17 19.5 62 l0 446 q0 113 -11 154 q-11 41 -50 55 l-84 31 Z" /><glyph glyph-name="s" unicode="s" d="M113 29 l0 274 l71 0 l88 -217 q53 -43 129 -43 q201 0 201 166 q0 33 -11 60.5 q-11 27.5 -24.5 46 q-13.5 18.5 -41 37 q-27.5 18.5 -44 26.5 q-16.5 8 -51.5 22.5 q-35 14.5 -45 20.5 q-141 66 -206.5 128 q-65.5 62 -65.5 171 q0 141 104.5 210.5 q104.5 69.5 259.5 69.5 q164 0 264 -47 l-24 -237 l-70 -6 q-18 70 -39 125 q-35 94 -151 94 q-78 0 -132.5 -37 q-54.5 -37 -54.5 -111 q0 -63 51.5 -108 q51.5 -45 125 -77 q73.5 -32 147.5 -68.5 q74 -36.5 125 -103.5 q51 -67 51 -159 q0 -139 -106.5 -218 q-106.5 -79 -245.5 -79 q-168 1 -305 60 Z" /><glyph glyph-name="t" unicode="t" d="M27 848 l0 72 q72 31 127 59 q119 59 157 254 l78 -2 l0 -279 l322 0 l-15 -116 l-307 30 l0 -551 q0 -137 38 -184 q38 -47 118 -47 q43 0 95 24.5 q52 24.5 73 61.5 l32 -43 q-27 -76 -103.5 -117 q-76.5 -41 -164.5 -41 q-121 0 -193.5 65.5 q-72.5 65.5 -72.5 192.5 l0 621 l-184 0 Z" /><glyph glyph-name="u" unicode="u" d="M35 899 l0 59 l241 11 l99 12 q-12 -113 -13 -612 q0 -289 218 -289 q59 0 102 17.5 q43 17.5 66.5 45 q23.5 27.5 37 75.5 q13.5 48 16.5 92 q3 44 3 110 l0 354 q0 51 -17.5 77 q-17.5 26 -70.5 36 l-64 12 l0 59 l242 11 l98 12 q-10 -254 -10 -623 q0 -160 8 -204 q10 -53 103 -60 l53 -4 l0 -57 l-279 -49 l-57 0 l4 147 l-16 4 q-39 -59 -116 -112.5 q-77 -53.5 -187 -53.5 q-313 0 -314 346 l4 459 q0 51 -17 77 q-17 26 -71 36 l-63 12 Z" /><glyph glyph-name="v" unicode="v" d="M-2 918 l0 59 l229 -10 l267 10 l0 -59 l-72 -15 q-57 -12 -77 -35 q-11 -12 -10 -30 q0 -15 7 -33 l260 -637 q186 475 244 637 q7 17 7 31 q0 19 -13 30 q-23 20 -86 37 l-49 15 l0 59 l202 -10 l193 10 l0 -59 l-43 -15 q-51 -18 -71.5 -36.5 q-20.5 -18.5 -39.5 -65.5 q-90 -227 -176 -430 q-86 -203 -127 -293 l-39 -90 l-108 0 q-121 297 -357 817 q-20 45 -37.5 64.5 q-17.5 19.5 -60.5 33.5 l-43 15 Z" /><glyph glyph-name="w" unicode="w" d="M2 918 l0 59 l221 -10 l271 10 l0 -59 l-72 -15 q-57 -10 -76 -33 q-10 -13 -10 -31 q0 -15 6 -34 q53 -172 96 -317.5 q43 -145.5 60 -204.5 l16 -62 l289 746 l94 0 l270 -746 l168 584 q2 12 3 23 q0 26 -15 39 q-20 19 -80 36 l-49 15 l0 59 l201 -10 l192 10 l0 -59 l-41 -15 q-51 -18 -66.5 -34.5 q-15.5 -16.5 -33.5 -63.5 l-293 -817 l-82 0 q-152 432 -274 764 l-295 -764 l-94 0 q-104 344 -265 817 q-14 47 -30.5 63.5 q-16.5 16.5 -67.5 34.5 l-43 15 Z" /><glyph glyph-name="x" unicode="x" d="M23 -10 l0 59 l40 14 q113 37 162 99 q119 141 248 291 l-248 352 q-49 68 -141 98 l-41 15 l0 59 l209 -10 l264 10 l0 -59 l-70 -15 q-31 -6 -40 -21.5 q-9 -15.5 -2.5 -33 q6.5 -17.5 22.5 -43.5 l143 -203 l162 203 q25 35 25 53 q0 31 -58 45 l-49 15 l0 59 l201 -10 l192 10 l0 -59 l-41 -15 q-127 -43 -159 -98 q-109 -127 -228 -266 l267 -377 q53 -70 141 -99 l41 -14 l0 -59 l-211 10 l-264 -10 l0 59 l71 14 q27 6 38.5 15.5 q11.5 9.5 8 26 q-3.5 16.5 -8.5 25.5 q-5 9 -19 32 l-162 227 l-180 -227 q-21 -29 -21 -50 q0 -33 52 -49 l49 -14 l0 -59 l-201 10 l-192 -10 Z" /><glyph glyph-name="y" unicode="y" d="M-2 918 l0 59 l229 -10 l267 10 l0 -59 l-72 -15 q-59 -12 -79 -34 q-10 -11 -10 -27 q0 -16 9 -37 l242 -637 l243 637 q6 16 6 29 q0 20 -14 32 q-23 20 -84 37 l-51 15 l0 59 l203 -10 l192 10 l0 -59 l-43 -15 q-51 -16 -65.5 -32.5 q-14.5 -16.5 -34.5 -65.5 l-567 -1364 l-187 20 l318 527 l-21 0 l-338 817 q-20 51 -37.5 66.5 q-17.5 15.5 -62.5 31.5 l-43 15 Z" /><glyph glyph-name="z" unicode="z" d="M74 -6 l0 65 l604 842 l-221 0 q-133 0 -182.5 -38 q-49.5 -38 -71.5 -138 l-21 -84 l-71 4 l0 336 l790 0 l10 -51 l-604 -852 l348 0 q84 0 131.5 50 q47.5 50 94.5 216 l75 0 l-36 -354 q-133 10 -601 10 q-141 0 -245 -6 Z" /><glyph glyph-name="braceleft" unicode="{" d="M94 545 q-69 0 -69 75.5 q0 75.5 69 75.5 q51 0 139 -55 q53 74 54 193 q0 70 -8.5 195.5 q-8.5 125.5 -8.5 178.5 q0 90 13.5 148.5 q13.5 58.5 55.5 113 q42 54.5 129 79 q87 24.5 222 24.5 l17 -74 l-15 0 q-53 0 -94 -14.5 q-41 -14.5 -64.5 -45 q-23.5 -30.5 -39 -62 q-15.5 -31.5 -21.5 -81 q-6 -49.5 -8 -84 q-2 -34.5 -2 -90.5 l0 -145 q0 -248 -205 -354 l0 -5 q205 -106 205 -354 l0 -145 q0 -55 2 -90 q2 -35 8 -84 q6 -49 21.5 -81 q15.5 -32 39 -62.5 q23.5 -30.5 64.5 -45 q41 -14.5 94 -14.5 l15 0 l-17 -74 q-135 0 -222 24.5 q-87 24.5 -129 79 q-42 54.5 -55.5 113 q-13.5 58.5 -13.5 148.5 q0 53 8.5 179 q8.5 126 8.5 196 q0 119 -54 192 q-88 -55 -139 -55 Z" /><glyph glyph-name="bar" unicode="|" d="M188 -403 l0 2068 l66 0 l0 -2068 l-66 0 Z" /><glyph glyph-name="braceright" unicode="}" d="M33 -258 l14 0 q53 0 94 14.5 q41 14.5 64.5 45 q23.5 30.5 39 62.5 q15.5 32 21.5 81 q6 49 8 83.5 q2 34.5 2 90.5 l0 145 q0 248 205 354 l0 5 q-205 106 -205 354 l0 145 q0 55 -2 90 q-2 35 -8 84.5 q-6 49.5 -21.5 81 q-15.5 31.5 -39 62 q-23.5 30.5 -64.5 45 q-41 14.5 -94 14.5 l-14 0 l14 74 q137 0 224 -24.5 q87 -24.5 129 -79 q42 -54.5 55.5 -113 q13.5 -58.5 13.5 -148.5 q0 -53 -8 -179 q-8 -126 -8 -195 q0 -119 53 -193 q90 55 139 55 q70 0 70 -75.5 q0 -75.5 -70 -75.5 q-49 0 -139 55 q-53 -74 -53 -192 q0 -70 8 -196 q8 -126 8 -179 q0 -90 -13.5 -148.5 q-13.5 -58.5 -55.5 -113 q-42 -54.5 -129 -79 q-87 -24.5 -224 -24.5 l-14 74 Z" /><glyph glyph-name="asciitilde" unicode="~" d="M145 637 q0 113 63.5 176.5 q63.5 63.5 162.5 63.5 q78 0 245.5 -92.5 q167.5 -92.5 243.5 -92.5 q141 0 141 144 l78 0 q0 -111 -62.5 -167.5 q-62.5 -56.5 -162.5 -56.5 q-86 0 -253 90.5 q-167 90.5 -236 90.5 q-66 0 -104 -39 q-38 -39 -38 -117 l-78 0 Z" /><glyph glyph-name="uni00A0" unicode=" " d="" /><glyph glyph-name="exclamdown" unicode="¡" d="M170 694 q-47 47 -47 112.5 q0 65.5 47 113 q47 47.5 112.5 47.5 q65.5 0 111.5 -47.5 q46 -47.5 46 -113 q0 -65.5 -46 -112.5 q-46 -47 -111.5 -47 q-65.5 0 -112.5 47 ZM150 -406 q0 33 30 213 q49 299 70 678 l61 0 q20 -379 70 -678 q31 -180 31 -213 q0 -57 -35 -89.5 q-35 -32.5 -94 -32.5 q-63 0 -98 32.5 q-35 32.5 -35 89.5 Z" /><glyph glyph-name="cent" unicode="¢" d="M188 469 q0 229 136.5 380.5 q136.5 151.5 353.5 151.5 q57 0 108 -10 l127 291 l62 -27 l-121 -282 q72 -29 107.5 -74 q35.5 -45 35.5 -84 q0 -61 -42 -101 q-42 -40 -105 -48 l-59 34 l0 127 l-279 -649 q92 -74 215 -74 q88 0 164 41 q76 41 108 109 l39 -57 q-121 -227 -401 -228 q-100 0 -199 41 l-129 -305 l-61 25 l135 313 q-195 131 -195 426 ZM379 504 q0 -168 82 -275 l295 686 q-23 10 -78 11 q-131 0 -215 -111.5 q-84 -111.5 -84 -310.5 Z" /><glyph glyph-name="sterling" unicode="£" d="M70 47 q0 47 44 85 q44 38 132 38 q23 0 33 -2 q61 106 75 334 l-225 0 l0 80 l229 0 q8 150 15 227 l-244 0 l0 80 l254 0 q4 127 39 227.5 q35 100.5 88 165 q53 64.5 124 106.5 q71 42 143.5 59 q72.5 17 148.5 17 q68 0 136 -24.5 q68 -24.5 68 -65.5 q0 -35 -49 -95 q-49 -60 -96 -60 q-2 0 -26.5 31.5 q-24.5 31.5 -67.5 64.5 q-43 33 -90 33 q-102 0 -154.5 -111 q-52.5 -111 -68.5 -348 l397 0 l0 -80 l-406 0 l-28 -227 l434 0 l0 -80 l-449 0 q-23 -104 -64.5 -177 q-41.5 -73 -131.5 -153 q47 6 88 6 q80 0 195.5 -27.5 q115.5 -27.5 164.5 -27.5 q207 0 293 106 l27 -53 q-33 -86 -131.5 -166 q-98.5 -80 -239.5 -80 q-74 0 -132 20.5 q-58 20.5 -149.5 73 q-91.5 52.5 -138.5 74.5 q-68 -123 -160 -123 q-41 0 -59 23.5 q-18 23.5 -18 48.5 Z" /><glyph glyph-name="currency" unicode="¤" d="M141 319 l146 150 q-92 115 -92 266.5 q0 151.5 94 268.5 l-148 151 l54 55 l147 -151 q117 96 260 96 q143 0 260 -96 l150 151 l53 -55 l-147 -151 q96 -117 96 -269 q0 -150 -94 -266 l145 -150 l-53 -55 l-148 150 q-113 -96 -262 -96.5 q-149 -0.5 -262 96.5 l-145 -150 l-54 55 ZM364.5 985 q-96.5 -102 -96.5 -249.5 q0 -147.5 96.5 -249 q96.5 -101.5 237.5 -101.5 q143 0 240.5 102.5 q97.5 102.5 97.5 247.5 q0 147 -98.5 249.5 q-98.5 102.5 -239.5 102.5 q-141 0 -237.5 -102 Z" /><glyph glyph-name="yen" unicode="¥" d="M-55 1370 l0 74 l282 -10 l316 10 l0 -74 l-101 -20 q-109 -23 -71 -99 l288 -589 l291 583 q43 82 -71 105 l-99 20 l0 74 l295 -10 l193 10 l0 -74 l-86 -20 q-39 -10 -60.5 -31 q-21.5 -21 -48.5 -66 l-207 -385 l217 0 l0 -80 l-258 0 l-123 -227 l381 0 l0 -80 l-383 0 l0 -299 q0 -47 19.5 -67.5 q19.5 -20.5 71.5 -30.5 l98 -21 l0 -73 l-283 10 l-280 -10 l0 73 l96 21 q53 10 71.5 30.5 q18.5 20.5 18.5 67.5 l0 299 l-395 0 l0 80 l389 0 l-123 227 l-266 0 l0 80 l223 0 l-201 383 q-27 45 -50 67.5 q-23 22.5 -62 31.5 l-82 20 Z" /><glyph glyph-name="brokenbar" unicode="¦" d="M193 -403 l0 921 l65 0 l0 -921 l-65 0 ZM193 733 l0 932 l65 0 l0 -932 l-65 0 Z" /><glyph glyph-name="section" unicode="§" d="M117 33 l76 16 q0 -43 14 -87 q14 -44 44 -91 q30 -47 90 -77 q60 -30 142 -30 q172 0 265.5 141.5 q93.5 141.5 93.5 366.5 q0 258 -89 535.5 q-89 277.5 -182 413.5 l56 34 q63 -76 127.5 -170 q64.5 -94 142.5 -231 q78 -137 126 -295 q48 -158 48 -301 q0 -281 -149.5 -443.5 q-149.5 -162.5 -362.5 -162.5 q-102 0 -183 29.5 q-81 29.5 -128 72.5 q-47 43 -78 98.5 q-31 55.5 -42 99.5 q-11 44 -11 81 ZM133 1098 q0 291 159 447.5 q159 156.5 372 156.5 q121 0 210 -43 q89 -43 132 -108.5 q43 -65.5 62 -122 q19 -56.5 19 -105.5 l-73 -16 q0 43 -14.5 87 q-14.5 44 -44 91 q-29.5 47 -90 76.5 q-60.5 29.5 -142.5 29.5 q-174 0 -267.5 -141 q-93.5 -141 -93.5 -367 q0 -260 89.5 -537.5 q89.5 -277.5 181.5 -410.5 l-53 -35 q-66 88 -96.5 130 q-30.5 42 -109.5 168 q-79 126 -121 220.5 q-42 94.5 -81 228.5 q-39 134 -39 251 Z" /><glyph glyph-name="dieresis" unicode="¨" d="M119 1217.5 q-41 39.5 -41 99 q0 59.5 41 99.5 q41 40 98 40 q57 0 98 -40 q41 -40 41 -99.5 q0 -59.5 -41 -99 q-41 -39.5 -98 -39.5 q-57 0 -98 39.5 ZM505 1217.5 q-40 39.5 -40 99 q0 59.5 40 99.5 q40 40 99.5 40 q59.5 0 99 -40 q39.5 -40 39.5 -99.5 q0 -59.5 -39.5 -99 q-39.5 -39.5 -99 -39.5 q-59.5 0 -99.5 39.5 Z" /><glyph glyph-name="copyright" unicode="©" d="M100 721 q0 348 239 585.5 q239 237.5 587 237.5 q350 0 589.5 -237.5 q239.5 -237.5 239.5 -585.5 q0 -346 -239.5 -583.5 q-239.5 -237.5 -589.5 -237.5 q-348 0 -587 237.5 q-239 237.5 -239 583.5 ZM188 721 q0 -317 213 -532.5 q213 -215.5 525 -215.5 q313 0 527 215 q214 215 214 533 q0 319 -214 534 q-214 215 -527 215 q-311 0 -524.5 -215 q-213.5 -215 -213.5 -534 ZM477 702 q0 229 136.5 381 q136.5 152 353.5 152 q162 0 240.5 -61.5 q78.5 -61.5 78.5 -124.5 q0 -61 -42 -101.5 q-42 -40.5 -105 -48.5 l-39 35 l0 119 q0 66 -30 86 q-30 20 -103 20 q-131 0 -215 -111.5 q-84 -111.5 -84 -310.5 q0 -211 94 -308 q94 -97 242 -97 q57 0 107 16.5 q50 16.5 79 39 q29 22.5 50.5 45 q21.5 22.5 29.5 38.5 l8 16 l39 -57 q-121 -227 -397 -227 q-186 0 -314.5 126.5 q-128.5 126.5 -128.5 372.5 Z" /><glyph glyph-name="ordfeminine" unicode="ª" d="M117 883 q0 207 411 245 l0 60 q0 74 -14 119 q-14 45 -46 64.5 q-32 19.5 -61.5 24.5 q-29.5 5 -78.5 5 q-33 0 -44.5 -10.5 q-11.5 -10.5 -11.5 -44.5 l0 -109 l-30 -23 q-115 14 -115 101 q0 61 83 105 q83 44 218 44 q121 0 185.5 -68.5 q64.5 -68.5 64.5 -189.5 l-8 -307 q-6 -115 73 -115 q41 0 74 21 l14 -27 q-41 -88 -141 -88 q-59 0 -100 34 q-41 34 -49 89 q-59 -123 -213 -123 q-100 0 -155.5 56.5 q-55.5 56.5 -55.5 136.5 ZM260 907 q0 -57 36 -95 q36 -38 91 -38 q84 0 112.5 47 q28.5 47 28.5 162 l0 104 q-268 -39 -268 -180 Z" /><glyph glyph-name="guillemotleft" unicode="«" d="M78 727 l487 578 l68 0 l-293 -566 l0 -24 l293 -565 l-68 0 l-487 577 ZM518 727 l488 578 l67 0 l-293 -566 l0 -24 l293 -565 l-67 0 l-488 577 Z" /><glyph glyph-name="logicalnot" unicode="¬" d="M131 874 l0 80 l946 0 l0 -442 l-82 0 l0 362 l-864 0 Z" /><glyph glyph-name="uni00AD" unicode="­" d="" /><glyph glyph-name="registered" unicode="®" d="M100 721 q0 348 239 585.5 q239 237.5 587 237.5 q350 0 589.5 -237.5 q239.5 -237.5 239.5 -585.5 q0 -346 -239.5 -583.5 q-239.5 -237.5 -589.5 -237.5 q-348 0 -587 237.5 q-239 237.5 -239 583.5 ZM188 721 q0 -317 213 -532.5 q213 -215.5 525 -215.5 q324 0 538 228 q-100 -4 -171.5 22.5 q-71.5 26.5 -107.5 60 q-36 33.5 -81 97.5 q-16 25 -88 137.5 q-72 112.5 -94 145.5 l-129 0 q2 -152 6 -314 q2 -35 15 -47 q13 -12 52 -20 l74 -15 l0 -49 l-217 6 l-256 -6 l0 49 l76 15 q39 8 53 21 q14 13 16 46 q4 131 4 363 l-4 362 q-4 35 -17 48.5 q-13 13.5 -52 21.5 l-76 14 l0 49 l324 -4 q121 12 210 13 q51 0 98.5 -11.5 q47.5 -11.5 94.5 -38 q47 -26.5 74.5 -81 q27.5 -54.5 27.5 -128.5 q0 -84 -53 -150.5 q-53 -66.5 -147 -105.5 l0 -6 l155 -219 q74 -104 135 -164 q49 -43 130 -53 q152 197 151 461 q0 319 -214 534 q-214 215 -527 215 q-311 0 -524.5 -215 q-213.5 -215 -213.5 -534 ZM793 735 q74 -12 159 -12 q53 0 105.5 57.5 q52.5 57.5 52.5 163.5 q0 100 -64.5 154.5 q-64.5 54.5 -164.5 54.5 l-64 0 q-25 0 -24 -20 l0 -398 Z" /><glyph glyph-name="macron" unicode="¯" d="M117 1192 l0 123 l585 0 l0 -123 l-585 0 Z" /><glyph glyph-name="degree" unicode="°" d="M94 1104 q0 145 96.5 239.5 q96.5 94.5 235.5 94.5 q139 0 236.5 -94.5 q97.5 -94.5 97.5 -240 q0 -145.5 -97.5 -240.5 q-97.5 -95 -236.5 -95 q-139 0 -235.5 94.5 q-96.5 94.5 -96.5 241.5 ZM265.5 1276 q-64.5 -70 -64.5 -172.5 q0 -102.5 64.5 -173 q64.5 -70.5 160.5 -70.5 q98 0 162.5 69.5 q64.5 69.5 64.5 174.5 q0 102 -64.5 172 q-64.5 70 -162.5 70 q-96 0 -160.5 -70 Z" /><glyph glyph-name="plusminus" unicode="±" d="M131 0 l0 82 l946 0 l0 -82 l-946 0 ZM131 692 l0 82 l432 0 l0 440 l82 0 l0 -440 l432 0 l0 -82 l-432 0 l0 -442 l-82 0 l0 442 l-432 0 Z" /><glyph glyph-name="uni00B2" unicode="²" d="M94 643 l0 66 q209 188 291 280 q74 82 93.5 132 q19.5 50 19.5 106 q0 76 -49.5 124 q-49.5 48 -131.5 48 q-55 0 -55 -39 l0 -129 l-41 -31 q-51 2 -89 28.5 q-38 26.5 -38 65.5 q0 61 75 117.5 q75 56.5 200 56.5 q117 0 200.5 -58 q83.5 -58 83.5 -157 q0 -63 -31.5 -117.5 q-31.5 -54.5 -123.5 -140.5 l-242 -223 l414 8 l-19 -139 q-156 2 -334 2 l-223 0 Z" /><glyph glyph-name="uni00B3" unicode="³" d="M90 756 q0 41 38 71.5 q38 30.5 85 34.5 l35 -28 l4 -132 q0 -18 70 -18 q84 0 141 51 q57 51 57 127 q0 96 -55 129 q-55 33 -148 33 q-47 0 -100 -6 l-8 78 q133 0 210 43 q77 43 77 118 q0 53 -39 89 q-39 36 -119 36 q-100 0 -182 -65 l-29 57 q33 35 110.5 65.5 q77.5 30.5 153.5 30.5 q100 0 171 -48 q71 -48 71 -138 q0 -57 -47 -106.5 q-47 -49.5 -129 -71.5 q82 -12 147.5 -63.5 q65.5 -51.5 65.5 -147.5 q0 -127 -102.5 -202 q-102.5 -75 -245.5 -75 q-111 0 -171.5 38.5 q-60.5 38.5 -60.5 99.5 Z" /><glyph glyph-name="acute" unicode="´" d="M190 1133 l193 374 l246 0 l-359 -387 l-80 13 Z" /><glyph glyph-name="uni00B5" unicode="µ" d="M35 899 l0 59 l241 11 l99 12 q-12 -113 -13 -612 q0 -289 218 -289 q59 0 102 17.5 q43 17.5 66.5 45 q23.5 27.5 37 75.5 q13.5 48 16.5 92 q3 44 3 110 l0 354 q0 51 -17.5 77 q-17.5 26 -70.5 36 l-64 12 l0 59 l242 11 l98 12 q-10 -254 -10 -623 q0 -160 8 -204 q10 -53 103 -60 l53 -4 l0 -57 l-279 -49 l-57 0 l4 147 l-16 4 q-39 -59 -116 -112.5 q-77 -53.5 -187 -53.5 q-137 0 -215 68 l0 -535 l-170 0 q8 25 20 78 q12 53 31.5 262 q19.5 209 19.5 473 l4 459 q0 51 -17 77 q-17 26 -71 36 l-63 12 Z" /><glyph glyph-name="paragraph" unicode="¶" d="M70 973 q0 213 149.5 337 q149.5 124 362.5 124 l563 0 l0 -1837 l-92 0 l0 1749 l-213 0 q-90 0 -90 -80 l0 -1512 q0 -123 -64.5 -203.5 q-64.5 -80.5 -206.5 -80.5 q-92 0 -161.5 50 q-69.5 50 -69.5 144 q0 59 39 99 q39 40 96 40 q59 0 98 -38.5 q39 -38.5 39 -96.5 q0 -33 -19.5 -67.5 q-19.5 -34.5 -45.5 -51.5 l2 -12 q92 0 144 52.5 q52 52.5 52 193.5 l0 702 l-4 0 q-319 0 -449 129.5 q-130 129.5 -130 358.5 Z" /><glyph glyph-name="periodcentered" unicode="·" d="M167 624 q-44 44 -44 107.5 q0 63.5 44 107.5 q44 44 107.5 44 q63.5 0 107.5 -44 q44 -44 44 -107.5 q0 -63.5 -44 -107.5 q-44 -44 -107.5 -44 q-63.5 0 -107.5 44 Z" /><glyph glyph-name="cedilla" unicode="¸" d="M156 -508 l14 59 q66 -29 143 -28 q156 0 156 123 q0 33 -21.5 61.5 q-21.5 28.5 -61.5 48 q-40 19.5 -70.5 31.5 q-30.5 12 -73.5 24.5 q-43 12.5 -47 14.5 l249 203 l62 -17 l-121 -139 q41 0 82 -9 q41 -9 89 -30.5 q48 -21.5 79 -67 q31 -45.5 31 -108.5 q0 -104 -78 -160.5 q-78 -56.5 -193 -56.5 q-128 0 -239 51 Z" /><glyph glyph-name="uni00B9" unicode="¹" d="M158 1292 l0 74 l239 88 l92 0 l0 -688 q0 -37 27 -39 l121 -12 l0 -68 l-231 6 l-220 -6 l0 68 l113 12 q33 2 33 39 l0 563 l-174 -37 Z" /><glyph glyph-name="ordmasculine" unicode="º" d="M98 1071 q0 172 100.5 282.5 q100.5 110.5 268.5 110.5 q145 0 249.5 -101 q104.5 -101 104.5 -280 q0 -176 -103.5 -284.5 q-103.5 -108.5 -266.5 -108.5 q-139 0 -246 99.5 q-107 99.5 -107 281.5 ZM250 1092 q0 -166 61.5 -255 q61.5 -89 149.5 -89 q61 0 104 29.5 q43 29.5 64.5 78.5 q21.5 49 31 100.5 q9.5 51.5 9.5 106.5 q0 174 -60.5 259 q-60.5 85 -150.5 85 q-61 0 -104.5 -29.5 q-43.5 -29.5 -65 -79 q-21.5 -49.5 -30.5 -100.5 q-9 -51 -9 -106 Z" /><glyph glyph-name="guillemotright" unicode="»" d="M96 150 l291 565 l0 24 l-291 566 l66 0 l487 -578 l-487 -577 l-66 0 ZM537 150 l290 565 l0 24 l-290 566 l65 0 l488 -578 l-488 -577 l-65 0 Z" /><glyph glyph-name="onequarter" unicode="¼" d="M223 1292 l0 74 l240 88 l92 0 l0 -688 q0 -37 27 -39 l120 -12 l0 -68 l-231 6 l-219 -6 l0 68 l113 12 q33 2 32 39 l0 563 l-174 -37 ZM379 33 l1284 1450 l53 -49 l-1284 -1448 l-53 47 ZM1200 227 l0 86 q14 31 387 541 l135 -14 q-373 -434 -432 -537 l293 0 l0 10 q0 102 -14 203 l166 4 l0 -217 l118 0 l0 -76 l-118 0 l0 -116 q0 -20 8 -28.5 q8 -8.5 33 -14.5 l65 -17 l0 -57 l-186 6 l-182 -6 l0 59 l65 15 q45 8 45 43 l0 116 l-383 0 Z" /><glyph glyph-name="onehalf" unicode="½" d="M223 1292 l0 74 l240 88 l92 0 l0 -688 q0 -37 27 -39 l120 -12 l0 -68 l-231 6 l-219 -6 l0 68 l113 12 q33 2 32 39 l0 563 l-174 -37 ZM379 33 l1284 1450 l53 -49 l-1284 -1448 l-53 47 ZM1286 0 l0 66 q209 188 291 280 q74 82 93.5 132 q19.5 50 19.5 106 q0 76 -49.5 124 q-49.5 48 -131.5 48 q-55 0 -55 -39 l0 -129 l-41 -31 q-51 2 -89 28.5 q-38 26.5 -38 65.5 q0 61 75 117.5 q75 56.5 200 56.5 q117 0 200.5 -58 q83.5 -58 83.5 -157 q0 -63 -31.5 -117.5 q-31.5 -54.5 -123.5 -140.5 l-242 -223 l414 8 l-19 -139 q-156 2 -334 2 l-223 0 Z" /><glyph glyph-name="threequarters" unicode="¾" d="M248 756 q0 41 38 71.5 q38 30.5 85 34.5 l35 -28 l4 -132 q0 -18 69 -18 q84 0 141.5 51 q57.5 51 57.5 127 q0 96 -55.5 129 q-55.5 33 -147.5 33 q-47 0 -100 -6 l-8 78 q133 0 209.5 43 q76.5 43 76.5 118 q0 53 -39 89 q-39 36 -118 36 q-100 0 -183 -65 l-28 57 q33 35 110.5 65.5 q77.5 30.5 153.5 30.5 q100 0 171 -48 q71 -48 71 -138 q0 -57 -47.5 -106.5 q-47.5 -49.5 -129.5 -71.5 q82 -12 147.5 -63.5 q65.5 -51.5 65.5 -147.5 q0 -127 -102 -202 q-102 -75 -246 -75 q-111 0 -171 38.5 q-60 38.5 -60 99.5 ZM379 33 l1284 1450 l53 -49 l-1284 -1448 l-53 47 ZM1200 227 l0 86 q14 31 387 541 l135 -14 q-373 -434 -432 -537 l293 0 l0 10 q0 102 -14 203 l166 4 l0 -217 l118 0 l0 -76 l-118 0 l0 -116 q0 -20 8 -28.5 q8 -8.5 33 -14.5 l65 -17 l0 -57 l-186 6 l-182 -6 l0 59 l65 15 q45 8 45 43 l0 116 l-383 0 Z" /><glyph glyph-name="questiondown" unicode="¿" d="M84 -211 q0 96 62.5 197.5 q62.5 101.5 136 170 q73.5 68.5 136 141.5 q62.5 73 62.5 120 q0 51 -6 88 l49 -12 l62 -156 q-6 -72 -52.5 -147.5 q-46.5 -75.5 -98.5 -130 q-52 -54.5 -95 -130 q-43 -75.5 -43 -151.5 q0 -109 57.5 -175.5 q57.5 -66.5 175.5 -66.5 q115 0 115 64 l0 217 l43 35 q63 -2 106.5 -49.5 q43.5 -47.5 43.5 -114.5 q0 -84 -89.5 -150.5 q-89.5 -66.5 -252.5 -66.5 q-184 0 -298 82.5 q-114 82.5 -114 234.5 ZM386 694 q-46 47 -46 112.5 q0 65.5 46 113 q46 47.5 111.5 47.5 q65.5 0 111.5 -47.5 q46 -47.5 46 -113 q0 -65.5 -46 -112.5 q-46 -47 -111.5 -47 q-65.5 0 -111.5 47 Z" /><glyph glyph-name="Agrave" unicode="à" d="M-23 -10 l0 73 l103 21 q47 8 71.5 29.5 q24.5 21.5 43.5 66.5 l495 1268 l139 39 q227 -612 519 -1305 q20 -47 40.5 -68.5 q20.5 -21.5 67.5 -29.5 l103 -21 l0 -73 l-316 10 l-319 -10 l0 73 l110 21 q59 10 80 32.5 q21 22.5 6 65.5 l-157 414 l-500 0 l-146 -414 q-16 -43 3.5 -65.5 q19.5 -22.5 78.5 -32.5 l107 -21 l0 -73 l-313 10 l-216 -10 ZM496 686 l436 0 l-219 584 l-217 -584 ZM516 1942 l248 0 l190 -375 l-75 -13 l-363 388 Z" /><glyph glyph-name="Aacute" unicode="á" d="M-23 -10 l0 73 l103 21 q47 8 71.5 29.5 q24.5 21.5 43.5 66.5 l495 1268 l139 39 q227 -612 519 -1305 q20 -47 40.5 -68.5 q20.5 -21.5 67.5 -29.5 l103 -21 l0 -73 l-316 10 l-319 -10 l0 73 l110 21 q59 10 80 32.5 q21 22.5 6 65.5 l-157 414 l-500 0 l-146 -414 q-16 -43 3.5 -65.5 q19.5 -22.5 78.5 -32.5 l107 -21 l0 -73 l-313 10 l-216 -10 ZM496 686 l436 0 l-219 584 l-217 -584 ZM578 1567 l192 375 l246 0 l-359 -388 l-79 13 Z" /><glyph glyph-name="Acircumflex" unicode="â" d="M-23 -10 l0 73 l103 21 q47 8 71.5 29.5 q24.5 21.5 43.5 66.5 l495 1268 l139 39 q227 -612 519 -1305 q20 -47 40.5 -68.5 q20.5 -21.5 67.5 -29.5 l103 -21 l0 -73 l-316 10 l-319 -10 l0 73 l110 21 q59 10 80 32.5 q21 22.5 6 65.5 l-157 414 l-500 0 l-146 -414 q-16 -43 3.5 -65.5 q19.5 -22.5 78.5 -32.5 l107 -21 l0 -73 l-313 10 l-216 -10 ZM442 1593 l267 361 l110 0 l271 -361 l-43 -37 l-279 236 l-4 0 l-272 -233 l-50 34 ZM496 686 l436 0 l-219 584 l-217 -584 Z" /><glyph glyph-name="Atilde" unicode="ã" d="M-23 -10 l0 73 l103 21 q47 8 71.5 29.5 q24.5 21.5 43.5 66.5 l495 1268 l139 39 q227 -612 519 -1305 q20 -47 40.5 -68.5 q20.5 -21.5 67.5 -29.5 l103 -21 l0 -73 l-316 10 l-319 -10 l0 73 l110 21 q59 10 80 32.5 q21 22.5 6 65.5 l-157 414 l-500 0 l-146 -414 q-16 -43 3.5 -65.5 q19.5 -22.5 78.5 -32.5 l107 -21 l0 -73 l-313 10 l-216 -10 ZM434 1624 q18 88 66.5 154.5 q48.5 66.5 126.5 66.5 q63 0 166 -37 q125 -37 155 -36 q39 0 64.5 19 q25.5 19 50.5 73 l39 -23 q-51 -219 -191 -219 q-49 0 -188 39 q-111 31 -123 31 q-84 0 -127 -90 l-39 22 ZM496 686 l436 0 l-219 584 l-217 -584 Z" /><glyph glyph-name="Adieresis" unicode="ä" d="M-23 -10 l0 73 l103 21 q47 8 71.5 29.5 q24.5 21.5 43.5 66.5 l495 1268 l139 39 q227 -612 519 -1305 q20 -47 40.5 -68.5 q20.5 -21.5 67.5 -29.5 l103 -21 l0 -73 l-316 10 l-319 -10 l0 73 l110 21 q59 10 80 32.5 q21 22.5 6 65.5 l-157 414 l-500 0 l-146 -414 q-16 -43 3.5 -65.5 q19.5 -22.5 78.5 -32.5 l107 -21 l0 -73 l-313 10 l-216 -10 ZM468 1652 q-40 40 -40 99 q0 59 40 99 q40 40 99.5 40 q59.5 0 99.5 -40 q40 -40 40 -99 q0 -59 -40 -99 q-40 -40 -99.5 -40 q-59.5 0 -99.5 40 ZM496 686 l436 0 l-219 584 l-217 -584 ZM856 1652 q-41 40 -41 99 q0 59 41 99 q41 40 98.5 40 q57.5 0 98.5 -40 q41 -40 41 -99 q0 -59 -41 -99 q-41 -40 -98.5 -40 q-57.5 0 -98.5 40 Z" /><glyph glyph-name="Aring" unicode="å" d="M-20 -10 l0 73 l102 21 q47 8 71.5 29.5 q24.5 21.5 43.5 66.5 q231 578 456 1170 q-84 33 -134 106.5 q-50 73.5 -50 167.5 q0 127 86 211 q86 84 211 84 q127 0 213 -84 q86 -84 86 -211 q0 -94 -50 -168 q-50 -74 -132 -106 q225 -600 467 -1168 q20 -47 40.5 -68.5 q20.5 -21.5 67.5 -29.5 l103 -21 l0 -73 l-316 10 l-319 -10 l0 73 l110 21 q59 12 82 33.5 q23 21.5 6 64.5 l-159 414 l-500 0 l-146 -414 q-16 -43 3.5 -65.5 q19.5 -22.5 78.5 -32.5 l107 -21 l0 -73 l-313 10 l-215 -10 ZM498 686 l436 0 l-219 584 l-217 -584 ZM561 1624 q0 -94 55.5 -155.5 q55.5 -61.5 149.5 -61.5 q94 0 150.5 61.5 q56.5 61.5 56.5 155.5 q0 94 -56.5 155.5 q-56.5 61.5 -150.5 61.5 q-94 0 -149.5 -60.5 q-55.5 -60.5 -55.5 -156.5 Z" /><glyph glyph-name="AE" unicode="æ" d="M-47 -10 l0 73 l102 21 q113 20 154 96 l665 1176 l-71 14 l0 74 l313 -10 l516 0 l305 22 l-16 -416 l-74 0 l-26 101 q-27 102 -62 150 q-35 48 -94 48 l-448 0 l0 -563 l243 0 q49 0 71.5 22.5 q22.5 22.5 39.5 80.5 l28 112 l72 0 l-10 -256 l10 -270 l-72 0 l-28 113 q-16 59 -40 83.5 q-24 24.5 -71 24.5 l-243 0 l0 -463 q0 -129 153 -129 l252 0 q88 0 143.5 31 q55.5 31 110.5 133 l96 176 l70 0 l-70 -444 q-279 10 -401 10 l-455 0 l-313 -10 l0 73 l110 21 q63 10 84 30.5 q21 20.5 21 67.5 l0 420 l-461 0 l-219 -422 q-23 -43 -7.5 -64.5 q15.5 -21.5 72.5 -31.5 l119 -21 l0 -73 l-334 10 l-235 -10 ZM602 692 l416 0 l0 557 q0 37 -11.5 56.5 q-11.5 19.5 -43.5 29.5 l-361 -643 Z" /><glyph glyph-name="Ccedilla" unicode="ç" d="M109 709 q0 317 216 536 q216 219 549 219 q193 0 353 -53 l162 23 l-46 -433 l-65 0 l-37 111 q-88 264 -367 264 q-100 0 -191 -28.5 q-91 -28.5 -175 -93 q-84 -64.5 -134 -189.5 q-50 -125 -50 -295 q0 -315 169 -495.5 q169 -180.5 472 -180.5 q127 0 239 33 l117 317 l74 0 q-6 -166 -6 -354 q-25 -14 -69 -33.5 q-44 -19.5 -183.5 -53.5 q-139.5 -34 -278.5 -34 q-31 0 -45 2 l-84 -98 q41 0 82 -9 q41 -9 89 -30.5 q48 -21.5 79 -67 q31 -45.5 31 -108.5 q0 -104 -78 -160.5 q-78 -56.5 -193 -56.5 q-129 0 -239 51 l14 59 q66 -29 143 -28 q156 0 156 123 q0 33 -21.5 61.5 q-21.5 28.5 -61.5 48 q-40 19.5 -70.5 31.5 q-30.5 12 -73.5 24.5 q-43 12.5 -47 14.5 l186 154 q-293 39 -454.5 241.5 q-161.5 202.5 -161.5 487.5 Z" /><glyph glyph-name="Egrave" unicode="è" d="M90 -10 l0 73 l111 21 q57 10 78.5 31.5 q21.5 21.5 21.5 66.5 q6 195 6 533 l-6 534 q-4 51 -23.5 70.5 q-19.5 19.5 -76.5 30.5 l-111 20 l0 74 l316 -10 l514 0 l325 22 q-16 -125 -37 -416 l-73 0 l-25 101 q-27 102 -62.5 151 q-35.5 49 -95.5 49 l-407 0 q-25 0 -31 -7 q-6 -7 -6 -25 l0 -537 q160 2 280 8 q49 4 73 25.5 q24 21.5 38 79.5 l29 112 l71 0 l-10 -262 l10 -270 l-71 0 l-29 113 q-16 57 -38.5 79.5 q-22.5 22.5 -72.5 24.5 l-280 8 l0 -467 q0 -129 149 -129 l252 0 q88 0 143.5 31 q55.5 31 110.5 133 l97 176 l69 0 l-69 -444 q-279 10 -402 10 l-452 0 l-316 -10 ZM469 1942 l248 0 l190 -375 l-76 -13 l-362 388 Z" /><glyph glyph-name="Eacute" unicode="é" d="M90 -10 l0 73 l111 21 q57 10 78.5 31.5 q21.5 21.5 21.5 66.5 q6 195 6 533 l-6 534 q-4 51 -23.5 70.5 q-19.5 19.5 -76.5 30.5 l-111 20 l0 74 l316 -10 l514 0 l325 22 q-16 -125 -37 -416 l-73 0 l-25 101 q-27 102 -62.5 151 q-35.5 49 -95.5 49 l-407 0 q-25 0 -31 -7 q-6 -7 -6 -25 l0 -537 q160 2 280 8 q49 4 73 25.5 q24 21.5 38 79.5 l29 112 l71 0 l-10 -262 l10 -270 l-71 0 l-29 113 q-16 57 -38.5 79.5 q-22.5 22.5 -72.5 24.5 l-280 8 l0 -467 q0 -129 149 -129 l252 0 q88 0 143.5 31 q55.5 31 110.5 133 l97 176 l69 0 l-69 -444 q-279 10 -402 10 l-452 0 l-316 -10 ZM528 1567 l193 375 l246 0 l-359 -388 l-80 13 Z" /><glyph glyph-name="Ecircumflex" unicode="ê" d="M90 -10 l0 73 l111 21 q57 10 78.5 31.5 q21.5 21.5 21.5 66.5 q6 195 6 533 l-6 534 q-4 51 -23.5 70.5 q-19.5 19.5 -76.5 30.5 l-111 20 l0 74 l316 -10 l514 0 l325 22 q-16 -125 -37 -416 l-73 0 l-25 101 q-27 102 -62.5 151 q-35.5 49 -95.5 49 l-407 0 q-25 0 -31 -7 q-6 -7 -6 -25 l0 -537 q160 2 280 8 q49 4 73 25.5 q24 21.5 38 79.5 l29 112 l71 0 l-10 -262 l10 -270 l-71 0 l-29 113 q-16 57 -38.5 79.5 q-22.5 22.5 -72.5 24.5 l-280 8 l0 -467 q0 -129 149 -129 l252 0 q88 0 143.5 31 q55.5 31 110.5 133 l97 176 l69 0 l-69 -444 q-279 10 -402 10 l-452 0 l-316 -10 ZM395 1593 l267 361 l110 0 l270 -361 l-43 -37 l-278 236 l-4 0 l-273 -233 l-49 34 Z" /><glyph glyph-name="Edieresis" unicode="ë" d="M90 -10 l0 73 l111 21 q57 10 78.5 31.5 q21.5 21.5 21.5 66.5 q6 195 6 533 l-6 534 q-4 51 -23.5 70.5 q-19.5 19.5 -76.5 30.5 l-111 20 l0 74 l316 -10 l514 0 l325 22 q-16 -125 -37 -416 l-73 0 l-25 101 q-27 102 -62.5 151 q-35.5 49 -95.5 49 l-407 0 q-25 0 -31 -7 q-6 -7 -6 -25 l0 -537 q160 2 280 8 q49 4 73 25.5 q24 21.5 38 79.5 l29 112 l71 0 l-10 -262 l10 -270 l-71 0 l-29 113 q-16 57 -38.5 79.5 q-22.5 22.5 -72.5 24.5 l-280 8 l0 -467 q0 -129 149 -129 l252 0 q88 0 143.5 31 q55.5 31 110.5 133 l97 176 l69 0 l-69 -444 q-279 10 -402 10 l-452 0 l-316 -10 ZM427 1652 q-40 40 -40 99 q0 59 40 99 q40 40 99.5 40 q59.5 0 99.5 -40 q40 -40 40 -99 q0 -59 -40 -99 q-40 -40 -99.5 -40 q-59.5 0 -99.5 40 ZM815 1652 q-41 40 -41 99 q0 59 41 99 q41 40 98.5 40 q57.5 0 98.5 -40 q41 -40 41 -99 q0 -59 -41 -99 q-41 -40 -98.5 -40 q-57.5 0 -98.5 40 Z" /><glyph glyph-name="Igrave" unicode="ì" d="M90 -10 l0 73 l111 21 q57 10 77.5 30.5 q20.5 20.5 22.5 67.5 q6 195 6 533 l-6 534 q-4 51 -23.5 70.5 q-19.5 19.5 -76.5 30.5 l-111 20 l0 74 l316 -10 l313 10 l0 -74 l-111 -20 q-57 -10 -76.5 -30 q-19.5 -20 -23.5 -71 q-6 -197 -6 -534 l6 -533 q2 -47 22.5 -67.5 q20.5 -20.5 77.5 -30.5 l111 -21 l0 -73 l-313 10 l-316 -10 ZM154 1942 l247 0 l191 -375 l-76 -13 l-362 388 Z" /><glyph glyph-name="Iacute" unicode="í" d="M90 -10 l0 73 l111 21 q57 10 77.5 30.5 q20.5 20.5 22.5 67.5 q6 195 6 533 l-6 534 q-4 51 -23.5 70.5 q-19.5 19.5 -76.5 30.5 l-111 20 l0 74 l316 -10 l313 10 l0 -74 l-111 -20 q-57 -10 -76.5 -30 q-19.5 -20 -23.5 -71 q-6 -197 -6 -534 l6 -533 q2 -47 22.5 -67.5 q20.5 -20.5 77.5 -30.5 l111 -21 l0 -73 l-313 10 l-316 -10 ZM215 1567 l193 375 l245 0 l-358 -388 l-80 13 Z" /><glyph glyph-name="Icircumflex" unicode="î" d="M80 1593 l266 361 l111 0 l270 -361 l-43 -37 l-278 236 l-5 0 l-272 -233 l-49 34 ZM90 -10 l0 73 l111 21 q57 10 77.5 30.5 q20.5 20.5 22.5 67.5 q6 195 6 533 l-6 534 q-4 51 -23.5 70.5 q-19.5 19.5 -76.5 30.5 l-111 20 l0 74 l316 -10 l313 10 l0 -74 l-111 -20 q-57 -10 -76.5 -30 q-19.5 -20 -23.5 -71 q-6 -197 -6 -534 l6 -533 q2 -47 22.5 -67.5 q20.5 -20.5 77.5 -30.5 l111 -21 l0 -73 l-313 10 l-316 -10 Z" /><glyph glyph-name="Idieresis" unicode="ï" d="M112 1652 q-40 40 -40 99 q0 59 40 99 q40 40 99 40 q59 0 99 -40 q40 -40 40 -99 q0 -59 -40 -99 q-40 -40 -99 -40 q-59 0 -99 40 ZM90 -10 l0 73 l111 21 q57 10 77.5 30.5 q20.5 20.5 22.5 67.5 q6 195 6 533 l-6 534 q-4 51 -23.5 70.5 q-19.5 19.5 -76.5 30.5 l-111 20 l0 74 l316 -10 l313 10 l0 -74 l-111 -20 q-57 -10 -76.5 -30 q-19.5 -20 -23.5 -71 q-6 -197 -6 -534 l6 -533 q2 -47 22.5 -67.5 q20.5 -20.5 77.5 -30.5 l111 -21 l0 -73 l-313 10 l-316 -10 ZM500 1652 q-41 40 -41 99 q0 59 41 99 q41 40 98 40 q57 0 98 -40 q41 -40 41 -99 q0 -59 -41 -99 q-41 -40 -98 -40 q-57 0 -98 40 Z" /><glyph glyph-name="Eth" unicode="ð" d="M90 -10 l0 73 l111 21 q57 10 77.5 30.5 q20.5 20.5 22.5 67.5 q6 184 6 504 l-174 0 l0 90 l174 0 l-6 473 q-4 51 -23.5 70.5 q-19.5 19.5 -76.5 30.5 l-111 20 l0 74 l316 -10 q250 20 440 20 q373 0 573.5 -208 q200.5 -208 200.5 -513 q0 -336 -216 -542.5 q-216 -206.5 -636 -206.5 q-117 0 -362 16 l-316 -10 ZM508 223 q0 -100 67.5 -127.5 q67.5 -27.5 239.5 -27.5 q80 0 152.5 14 q72.5 14 152.5 55 q80 41 138.5 107.5 q58.5 66.5 96.5 181.5 q38 115 38 264 q0 319 -161 495.5 q-161 176.5 -474 176.5 l-213 0 q-25 0 -31 -7 q-6 -7 -6 -26 l0 -553 l469 0 l0 -90 l-469 0 l0 -463 Z" /><glyph glyph-name="Ntilde" unicode="ñ" d="M80 -10 l0 73 l110 21 q57 10 78 30.5 q21 20.5 23 67.5 q20 492 20 1067 q0 47 -20.5 68.5 q-20.5 21.5 -77.5 32.5 l-104 20 l0 74 l264 -10 l194 10 q41 -90 82 -144 l735 -985 q-8 406 -20 934 q-2 49 -22.5 69.5 q-20.5 20.5 -77.5 31.5 l-111 20 l0 74 l274 -10 l267 10 l0 -74 l-111 -20 q-57 -10 -78.5 -31 q-21.5 -21 -21.5 -70 q-12 -543 -13 -1259 l-102 0 q-266 365 -506.5 686 q-240.5 321 -349.5 461 l-106 139 q2 -819 2 -1094 q0 -47 21.5 -67.5 q21.5 -20.5 78.5 -30.5 l110 -21 l0 -73 l-284 10 l-254 -10 ZM518 1624 q18 88 66.5 154.5 q48.5 66.5 126.5 66.5 q63 0 166 -37 q125 -37 155 -36 q39 0 64.5 19 q25.5 19 50.5 73 l39 -23 q-51 -219 -191 -219 q-49 0 -188 39 q-111 31 -123 31 q-84 0 -127 -90 l-39 22 Z" /><glyph glyph-name="Ograve" unicode="ò" d="M111 702 q0 334 206.5 548 q206.5 214 554.5 214 q133 0 258 -47 q125 -47 228.5 -136 q103.5 -89 166 -233.5 q62.5 -144.5 62.5 -322.5 q0 -334 -204.5 -545 q-204.5 -211 -551.5 -211 q-133 0 -259 46 q-126 46 -230 133.5 q-104 87.5 -167.5 231.5 q-63.5 144 -63.5 322 ZM330 743 q0 -330 154.5 -503.5 q154.5 -173.5 371.5 -173.5 q109 0 198 39.5 q89 39.5 146 102 q57 62.5 96 146.5 q39 84 55.5 167 q16.5 83 16.5 167 q0 328 -154.5 504 q-154.5 176 -373.5 176 q-135 0 -238.5 -59.5 q-103.5 -59.5 -160 -154.5 q-56.5 -95 -84 -200 q-27.5 -105 -27.5 -211 ZM600 1942 l248 0 l190 -375 l-75 -13 l-363 388 Z" /><glyph glyph-name="Oacute" unicode="ó" d="M111 702 q0 334 206.5 548 q206.5 214 554.5 214 q133 0 258 -47 q125 -47 228.5 -136 q103.5 -89 166 -233.5 q62.5 -144.5 62.5 -322.5 q0 -334 -204.5 -545 q-204.5 -211 -551.5 -211 q-133 0 -259 46 q-126 46 -230 133.5 q-104 87.5 -167.5 231.5 q-63.5 144 -63.5 322 ZM330 743 q0 -330 154.5 -503.5 q154.5 -173.5 371.5 -173.5 q109 0 198 39.5 q89 39.5 146 102 q57 62.5 96 146.5 q39 84 55.5 167 q16.5 83 16.5 167 q0 328 -154.5 504 q-154.5 176 -373.5 176 q-135 0 -238.5 -59.5 q-103.5 -59.5 -160 -154.5 q-56.5 -95 -84 -200 q-27.5 -105 -27.5 -211 ZM659 1567 l193 375 l246 0 l-359 -388 l-80 13 Z" /><glyph glyph-name="Ocircumflex" unicode="ô" d="M111 702 q0 334 206.5 548 q206.5 214 554.5 214 q133 0 258 -47 q125 -47 228.5 -136 q103.5 -89 166 -233.5 q62.5 -144.5 62.5 -322.5 q0 -334 -204.5 -545 q-204.5 -211 -551.5 -211 q-133 0 -259 46 q-126 46 -230 133.5 q-104 87.5 -167.5 231.5 q-63.5 144 -63.5 322 ZM330 743 q0 -330 154.5 -503.5 q154.5 -173.5 371.5 -173.5 q109 0 198 39.5 q89 39.5 146 102 q57 62.5 96 146.5 q39 84 55.5 167 q16.5 83 16.5 167 q0 328 -154.5 504 q-154.5 176 -373.5 176 q-135 0 -238.5 -59.5 q-103.5 -59.5 -160 -154.5 q-56.5 -95 -84 -200 q-27.5 -105 -27.5 -211 ZM524 1593 l267 361 l110 0 l270 -361 l-43 -37 l-278 236 l-4 0 l-273 -233 l-49 34 Z" /><glyph glyph-name="Otilde" unicode="õ" d="M111 702 q0 334 206.5 548 q206.5 214 554.5 214 q133 0 258 -47 q125 -47 228.5 -136 q103.5 -89 166 -233.5 q62.5 -144.5 62.5 -322.5 q0 -334 -204.5 -545 q-204.5 -211 -551.5 -211 q-133 0 -259 46 q-126 46 -230 133.5 q-104 87.5 -167.5 231.5 q-63.5 144 -63.5 322 ZM330 743 q0 -330 154.5 -503.5 q154.5 -173.5 371.5 -173.5 q109 0 198 39.5 q89 39.5 146 102 q57 62.5 96 146.5 q39 84 55.5 167 q16.5 83 16.5 167 q0 328 -154.5 504 q-154.5 176 -373.5 176 q-135 0 -238.5 -59.5 q-103.5 -59.5 -160 -154.5 q-56.5 -95 -84 -200 q-27.5 -105 -27.5 -211 ZM514 1624 q18 88 66.5 154.5 q48.5 66.5 126.5 66.5 q63 0 165 -37 q125 -37 156 -36 q39 0 64.5 19 q25.5 19 50.5 73 l39 -23 q-51 -219 -191 -219 q-49 0 -188 39 q-111 31 -123 31 q-84 0 -127 -90 l-39 22 Z" /><glyph glyph-name="Odieresis" unicode="ö" d="M111 702 q0 334 206.5 548 q206.5 214 554.5 214 q133 0 258 -47 q125 -47 228.5 -136 q103.5 -89 166 -233.5 q62.5 -144.5 62.5 -322.5 q0 -334 -204.5 -545 q-204.5 -211 -551.5 -211 q-133 0 -259 46 q-126 46 -230 133.5 q-104 87.5 -167.5 231.5 q-63.5 144 -63.5 322 ZM330 743 q0 -330 154.5 -503.5 q154.5 -173.5 371.5 -173.5 q109 0 198 39.5 q89 39.5 146 102 q57 62.5 96 146.5 q39 84 55.5 167 q16.5 83 16.5 167 q0 328 -154.5 504 q-154.5 176 -373.5 176 q-135 0 -238.5 -59.5 q-103.5 -59.5 -160 -154.5 q-56.5 -95 -84 -200 q-27.5 -105 -27.5 -211 ZM557 1652 q-41 40 -41 99 q0 59 41 99 q41 40 98.5 40 q57.5 0 98.5 -40 q41 -40 41 -99 q0 -59 -41 -99 q-41 -40 -98.5 -40 q-57.5 0 -98.5 40 ZM943 1652 q-40 40 -40 99 q0 59 40 99 q40 40 99.5 40 q59.5 0 99.5 -40 q40 -40 40 -99 q0 -59 -40 -99 q-40 -40 -99.5 -40 q-59.5 0 -99.5 40 Z" /><glyph glyph-name="multiply" unicode="×" d="M172 354 l377 385 l-377 385 l57 58 l375 -385 l365 372 l57 -57 l-362 -373 l374 -387 l-55 -57 l-379 387 l-375 -385 l-57 57 Z" /><glyph glyph-name="Oslash" unicode="ø" d="M111 702 q0 334 206.5 548 q206.5 214 554.5 214 q219 0 398 -116 l178 237 l68 -49 l-179 -238 q250 -209 250 -573 q0 -334 -204.5 -545 q-204.5 -211 -551.5 -211 q-219 0 -401 113 l-190 -256 l-70 51 l192 254 q-251 202 -251 571 ZM330 743 q0 -297 133 -477 l717 961 q-141 141 -340 141 q-135 0 -238.5 -59.5 q-103.5 -59.5 -160 -154.5 q-56.5 -95 -84 -200 q-27.5 -105 -27.5 -211 ZM518 201 q141 -135 338 -135 q109 0 198 39.5 q89 39.5 146 102 q57 62.5 96 146.5 q39 84 55.5 167 q16.5 83 16.5 167 q0 293 -133 473 l-717 -960 Z" /><glyph glyph-name="Ugrave" unicode="ù" d="M57 1370 l0 74 l316 -10 l313 10 l0 -74 l-108 -20 q-57 -10 -79 -31 q-22 -21 -22 -70 l0 -753 q0 -221 119 -318.5 q119 -97.5 305 -97.5 q440 0 440 489 q0 125 -2 391.5 q-2 266.5 -2 288.5 q0 49 -21.5 69.5 q-21.5 20.5 -78.5 31.5 l-111 20 l0 74 l275 -10 l262 10 l0 -74 l-111 -20 q-57 -10 -78.5 -31 q-21.5 -21 -21.5 -70 l-4 -698 q0 -281 -149.5 -431.5 q-149.5 -150.5 -440.5 -150.5 q-285 0 -437.5 134.5 q-152.5 134.5 -152.5 388.5 l0 757 q0 49 -21.5 69.5 q-21.5 20.5 -78.5 31.5 l-111 20 ZM608 1942 l248 0 l191 -375 l-76 -13 l-363 388 Z" /><glyph glyph-name="Uacute" unicode="ú" d="M57 1370 l0 74 l316 -10 l313 10 l0 -74 l-108 -20 q-57 -10 -79 -31 q-22 -21 -22 -70 l0 -753 q0 -221 119 -318.5 q119 -97.5 305 -97.5 q440 0 440 489 q0 125 -2 391.5 q-2 266.5 -2 288.5 q0 49 -21.5 69.5 q-21.5 20.5 -78.5 31.5 l-111 20 l0 74 l275 -10 l262 10 l0 -74 l-111 -20 q-57 -10 -78.5 -31 q-21.5 -21 -21.5 -70 l-4 -698 q0 -281 -149.5 -431.5 q-149.5 -150.5 -440.5 -150.5 q-285 0 -437.5 134.5 q-152.5 134.5 -152.5 388.5 l0 757 q0 49 -21.5 69.5 q-21.5 20.5 -78.5 31.5 l-111 20 ZM670 1567 l192 375 l246 0 l-358 -388 l-80 13 Z" /><glyph glyph-name="Ucircumflex" unicode="û" d="M57 1370 l0 74 l316 -10 l313 10 l0 -74 l-108 -20 q-57 -10 -79 -31 q-22 -21 -22 -70 l0 -753 q0 -221 119 -318.5 q119 -97.5 305 -97.5 q440 0 440 489 q0 125 -2 391.5 q-2 266.5 -2 288.5 q0 49 -21.5 69.5 q-21.5 20.5 -78.5 31.5 l-111 20 l0 74 l275 -10 l262 10 l0 -74 l-111 -20 q-57 -10 -78.5 -31 q-21.5 -21 -21.5 -70 l-4 -698 q0 -281 -149.5 -431.5 q-149.5 -150.5 -440.5 -150.5 q-285 0 -437.5 134.5 q-152.5 134.5 -152.5 388.5 l0 757 q0 49 -21.5 69.5 q-21.5 20.5 -78.5 31.5 l-111 20 ZM535 1593 l266 361 l110 0 l271 -361 l-43 -37 l-279 236 l-4 0 l-272 -233 l-49 34 Z" /><glyph glyph-name="Udieresis" unicode="ü" d="M57 1370 l0 74 l316 -10 l313 10 l0 -74 l-108 -20 q-57 -10 -79 -31 q-22 -21 -22 -70 l0 -753 q0 -221 119 -318.5 q119 -97.5 305 -97.5 q440 0 440 489 q0 125 -2 391.5 q-2 266.5 -2 288.5 q0 49 -21.5 69.5 q-21.5 20.5 -78.5 31.5 l-111 20 l0 74 l275 -10 l262 10 l0 -74 l-111 -20 q-57 -10 -78.5 -31 q-21.5 -21 -21.5 -70 l-4 -698 q0 -281 -149.5 -431.5 q-149.5 -150.5 -440.5 -150.5 q-285 0 -437.5 134.5 q-152.5 134.5 -152.5 388.5 l0 757 q0 49 -21.5 69.5 q-21.5 20.5 -78.5 31.5 l-111 20 ZM566 1652 q-40 40 -40 99 q0 59 40 99 q40 40 99.5 40 q59.5 0 99.5 -40 q40 -40 40 -99 q0 -59 -40 -99 q-40 -40 -99.5 -40 q-59.5 0 -99.5 40 ZM954 1652 q-41 40 -41 99 q0 59 41 99 q41 40 98.5 40 q57.5 0 98.5 -40 q41 -40 41 -99 q0 -59 -41 -99 q-41 -40 -98.5 -40 q-57.5 0 -98.5 40 Z" /><glyph glyph-name="Yacute" unicode="ý" d="M-23 1370 l0 74 l316 -10 l321 10 l0 -74 l-110 -20 q-123 -23 -82 -99 l346 -620 q131 217 342 614 q45 82 -78 105 l-110 20 l0 74 l313 -10 l215 10 l0 -74 l-96 -20 q-45 -8 -69.5 -30 q-24.5 -22 -51.5 -67 l-414 -696 l0 -100 q0 -143 4 -275 q2 -47 20.5 -67.5 q18.5 -20.5 76.5 -30.5 l110 -21 l0 -73 l-315 10 l-314 -10 l0 73 l109 21 q57 10 75.5 29.5 q18.5 19.5 20.5 68.5 q4 131 4 275 l0 90 q-141 242 -415 704 q-29 45 -54.5 66.5 q-25.5 21.5 -70.5 32.5 l-93 20 ZM602 1567 l193 375 l245 0 l-358 -388 l-80 13 Z" /><glyph glyph-name="Thorn" unicode="þ" d="M90 -10 l0 73 l111 21 q57 10 77.5 30.5 q20.5 20.5 22.5 67.5 q6 195 6 533 l-6 534 q-4 51 -23.5 70.5 q-19.5 19.5 -76.5 30.5 l-111 20 l0 74 l316 -10 l313 10 l0 -74 l-111 -20 q-57 -10 -76.5 -30 q-19.5 -20 -23.5 -71 q0 -41 -2 -98 q170 20 346 20 q174 0 309 -102 q135 -102 135 -311 q0 -84 -25.5 -160 q-25.5 -76 -79.5 -145.5 q-54 -69.5 -157.5 -110.5 q-103.5 -41 -242.5 -41 l-129 12 l0 84 q78 -2 110 -2 q135 0 225 92.5 q90 92.5 90 260.5 q0 154 -87 238.5 q-87 84.5 -228 84.5 l-266 0 q-4 -180 -4 -356 l6 -533 q2 -47 22.5 -67.5 q20.5 -20.5 77.5 -30.5 l111 -21 l0 -73 l-313 10 l-316 -10 Z" /><glyph glyph-name="germandbls" unicode="ß" d="M55 -10 l0 59 l64 14 q59 12 79.5 32 q20.5 20 20.5 67 l0 727 l-135 0 l0 69 l133 0 q0 293 126 444.5 q126 151.5 335 151.5 q156 0 252 -81.5 q96 -81.5 96 -206.5 q0 -80 -46 -148.5 q-46 -68.5 -101.5 -107.5 q-55.5 -39 -101.5 -87.5 q-46 -48.5 -46 -91.5 q0 -61 57.5 -132.5 q57.5 -71.5 125 -130 q67.5 -58.5 125 -143.5 q57.5 -85 57.5 -171 q0 -121 -85 -203 q-85 -82 -231 -82 q-57 0 -112.5 14.5 q-55.5 14.5 -81.5 28.5 l-25 15 l27 63 q82 -45 172 -45 q92 0 136 45 q44 45 44 115 q0 59 -52 126.5 q-52 67.5 -113.5 119 q-61.5 51.5 -114 123 q-52.5 71.5 -52.5 139.5 q0 66 41 139.5 q41 73.5 90 129.5 q49 56 90 137 q41 81 41 159 q0 109 -56 157 q-56 48 -148 48 q-268 0 -269 -381 l0 -1106 l-151 4 l-191 -10 Z" /><glyph glyph-name="agrave" unicode="à" d="M84 221 q0 297 547 334 l0 133 q0 248 -195 248 q-129 0 -129 -80 l0 -164 l-49 -33 q-63 10 -106 47 q-43 37 -43 99 q0 80 105 138 q105 58 280 58 q168 0 245.5 -75.5 q77.5 -75.5 77.5 -247.5 q0 -80 -8 -254 q-8 -174 -8 -215 q0 -121 96 -121 q53 0 90 37 l21 -37 q-27 -55 -80.5 -87 q-53.5 -32 -114.5 -32 q-80 0 -129 42 q-49 42 -55 118 q-25 -59 -94.5 -109.5 q-69.5 -50.5 -169.5 -50.5 q-127 0 -204 75 q-77 75 -77 177 ZM256 1507 l248 0 l190 -374 l-76 -13 l-362 387 ZM270 258 q0 -78 48.5 -125 q48.5 -47 121.5 -47 q76 0 129.5 48 q53.5 48 55.5 153 l6 211 q-186 -29 -254 -66 q-107 -57 -107 -174 Z" /><glyph glyph-name="aacute" unicode="á" d="M84 221 q0 297 547 334 l0 133 q0 248 -195 248 q-129 0 -129 -80 l0 -164 l-49 -33 q-63 10 -106 47 q-43 37 -43 99 q0 80 105 138 q105 58 280 58 q168 0 245.5 -75.5 q77.5 -75.5 77.5 -247.5 q0 -80 -8 -254 q-8 -174 -8 -215 q0 -121 96 -121 q53 0 90 37 l21 -37 q-27 -55 -80.5 -87 q-53.5 -32 -114.5 -32 q-80 0 -129 42 q-49 42 -55 118 q-25 -59 -94.5 -109.5 q-69.5 -50.5 -169.5 -50.5 q-127 0 -204 75 q-77 75 -77 177 ZM270 258 q0 -78 48.5 -125 q48.5 -47 121.5 -47 q76 0 129.5 48 q53.5 48 55.5 153 l6 211 q-186 -29 -254 -66 q-107 -57 -107 -174 ZM317 1133 l193 374 l246 0 l-359 -387 l-80 13 Z" /><glyph glyph-name="acircumflex" unicode="â" d="M84 221 q0 297 547 334 l0 133 q0 248 -195 248 q-129 0 -129 -80 l0 -164 l-49 -33 q-63 10 -106 47 q-43 37 -43 99 q0 80 105 138 q105 58 280 58 q168 0 245.5 -75.5 q77.5 -75.5 77.5 -247.5 q0 -80 -8 -254 q-8 -174 -8 -215 q0 -121 96 -121 q53 0 90 37 l21 -37 q-27 -55 -80.5 -87 q-53.5 -32 -114.5 -32 q-80 0 -129 42 q-49 42 -55 118 q-25 -59 -94.5 -109.5 q-69.5 -50.5 -169.5 -50.5 q-127 0 -204 75 q-77 75 -77 177 ZM182 1159 l267 361 l110 0 l270 -361 l-43 -37 l-278 236 l-4 0 l-273 -234 l-49 35 ZM270 258 q0 -78 48.5 -125 q48.5 -47 121.5 -47 q76 0 129.5 48 q53.5 48 55.5 153 l6 211 q-186 -29 -254 -66 q-107 -57 -107 -174 Z" /><glyph glyph-name="atilde" unicode="ã" d="M84 221 q0 297 547 334 l0 133 q0 248 -195 248 q-129 0 -129 -80 l0 -164 l-49 -33 q-63 10 -106 47 q-43 37 -43 99 q0 80 105 138 q105 58 280 58 q168 0 245.5 -75.5 q77.5 -75.5 77.5 -247.5 q0 -80 -8 -254 q-8 -174 -8 -215 q0 -121 96 -121 q53 0 90 37 l21 -37 q-27 -55 -80.5 -87 q-53.5 -32 -114.5 -32 q-80 0 -129 42 q-49 42 -55 118 q-25 -59 -94.5 -109.5 q-69.5 -50.5 -169.5 -50.5 q-127 0 -204 75 q-77 75 -77 177 ZM133 1190 q18 88 66.5 154.5 q48.5 66.5 126.5 66.5 q63 0 166 -37 q125 -37 155 -37 q39 0 64.5 19.5 q25.5 19.5 50.5 73.5 l39 -23 q-51 -219 -191 -219 q-49 0 -188 39 q-111 31 -123 30 q-84 0 -127 -90 l-39 23 ZM270 258 q0 -78 48.5 -125 q48.5 -47 121.5 -47 q76 0 129.5 48 q53.5 48 55.5 153 l6 211 q-186 -29 -254 -66 q-107 -57 -107 -174 Z" /><glyph glyph-name="adieresis" unicode="ä" d="M84 221 q0 297 547 334 l0 133 q0 248 -195 248 q-129 0 -129 -80 l0 -164 l-49 -33 q-63 10 -106 47 q-43 37 -43 99 q0 80 105 138 q105 58 280 58 q168 0 245.5 -75.5 q77.5 -75.5 77.5 -247.5 q0 -80 -8 -254 q-8 -174 -8 -215 q0 -121 96 -121 q53 0 90 37 l21 -37 q-27 -55 -80.5 -87 q-53.5 -32 -114.5 -32 q-80 0 -129 42 q-49 42 -55 118 q-25 -59 -94.5 -109.5 q-69.5 -50.5 -169.5 -50.5 q-127 0 -204 75 q-77 75 -77 177 ZM193.5 1217.5 q-39.5 39.5 -39.5 99 q0 59.5 39.5 99.5 q39.5 40 99 40 q59.5 0 99.5 -40 q40 -40 40 -99.5 q0 -59.5 -40 -99 q-40 -39.5 -99.5 -39.5 q-59.5 0 -99 39.5 ZM270 258 q0 -78 48.5 -125 q48.5 -47 121.5 -47 q76 0 129.5 48 q53.5 48 55.5 153 l6 211 q-186 -29 -254 -66 q-107 -57 -107 -174 ZM582 1217.5 q-41 39.5 -41 99 q0 59.5 41 99.5 q41 40 98 40 q57 0 98 -40 q41 -40 41 -99.5 q0 -59.5 -41 -99 q-41 -39.5 -98 -39.5 q-57 0 -98 39.5 Z" /><glyph glyph-name="aring" unicode="å" d="M84 221 q0 297 547 334 l0 133 q0 248 -195 248 q-129 0 -129 -80 l0 -164 l-49 -33 q-63 10 -106 47 q-43 37 -43 99 q0 80 105 138 q105 58 280 58 q168 0 245.5 -75.5 q77.5 -75.5 77.5 -247.5 q0 -80 -8 -254 q-8 -174 -8 -215 q0 -121 96 -121 q53 0 90 37 l21 -37 q-27 -55 -80.5 -87 q-53.5 -32 -114.5 -32 q-80 0 -129 42 q-49 42 -55 118 q-25 -59 -94.5 -109.5 q-69.5 -50.5 -169.5 -50.5 q-127 0 -204 75 q-77 75 -77 177 ZM264 1300 q0 94 64.5 158 q64.5 64 156.5 64 q94 0 159 -63.5 q65 -63.5 65 -158 q0 -94.5 -64.5 -157 q-64.5 -62.5 -159.5 -62.5 q-92 0 -156.5 63.5 q-64.5 63.5 -64.5 155.5 ZM270 258 q0 -78 48.5 -125 q48.5 -47 121.5 -47 q76 0 129.5 48 q53.5 48 55.5 153 l6 211 q-186 -29 -254 -66 q-107 -57 -107 -174 ZM374.5 1417 q-40.5 -45 -40.5 -116.5 q0 -71.5 41 -116.5 q41 -45 110 -45 q72 0 113 45 q41 45 41 116.5 q0 71.5 -41 116.5 q-41 45 -113 45 q-70 0 -110.5 -45 Z" /><glyph glyph-name="ae" unicode="æ" d="M84 221 q0 276 547 334 l-2 133 q0 248 -195 248 q-129 0 -129 -80 l0 -164 l-49 -33 q-63 10 -106.5 47 q-43.5 37 -43.5 99 q0 80 109 138 q109 58 283 58 q215 0 278 -127 q109 127 285 127 q186 0 279.5 -120.5 q93.5 -120.5 93.5 -280.5 l0 -37 l-613 -49 l0 -10 q0 -197 94.5 -301.5 q94.5 -104.5 237.5 -104.5 q80 0 147.5 39 q67.5 39 96.5 78 l28 39 l37 -57 q-119 -227 -389 -228 q-131 0 -240.5 57.5 q-109.5 57.5 -152.5 166.5 q-25 -88 -117 -156 q-92 -68 -211 -68 q-127 0 -197.5 74 q-70.5 74 -70.5 178 ZM270 248 q0 -82 48.5 -129 q48.5 -47 121.5 -47 q76 0 139.5 62.5 q63.5 62.5 59.5 166.5 l-8 197 q-59 -8 -92 -14.5 q-33 -6.5 -91.5 -26 q-58.5 -19.5 -91 -43 q-32.5 -23.5 -59.5 -67.5 q-27 -44 -27 -99 ZM819 575 l418 52 q10 147 -41 227 q-51 80 -158 80 q-94 0 -159.5 -84.5 q-65.5 -84.5 -59.5 -274.5 Z" /><glyph glyph-name="ccedilla" unicode="ç" d="M88 469 q0 229 136 380.5 q136 151.5 354 151.5 q162 0 240.5 -61 q78.5 -61 78.5 -125 q0 -61 -42 -101 q-42 -40 -105 -48 l-60 34 l0 119 q0 70 -21.5 88.5 q-21.5 18.5 -90.5 18.5 q-131 0 -215 -112 q-84 -112 -84 -310.5 q0 -198.5 104 -299 q104 -100.5 244 -100.5 q88 0 163.5 41 q75.5 41 108.5 109 l39 -57 q-117 -219 -385 -228 l-84 -96 q41 0 82 -9 q41 -9 89 -30.5 q48 -21.5 79 -67 q31 -45.5 31 -108.5 q0 -104 -78 -160.5 q-78 -56.5 -193 -56.5 q-129 0 -239 51 l14 59 q66 -29 143 -28 q156 0 156 123 q0 33 -21.5 61.5 q-21.5 28.5 -61.5 48 q-40 19.5 -70.5 31.5 q-30.5 12 -73.5 24.5 q-43 12.5 -47 14.5 l182 149 q-162 23 -267.5 148 q-105.5 125 -105.5 346 Z" /><glyph glyph-name="egrave" unicode="è" d="M90 469 q0 248 137.5 390 q137.5 142 315.5 142 q102 0 181 -37.5 q79 -37.5 124 -99 q45 -61.5 67.5 -130 q22.5 -68.5 22.5 -138.5 l0 -37 l-655 0 q-2 -23 -2 -55 q0 -199 100 -299.5 q100 -100.5 237 -100.5 q88 0 164 41 q76 41 109 109 l39 -57 q-121 -227 -398 -228 q-186 0 -314 127 q-128 127 -128 373 ZM281 1507 l247 0 l191 -374 l-76 -13 l-362 387 ZM285 627 l458 6 q4 135 -48 216 q-52 81 -160 81 q-106 0 -174 -80 q-68 -80 -76 -223 Z" /><glyph glyph-name="eacute" unicode="é" d="M90 469 q0 248 137.5 390 q137.5 142 315.5 142 q102 0 181 -37.5 q79 -37.5 124 -99 q45 -61.5 67.5 -130 q22.5 -68.5 22.5 -138.5 l0 -37 l-655 0 q-2 -23 -2 -55 q0 -199 100 -299.5 q100 -100.5 237 -100.5 q88 0 164 41 q76 41 109 109 l39 -57 q-121 -227 -398 -228 q-186 0 -314 127 q-128 127 -128 373 ZM285 627 l458 6 q4 135 -48 216 q-52 81 -160 81 q-106 0 -174 -80 q-68 -80 -76 -223 ZM340 1133 l192 374 l246 0 l-358 -387 l-80 13 Z" /><glyph glyph-name="ecircumflex" unicode="ê" d="M90 469 q0 248 137.5 390 q137.5 142 315.5 142 q102 0 181 -37.5 q79 -37.5 124 -99 q45 -61.5 67.5 -130 q22.5 -68.5 22.5 -138.5 l0 -37 l-655 0 q-2 -23 -2 -55 q0 -199 100 -299.5 q100 -100.5 237 -100.5 q88 0 164 41 q76 41 109 109 l39 -57 q-121 -227 -398 -228 q-186 0 -314 127 q-128 127 -128 373 ZM207 1159 l266 361 l111 0 l270 -361 l-43 -37 l-279 236 l-4 0 l-272 -234 l-49 35 ZM285 627 l458 6 q4 135 -48 216 q-52 81 -160 81 q-106 0 -174 -80 q-68 -80 -76 -223 Z" /><glyph glyph-name="edieresis" unicode="ë" d="M90 469 q0 248 137.5 390 q137.5 142 315.5 142 q102 0 181 -37.5 q79 -37.5 124 -99 q45 -61.5 67.5 -130 q22.5 -68.5 22.5 -138.5 l0 -37 l-655 0 q-2 -23 -2 -55 q0 -199 100 -299.5 q100 -100.5 237 -100.5 q88 0 164 41 q76 41 109 109 l39 -57 q-121 -227 -398 -228 q-186 0 -314 127 q-128 127 -128 373 ZM239 1217.5 q-40 39.5 -40 99 q0 59.5 40 99.5 q40 40 99 40 q59 0 99 -40 q40 -40 40 -99.5 q0 -59.5 -40 -99 q-40 -39.5 -99 -39.5 q-59 0 -99 39.5 ZM285 627 l458 6 q4 135 -48 216 q-52 81 -160 81 q-106 0 -174 -80 q-68 -80 -76 -223 ZM627 1217.5 q-41 39.5 -41 99 q0 59.5 41 99.5 q41 40 98 40 q57 0 98 -40 q41 -40 41 -99.5 q0 -59.5 -41 -99 q-41 -39.5 -98 -39.5 q-57 0 -98 39.5 Z" /><glyph glyph-name="igrave" unicode="ì" d="M53 1507 l248 0 l191 -374 l-76 -13 l-363 387 ZM61 -10 l0 59 l64 14 q59 14 79.5 34 q20.5 20 20.5 65 l0 446 q0 109 -12 152 q-12 43 -53 57 l-84 31 l0 29 l258 137 l74 0 q-4 -150 -5 -348 l0 -504 q0 -47 19.5 -65.5 q19.5 -18.5 79.5 -33.5 l63 -14 l0 -59 l-250 10 l-254 -10 Z" /><glyph glyph-name="iacute" unicode="í" d="M61 -10 l0 59 l64 14 q59 14 79.5 34 q20.5 20 20.5 65 l0 446 q0 109 -12 152 q-12 43 -53 57 l-84 31 l0 29 l258 137 l74 0 q-4 -150 -5 -348 l0 -504 q0 -47 19.5 -65.5 q19.5 -18.5 79.5 -33.5 l63 -14 l0 -59 l-250 10 l-254 -10 ZM113 1133 l192 374 l246 0 l-358 -387 l-80 13 Z" /><glyph glyph-name="icircumflex" unicode="î" d="M-20 1159 l266 361 l110 0 l271 -361 l-43 -37 l-279 236 l-4 0 l-272 -234 l-49 35 ZM61 -10 l0 59 l64 14 q59 14 79.5 34 q20.5 20 20.5 65 l0 446 q0 109 -12 152 q-12 43 -53 57 l-84 31 l0 29 l258 137 l74 0 q-4 -150 -5 -348 l0 -504 q0 -47 19.5 -65.5 q19.5 -18.5 79.5 -33.5 l63 -14 l0 -59 l-250 10 l-254 -10 Z" /><glyph glyph-name="idieresis" unicode="ï" d="M12 1217.5 q-41 39.5 -41 99 q0 59.5 41 99.5 q41 40 98.5 40 q57.5 0 98.5 -40 q41 -40 41 -99.5 q0 -59.5 -41 -99 q-41 -39.5 -98.5 -39.5 q-57.5 0 -98.5 39.5 ZM61 -10 l0 59 l64 14 q59 14 79.5 34 q20.5 20 20.5 65 l0 446 q0 109 -12 152 q-12 43 -53 57 l-84 31 l0 29 l258 137 l74 0 q-4 -150 -5 -348 l0 -504 q0 -47 19.5 -65.5 q19.5 -18.5 79.5 -33.5 l63 -14 l0 -59 l-250 10 l-254 -10 ZM398 1217.5 q-40 39.5 -40 99 q0 59.5 40 99.5 q40 40 99.5 40 q59.5 0 99.5 -40 q40 -40 40 -99.5 q0 -59.5 -40 -99 q-40 -39.5 -99.5 -39.5 q-59.5 0 -99.5 39.5 Z" /><glyph glyph-name="eth" unicode="ð" d="M88 477 q0 233 126 378.5 q126 145.5 351 145.5 q115 0 199 -59 q-84 176 -229 344 l-179 -94 l-28 59 l164 84 q-133 143 -220 197 l43 43 q152 -72 285 -182 l193 102 l28 -59 l-168 -88 q182 -168 291 -397.5 q109 -229.5 109 -454.5 q0 -238 -136.5 -382.5 q-136.5 -144.5 -357.5 -144.5 q-188 0 -329.5 132 q-141.5 132 -141.5 376 ZM279 504 q0 -223 87 -341 q87 -118 209 -118 q104 0 173 70.5 q69 70.5 91.5 160 q22.5 89.5 22.5 191.5 q0 231 -85 345 q-85 114 -210 114 q-106 0 -174.5 -71 q-68.5 -71 -91 -160 q-22.5 -89 -22.5 -191 Z" /><glyph glyph-name="ntilde" unicode="ñ" d="M72 848 l0 29 l239 137 l58 0 l-7 -176 l19 -4 q35 55 122 111 q87 56 199 56 q326 0 326 -335 l-4 -504 q0 -45 20.5 -64.5 q20.5 -19.5 77.5 -34.5 l62 -14 l0 -59 l-250 10 l-252 -10 l0 59 l63 14 q70 16 86 68 q16 55 17 408 q0 78 -7 133 q-7 55 -28.5 110.5 q-21.5 55.5 -68 83 q-46.5 27.5 -115.5 27.5 q-143 0 -188.5 -79 q-45.5 -79 -45.5 -245 l0 -407 q0 -47 20.5 -66.5 q20.5 -19.5 80.5 -32.5 l61 -14 l0 -59 l-252 10 l-231 -10 l0 59 l43 14 q61 20 80.5 37 q19.5 17 19.5 62 l0 446 q0 113 -11 154 q-11 41 -50 55 l-84 31 ZM272 1190 q18 88 66.5 154.5 q48.5 66.5 126.5 66.5 q63 0 166 -37 q125 -37 155 -37 q39 0 65 19.5 q26 19.5 50 73.5 l39 -23 q-51 -219 -190 -219 q-49 0 -189 39 q-111 31 -123 30 q-84 0 -127 -90 l-39 23 Z" /><glyph glyph-name="ograve" unicode="ò" d="M88 477 q0 229 135 376.5 q135 147.5 363 147.5 q193 0 330 -134 q137 -134 137 -371.5 q0 -237.5 -136.5 -382 q-136.5 -144.5 -357.5 -144.5 q-188 0 -329.5 132 q-141.5 132 -141.5 376 ZM279 504 q0 -223 87 -341 q87 -118 209 -118 q104 0 173 70.5 q69 70.5 91.5 160 q22.5 89.5 22.5 191.5 q0 231 -85 345 q-85 114 -210 114 q-106 0 -174.5 -71 q-68.5 -71 -91 -160 q-22.5 -89 -22.5 -191 ZM350 1507 l248 0 l190 -374 l-75 -13 l-363 387 Z" /><glyph glyph-name="oacute" unicode="ó" d="M88 477 q0 229 135 376.5 q135 147.5 363 147.5 q193 0 330 -134 q137 -134 137 -371.5 q0 -237.5 -136.5 -382 q-136.5 -144.5 -357.5 -144.5 q-188 0 -329.5 132 q-141.5 132 -141.5 376 ZM279 504 q0 -223 87 -341 q87 -118 209 -118 q104 0 173 70.5 q69 70.5 91.5 160 q22.5 89.5 22.5 191.5 q0 231 -85 345 q-85 114 -210 114 q-106 0 -174.5 -71 q-68.5 -71 -91 -160 q-22.5 -89 -22.5 -191 ZM350 1133 l193 374 l245 0 l-358 -387 l-80 13 Z" /><glyph glyph-name="ocircumflex" unicode="ô" d="M88 477 q0 229 135 376.5 q135 147.5 363 147.5 q193 0 330 -134 q137 -134 137 -371.5 q0 -237.5 -136.5 -382 q-136.5 -144.5 -357.5 -144.5 q-188 0 -329.5 132 q-141.5 132 -141.5 376 ZM246 1159 l266 361 l111 0 l270 -361 l-43 -37 l-279 236 l-4 0 l-272 -234 l-49 35 ZM279 504 q0 -223 87 -341 q87 -118 209 -118 q104 0 173 70.5 q69 70.5 91.5 160 q22.5 89.5 22.5 191.5 q0 231 -85 345 q-85 114 -210 114 q-106 0 -174.5 -71 q-68.5 -71 -91 -160 q-22.5 -89 -22.5 -191 Z" /><glyph glyph-name="otilde" unicode="õ" d="M88 477 q0 229 135 376.5 q135 147.5 363 147.5 q193 0 330 -134 q137 -134 137 -371.5 q0 -237.5 -136.5 -382 q-136.5 -144.5 -357.5 -144.5 q-188 0 -329.5 132 q-141.5 132 -141.5 376 ZM236 1190 q18 88 66 154.5 q48 66.5 126 66.5 q63 0 166 -37 q125 -37 156 -37 q39 0 64.5 19.5 q25.5 19.5 49.5 73.5 l39 -23 q-51 -219 -190 -219 q-49 0 -189 39 q-111 31 -123 30 q-84 0 -127 -90 l-38 23 ZM279 504 q0 -223 87 -341 q87 -118 209 -118 q104 0 173 70.5 q69 70.5 91.5 160 q22.5 89.5 22.5 191.5 q0 231 -85 345 q-85 114 -210 114 q-106 0 -174.5 -71 q-68.5 -71 -91 -160 q-22.5 -89 -22.5 -191 Z" /><glyph glyph-name="odieresis" unicode="ö" d="M88 477 q0 229 135 376.5 q135 147.5 363 147.5 q193 0 330 -134 q137 -134 137 -371.5 q0 -237.5 -136.5 -382 q-136.5 -144.5 -357.5 -144.5 q-188 0 -329.5 132 q-141.5 132 -141.5 376 ZM278.5 1217.5 q-40.5 39.5 -40.5 99 q0 59.5 40.5 99.5 q40.5 40 98 40 q57.5 0 98.5 -40 q41 -40 41 -99.5 q0 -59.5 -41 -99 q-41 -39.5 -98.5 -39.5 q-57.5 0 -98 39.5 ZM279 504 q0 -223 87 -341 q87 -118 209 -118 q104 0 173 70.5 q69 70.5 91.5 160 q22.5 89.5 22.5 191.5 q0 231 -85 345 q-85 114 -210 114 q-106 0 -174.5 -71 q-68.5 -71 -91 -160 q-22.5 -89 -22.5 -191 ZM665 1217.5 q-40 39.5 -40 99 q0 59.5 40 99.5 q40 40 99 40 q59 0 99 -40 q40 -40 40 -99.5 q0 -59.5 -40 -99 q-40 -39.5 -99 -39.5 q-59 0 -99 39.5 Z" /><glyph glyph-name="divide" unicode="÷" d="M131 688 l0 80 l946 0 l0 -80 l-946 0 ZM504 288 q-41 42 -41 101.5 q0 59.5 41 101 q41 41.5 100.5 41.5 q59.5 0 100 -41.5 q40.5 -41.5 40.5 -101 q0 -59.5 -40.5 -101.5 q-40.5 -42 -100 -42 q-59.5 0 -100.5 42 ZM504 966 q-41 42 -41 101 q0 59 41 101 q41 42 100.5 42 q59.5 0 100 -42 q40.5 -42 40.5 -101 q0 -59 -40.5 -101 q-40.5 -42 -100 -42 q-59.5 0 -100.5 42 Z" /><glyph glyph-name="oslash" unicode="ø" d="M88 477 q0 229 135 376.5 q135 147.5 363 147.5 q166 0 291 -100 l127 154 l43 -37 l-127 -156 q133 -143 133 -366 q0 -238 -136.5 -382.5 q-136.5 -144.5 -357.5 -144.5 q-168 0 -293 99 l-125 -154 l-43 39 l125 153 q-135 135 -135 371 ZM279 504 q0 -166 47 -273 l462 562 q-82 133 -221 133 q-106 0 -174.5 -71 q-68.5 -71 -91 -160 q-22.5 -89 -22.5 -191 ZM356 176 q80 -131 219 -131 q104 0 173 70.5 q69 70.5 91.5 160 q22.5 89.5 22.5 191.5 q0 164 -45 270 l-461 -561 Z" /><glyph glyph-name="ugrave" unicode="ù" d="M35 899 l0 59 l241 11 l99 12 q-12 -113 -13 -612 q0 -289 218 -289 q59 0 102 17.5 q43 17.5 66.5 45 q23.5 27.5 37 75.5 q13.5 48 16.5 92 q3 44 3 110 l0 354 q0 51 -17.5 77 q-17.5 26 -70.5 36 l-64 12 l0 59 l242 11 l98 12 q-10 -254 -10 -623 q0 -160 8 -204 q10 -53 103 -60 l53 -4 l0 -57 l-279 -49 l-57 0 l4 147 l-16 4 q-39 -59 -116 -112.5 q-77 -53.5 -187 -53.5 q-313 0 -314 346 l4 459 q0 51 -17 77 q-17 26 -71 36 l-63 12 ZM332 1507 l248 0 l190 -374 l-76 -13 l-362 387 Z" /><glyph glyph-name="uacute" unicode="ú" d="M35 899 l0 59 l241 11 l99 12 q-12 -113 -13 -612 q0 -289 218 -289 q59 0 102 17.5 q43 17.5 66.5 45 q23.5 27.5 37 75.5 q13.5 48 16.5 92 q3 44 3 110 l0 354 q0 51 -17.5 77 q-17.5 26 -70.5 36 l-64 12 l0 59 l242 11 l98 12 q-10 -254 -10 -623 q0 -160 8 -204 q10 -53 103 -60 l53 -4 l0 -57 l-279 -49 l-57 0 l4 147 l-16 4 q-39 -59 -116 -112.5 q-77 -53.5 -187 -53.5 q-313 0 -314 346 l4 459 q0 51 -17 77 q-17 26 -71 36 l-63 12 ZM393 1133 l193 374 l245 0 l-358 -387 l-80 13 Z" /><glyph glyph-name="ucircumflex" unicode="û" d="M35 899 l0 59 l241 11 l99 12 q-12 -113 -13 -612 q0 -289 218 -289 q59 0 102 17.5 q43 17.5 66.5 45 q23.5 27.5 37 75.5 q13.5 48 16.5 92 q3 44 3 110 l0 354 q0 51 -17.5 77 q-17.5 26 -70.5 36 l-64 12 l0 59 l242 11 l98 12 q-10 -254 -10 -623 q0 -160 8 -204 q10 -53 103 -60 l53 -4 l0 -57 l-279 -49 l-57 0 l4 147 l-16 4 q-39 -59 -116 -112.5 q-77 -53.5 -187 -53.5 q-313 0 -314 346 l4 459 q0 51 -17 77 q-17 26 -71 36 l-63 12 ZM258 1159 l266 361 l111 0 l270 -361 l-43 -37 l-278 236 l-4 0 l-273 -234 l-49 35 Z" /><glyph glyph-name="udieresis" unicode="ü" d="M35 899 l0 59 l241 11 l99 12 q-12 -113 -13 -612 q0 -289 218 -289 q59 0 102 17.5 q43 17.5 66.5 45 q23.5 27.5 37 75.5 q13.5 48 16.5 92 q3 44 3 110 l0 354 q0 51 -17.5 77 q-17.5 26 -70.5 36 l-64 12 l0 59 l242 11 l98 12 q-10 -254 -10 -623 q0 -160 8 -204 q10 -53 103 -60 l53 -4 l0 -57 l-279 -49 l-57 0 l4 147 l-16 4 q-39 -59 -116 -112.5 q-77 -53.5 -187 -53.5 q-313 0 -314 346 l4 459 q0 51 -17 77 q-17 26 -71 36 l-63 12 ZM291 1217.5 q-41 39.5 -41 99 q0 59.5 41 99.5 q41 40 98 40 q57 0 98 -40 q41 -40 41 -99.5 q0 -59.5 -41 -99 q-41 -39.5 -98 -39.5 q-57 0 -98 39.5 ZM677 1217.5 q-40 39.5 -40 99 q0 59.5 40 99.5 q40 40 99.5 40 q59.5 0 99 -40 q39.5 -40 39.5 -99.5 q0 -59.5 -39.5 -99 q-39.5 -39.5 -99 -39.5 q-59.5 0 -99.5 39.5 Z" /><glyph glyph-name="yacute" unicode="ý" d="M-2 918 l0 59 l229 -10 l267 10 l0 -59 l-72 -15 q-59 -12 -78.5 -33.5 q-19.5 -21.5 -1.5 -64.5 l242 -637 l243 637 q14 41 -8 61.5 q-22 20.5 -84 36.5 l-51 15 l0 59 l203 -10 l192 10 l0 -59 l-43 -15 q-51 -16 -65.5 -32.5 q-14.5 -16.5 -34.5 -65.5 l-567 -1364 l-187 20 l318 527 l-21 0 l-338 817 q-20 51 -37.5 66.5 q-17.5 15.5 -62.5 31.5 l-43 15 ZM369 1133 l192 374 l246 0 l-358 -387 l-80 13 Z" /><glyph glyph-name="thorn" unicode="þ" d="M-2 -449 l61 15 q57 12 77 31.5 q20 19.5 20 66.5 l0 1522 q0 113 -11.5 153.5 q-11.5 40.5 -50.5 55.5 l-84 30 l0 29 l266 72 l58 0 l0 -432 l-31 -258 l16 -2 q119 168 332 167 q188 0 310 -140 q122 -140 122 -351 q0 -229 -137 -385 q-137 -156 -354 -156 q-80 0 -166 24.5 q-86 24.5 -121 55.5 q35 -72 35 -221 l0 -164 q0 -47 21.5 -68.5 q21.5 -21.5 78.5 -29.5 l92 -15 l0 -59 l-282 10 l-252 -10 l0 59 ZM334 283 q0 -233 248 -234 q135 0 224 103.5 q89 103.5 89 316.5 q0 197 -92 303.5 q-92 106.5 -232 106.5 q-117 0 -177 -56.5 q-60 -56.5 -60 -142.5 l0 -397 Z" /><glyph glyph-name="ydieresis" unicode="ÿ" d="M-2 918 l0 59 l229 -10 l267 10 l0 -59 l-72 -15 q-59 -12 -78.5 -33.5 q-19.5 -21.5 -1.5 -64.5 l242 -637 l243 637 q14 41 -8 61.5 q-22 20.5 -84 36.5 l-51 15 l0 59 l203 -10 l192 10 l0 -59 l-43 -15 q-51 -16 -65.5 -32.5 q-14.5 -16.5 -34.5 -65.5 l-567 -1364 l-187 20 l318 527 l-21 0 l-338 817 q-20 51 -37.5 66.5 q-17.5 15.5 -62.5 31.5 l-43 15 ZM266 1217.5 q-41 39.5 -41 99 q0 59.5 41 99.5 q41 40 98.5 40 q57.5 0 98.5 -40 q41 -40 41 -99.5 q0 -59.5 -41 -99 q-41 -39.5 -98.5 -39.5 q-57.5 0 -98.5 39.5 ZM652 1217.5 q-40 39.5 -40 99 q0 59.5 40 99.5 q40 40 99.5 40 q59.5 0 99.5 -40 q40 -40 40 -99.5 q0 -59.5 -40 -99 q-40 -39.5 -99.5 -39.5 q-59.5 0 -99.5 39.5 Z" /><glyph glyph-name="OE" unicode="&#x152;" d="M113 690 q0 190 67.5 339 q67.5 149 185 241 q117.5 92 266 139 q148.5 47 318.5 47 q49 0 375 -22 l516 0 l326 22 q-16 -125 -37 -416 l-74 0 l-26 101 q-27 104 -62 152 q-35 48 -94 48 l-412 0 q-25 0 -31 -7 q-6 -7 -6 -25 l0 -537 q164 2 285 8 q49 4 72.5 25.5 q23.5 21.5 38.5 79.5 l26 112 l74 0 l-10 -262 l10 -270 l-74 0 l-26 113 q-16 57 -39 79.5 q-23 22.5 -72 24.5 l-285 8 l0 -467 q0 -129 150 -129 l256 0 q88 0 143.5 31 q55.5 31 110.5 133 l96 176 l70 0 l-70 -444 q-279 10 -401 10 l-559 0 q-225 -16 -336 -16 q-373 0 -572.5 201.5 q-199.5 201.5 -199.5 504.5 ZM342 696 q0 -295 162 -453.5 q162 -158.5 469 -158.5 l256 -2 l0 1132 q-2 68 -35 102 q-33 34 -109 40 q-82 4 -124 4 q-619 0 -619 -664 Z" /><glyph glyph-name="oe" unicode="&#x153;" d="M88 477 q0 229 135 376.5 q135 147.5 363 147.5 q111 0 210 -49 q99 -49 165 -141 q66 92 161 141 q95 49 193 49 q102 0 181 -37.5 q79 -37.5 124 -99 q45 -61.5 67.5 -130 q22.5 -68.5 22.5 -138.5 l0 -37 l-655 0 q-2 -16 -2 -39 l0 -16 q0 -199 100 -299.5 q100 -100.5 238 -100.5 q88 0 163.5 41 q75.5 41 108.5 109 l39 -57 q-121 -227 -397 -228 q-236 0 -359 181 q-135 -180 -387 -181 q-188 0 -329.5 132 q-141.5 132 -141.5 376 ZM279 504 q0 -223 87 -341 q87 -118 209 -118 q104 0 173 70.5 q69 70.5 91.5 160 q22.5 89.5 22.5 191.5 q0 231 -85 345 q-85 114 -210 114 q-106 0 -174.5 -71 q-68.5 -71 -91 -160 q-22.5 -89 -22.5 -191 ZM1057 627 l459 6 q4 135 -48.5 216 q-52.5 81 -160.5 81 q-106 0 -174 -80 q-68 -80 -76 -223 Z" /><glyph glyph-name="Ydieresis" unicode="&#x178;" d="M-23 1370 l0 74 l316 -10 l321 10 l0 -74 l-110 -20 q-123 -23 -82 -99 l346 -620 q131 217 342 614 q45 82 -78 105 l-110 20 l0 74 l313 -10 l215 10 l0 -74 l-96 -20 q-45 -8 -69.5 -30 q-24.5 -22 -51.5 -67 l-414 -696 l0 -100 q0 -143 4 -275 q2 -47 20.5 -67.5 q18.5 -20.5 76.5 -30.5 l110 -21 l0 -73 l-315 10 l-314 -10 l0 73 l109 21 q57 10 75.5 29.5 q18.5 19.5 20.5 68.5 q4 131 4 275 l0 90 q-141 242 -415 704 q-29 45 -54.5 66.5 q-25.5 21.5 -70.5 32.5 l-93 20 ZM422 1652 q-41 40 -41 99 q0 59 41 99 q41 40 98.5 40 q57.5 0 98 -40 q40.5 -40 40.5 -99 q0 -59 -40.5 -99 q-40.5 -40 -98 -40 q-57.5 0 -98.5 40 ZM808 1652 q-40 40 -40 99 q0 59 40 99 q40 40 99.5 40 q59.5 0 99.5 -40 q40 -40 40 -99 q0 -59 -40 -99 q-40 -40 -99.5 -40 q-59.5 0 -99.5 40 Z" /><glyph glyph-name="circumflex" unicode="&#x2c6;" d="M86 1159 l266 361 l111 0 l270 -361 l-43 -37 l-278 236 l-4 0 l-273 -234 l-49 35 Z" /><glyph glyph-name="tilde" unicode="&#x2dc;" d="M76 1190 q18 88 66 154.5 q48 66.5 126 66.5 q63 0 166 -37 q125 -37 156 -37 q39 0 64.5 19.5 q25.5 19.5 50.5 73.5 l38 -23 q-51 -219 -190 -219 q-49 0 -188 39 q-111 31 -123 30 q-84 0 -127 -90 l-39 23 Z" /><glyph glyph-name="uni2000" unicode="&#x2000;" d="" /><glyph glyph-name="uni2001" unicode="&#x2001;" d="" /><glyph glyph-name="uni2002" unicode="&#x2002;" d="" /><glyph glyph-name="uni2003" unicode="&#x2003;" d="" /><glyph glyph-name="uni2004" unicode="&#x2004;" d="" /><glyph glyph-name="uni2005" unicode="&#x2005;" d="" /><glyph glyph-name="uni2006" unicode="&#x2006;" d="" /><glyph glyph-name="uni2007" unicode="&#x2007;" d="" /><glyph glyph-name="uni2008" unicode="&#x2008;" d="" /><glyph glyph-name="uni2009" unicode="&#x2009;" d="" /><glyph glyph-name="uni200A" unicode="&#x200a;" d="" /><glyph glyph-name="uni2010" unicode="&#x2010;" d="M139 494 l0 141 l496 0 l0 -141 l-496 0 Z" /><glyph glyph-name="uni2011" unicode="&#x2011;" d="M139 494 l0 141 l496 0 l0 -141 l-496 0 Z" /><glyph glyph-name="figuredash" unicode="&#x2012;" d="M139 494 l0 141 l496 0 l0 -141 l-496 0 Z" /><glyph glyph-name="endash" unicode="&#x2013;" d="M133 598 l0 102 l1229 0 l0 -102 l-1229 0 Z" /><glyph glyph-name="emdash" unicode="&#x2014;" d="M133 598 l0 102 l2306 0 l0 -102 l-2306 0 Z" /><glyph glyph-name="quoteleft" unicode="&#x2018;" d="M98 1092 q0 135 108.5 248.5 q108.5 113.5 252.5 160.5 l26 -51 q-100 -49 -152 -112.5 q-52 -63.5 -52 -127.5 q0 -59 46 -105 q46 -46 132 -71 q2 -4 2 -12 q0 -47 -58.5 -102.5 q-58.5 -55.5 -107.5 -55.5 q-72 0 -134.5 66 q-62.5 66 -62.5 162 Z" /><glyph glyph-name="quoteright" unicode="&#x2019;" d="M113 920 q100 49 152 112.5 q52 63.5 52 126.5 q0 59 -46 105.5 q-46 46.5 -132 70.5 q-2 4 -2 13 q0 47 58.5 102 q58.5 55 107.5 55 q72 0 134.5 -65.5 q62.5 -65.5 62.5 -161.5 q0 -135 -108.5 -249 q-108.5 -114 -252.5 -161 l-26 52 Z" /><glyph glyph-name="quotesinglbase" unicode="&#x201a;" d="M78 -256 q100 49 152.5 112.5 q52.5 63.5 52.5 127.5 q0 59 -46.5 105 q-46.5 46 -132.5 71 q-2 4 -2 12 q0 47 58.5 102.5 q58.5 55.5 107.5 55.5 q72 0 134.5 -65.5 q62.5 -65.5 62.5 -162.5 q0 -135 -108.5 -248.5 q-108.5 -113.5 -252.5 -160.5 l-26 51 Z" /><glyph glyph-name="quotedblleft" unicode="&#x201c;" d="M98 1092 q0 135 108.5 248.5 q108.5 113.5 252.5 160.5 l26 -51 q-100 -49 -152 -112.5 q-52 -63.5 -52 -127.5 q0 -59 46 -105 q46 -46 132 -71 q2 -4 2 -12 q0 -47 -58.5 -102.5 q-58.5 -55.5 -107.5 -55.5 q-72 0 -134.5 66 q-62.5 66 -62.5 162 ZM539 1092 q0 135 108.5 248.5 q108.5 113.5 251.5 160.5 l27 -51 q-100 -49 -152.5 -112.5 q-52.5 -63.5 -52.5 -127.5 q0 -59 46 -105 q46 -46 132 -71 q2 -4 2 -12 q0 -47 -58.5 -102.5 q-58.5 -55.5 -107.5 -55.5 q-72 0 -134 66 q-62 66 -62 162 Z" /><glyph glyph-name="quotedblright" unicode="&#x201d;" d="M113 920 q100 49 152 112.5 q52 63.5 52 126.5 q0 59 -46 105.5 q-46 46.5 -132 70.5 q-2 4 -2 13 q0 47 58.5 102 q58.5 55 107.5 55 q72 0 134.5 -65.5 q62.5 -65.5 62.5 -161.5 q0 -135 -108.5 -249 q-108.5 -114 -252.5 -161 l-26 52 ZM567 920 q100 49 152.5 112.5 q52.5 63.5 52.5 126.5 q0 59 -46 105.5 q-46 46.5 -132 70.5 q-2 4 -2 13 q0 47 58.5 102 q58.5 55 107.5 55 q72 0 134 -65.5 q62 -65.5 62 -161.5 q0 -135 -108.5 -249 q-108.5 -114 -251.5 -161 l-27 52 Z" /><glyph glyph-name="quotedblbase" unicode="&#x201e;" d="M78 -256 q100 49 152.5 112.5 q52.5 63.5 52.5 127.5 q0 59 -46.5 105 q-46.5 46 -132.5 71 q-2 4 -2 12 q0 47 58.5 102.5 q58.5 55.5 107.5 55.5 q72 0 134.5 -65.5 q62.5 -65.5 62.5 -162.5 q0 -135 -108.5 -248.5 q-108.5 -113.5 -252.5 -160.5 l-26 51 ZM532 -256 q100 49 152.5 112.5 q52.5 63.5 52.5 127.5 q0 59 -46 105 q-46 46 -132 71 q-2 4 -2 12 q0 47 58.5 102.5 q58.5 55.5 107.5 55.5 q72 0 134.5 -65.5 q62.5 -65.5 62.5 -162.5 q0 -135 -109 -248.5 q-109 -113.5 -252 -160.5 l-27 51 Z" /><glyph glyph-name="bullet" unicode="&#x2022;" d="M123 711 q0 104 72.5 177 q72.5 73 175.5 73 q104 0 177 -73 q73 -73 73 -177 q0 -102 -73 -175 q-73 -73 -177 -73 q-102 0 -175 73 q-73 73 -73 175 Z" /><glyph glyph-name="ellipsis" unicode="&#x2026;" d="M161 16 q-46 47 -46 113 q0 66 46 113 q46 47 111.5 47 q65.5 0 111.5 -47 q46 -47 46 -113 q0 -66 -46 -113 q-46 -47 -111.5 -47 q-65.5 0 -111.5 47 ZM863 16 q-46 47 -46 113 q0 66 46 113 q46 47 111.5 47 q65.5 0 112 -47 q46.5 -47 46.5 -113 q0 -66 -46.5 -113 q-46.5 -47 -112 -47 q-65.5 0 -111.5 47 ZM1566 16 q-46 47 -46 113 q0 66 46 113 q46 47 111.5 47 q65.5 0 111.5 -47 q46 -47 46 -113 q0 -66 -46 -113 q-46 -47 -111.5 -47 q-65.5 0 -111.5 47 Z" /><glyph glyph-name="uni202F" unicode="&#x202f;" d="" /><glyph glyph-name="guilsinglleft" unicode="&#x2039;" d="M78 727 l487 578 l68 0 l-293 -566 l0 -24 l293 -565 l-68 0 l-487 577 Z" /><glyph glyph-name="guilsinglright" unicode="&#x203a;" d="M96 150 l291 565 l0 24 l-291 566 l66 0 l487 -578 l-487 -577 l-66 0 Z" /><glyph glyph-name="uni205F" unicode="&#x205f;" d="" /><glyph glyph-name="Euro" unicode="&#x20ac;" d="M18 543 l0 80 l140 0 q-2 27 -2 84 q0 80 8 143 l-146 0 l0 80 l158 0 q47 242 186.5 388 q139.5 146 356.5 146 q178 0 287 -73 l135 47 l-15 -480 l-65 0 l-14 64 q-23 100 -40.5 155.5 q-17.5 55.5 -52 108.5 q-34.5 53 -89 75.5 q-54.5 22.5 -136.5 22.5 q-139 0 -234.5 -108.5 q-95.5 -108.5 -121.5 -345.5 l461 0 l0 -80 l-467 0 q-2 -33 -2 -105 q0 -45 4 -122 l465 0 l0 -80 l-455 0 q33 -207 133 -319.5 q100 -112.5 238 -112.5 q125 0 217 63.5 q92 63.5 163 220.5 l48 -30 q-39 -184 -161 -290 q-122 -106 -288 -106 q-246 0 -387 158 q-141 158 -176 416 l-148 0 Z" /><glyph glyph-name="trademark" unicode="&#x2122;" d="M127 1241 l2 229 q113 -12 172 -12 l217 -2 l213 2 l172 12 l2 -229 l-57 0 l-12 62 q-18 88 -88 88 l-160 0 l0 -598 q0 -25 10 -35 q10 -10 39 -15 l78 -10 l0 -57 l-199 4 l-197 -4 l0 57 l74 10 q29 4 40 14.5 q11 10.5 11 35.5 l0 598 l-159 0 q-70 0 -88 -88 l-13 -62 l-57 0 ZM993 676 l0 57 l54 10 q29 4 39 14.5 q10 10.5 10 35.5 l10 553 q0 25 -10.5 35 q-10.5 10 -38.5 16 l-56 10 l0 57 l177 -6 l139 6 l219 -583 l193 546 l0 37 l147 -6 l160 6 l0 -57 l-58 -10 q-29 -6 -39 -16.5 q-10 -10.5 -10 -34.5 l15 -553 q0 -25 10 -35 q10 -10 39 -15 l55 -10 l0 -57 l-176 4 l-178 -4 l0 57 l55 10 q29 4 40 14.5 q11 10.5 11 35.5 l-12 577 l-254 -696 l-76 0 l-268 696 l0 -577 q0 -25 11 -35 q11 -10 40 -15 l55 -10 l0 -57 l-149 4 l-154 -4 Z" /><glyph glyph-name="uniE000" unicode="&#xe000;" d="M0 975 l975 0 l0 -975 l-975 0 l0 975 Z" /><glyph glyph-name="uniFB01" unicode="&#xfb01;" d="M63 -10 l0 59 l64 14 q59 14 79.5 34 q20.5 20 20.5 65 l0 731 l-155 0 l0 70 l155 0 q0 158 47.5 276.5 q47.5 118.5 125 184 q77.5 65.5 165.5 97 q88 31.5 185 31.5 q68 0 136 -24.5 q68 -24.5 68 -65.5 q0 -33 -49 -84 q-49 -51 -96 -51 q-2 0 -25.5 31 q-23.5 31 -65.5 60.5 q-42 29.5 -89 29.5 q-115 0 -170 -105 q-53 -100 -53 -382 l315 10 q55 2 109.5 12 q54.5 10 82.5 21 l27 10 l74 0 q-6 -150 -6 -348 l0 -504 q0 -47 20.5 -65.5 q20.5 -18.5 79.5 -33.5 l61 -14 l0 -59 l-249 10 l-252 -10 l0 59 l61 14 q59 14 79.5 34 q20.5 20 20.5 65 l0 704 l-423 29 l0 -721 q0 -49 18 -71.5 q18 -22.5 74 -32.5 l108 -21 l0 -59 l-291 10 l-252 -10 Z" /><glyph glyph-name="uniFB02" unicode="&#xfb02;" d="M63 -10 l0 59 l64 14 q59 14 79.5 34 q20.5 20 20.5 65 l0 731 l-155 0 l0 70 l155 0 q0 158 46 276.5 q46 118.5 123 184 q77 65.5 164 97 q87 31.5 183 31.5 q119 0 183 -47 l24 21 l64 0 q-6 -281 -6 -453 l0 -911 q0 -47 20.5 -66.5 q20.5 -19.5 79.5 -32.5 l72 -14 l0 -59 l-260 10 l-254 -10 l0 59 l63 14 q59 12 79.5 32 q20.5 20 20.5 67 l0 1165 q0 43 -62 82 q-62 39 -138 39 q-115 0 -170 -105 q-53 -100 -53 -382 l241 14 l-16 -115 l-225 35 l0 -721 q0 -49 18 -71.5 q18 -22.5 74 -32.5 l108 -21 l0 -59 l-291 10 l-252 -10 Z" /><glyph glyph-name="uniFB03" unicode="&#xfb03;" d="M63 -10 l0 59 l64 14 q59 14 79.5 34 q20.5 20 20.5 65 l0 731 l-155 0 l0 70 l155 0 q0 133 38 235 q38 102 101.5 160.5 q63.5 58.5 136 88.5 q72.5 30 150.5 30 q68 0 125.5 -15.5 q57.5 -15.5 57.5 -46.5 q0 -35 -39 -84 q-39 -49 -84 -49 q-2 0 -21.5 24.5 q-19.5 24.5 -55.5 49 q-36 24.5 -75 24.5 q-102 0 -137 -137 q-18 -72 -18 -280 l423 0 q0 158 47.5 276.5 q47.5 118.5 125 184 q77.5 65.5 165.5 97 q88 31.5 185 31.5 q68 0 136 -24.5 q68 -24.5 68 -65.5 q0 -33 -49 -84 q-49 -51 -96 -51 q-2 0 -25.5 31 q-23.5 31 -65.5 60.5 q-42 29.5 -89 29.5 q-115 0 -170 -105 q-53 -100 -53 -382 l315 10 q55 0 109.5 10 q54.5 10 83.5 23 l26 10 l74 0 q-6 -150 -6 -348 l0 -504 q0 -45 20.5 -64.5 q20.5 -19.5 79.5 -34.5 l62 -14 l0 -59 l-250 10 l-252 -10 l0 59 l61 14 q59 14 80 34 q21 20 21 65 l0 704 l-424 29 l0 -721 q0 -49 19.5 -71.5 q19.5 -22.5 72.5 -32.5 l110 -21 l0 -59 l-292 10 l-250 -10 l0 59 l61 14 q59 14 79.5 34 q20.5 20 20.5 65 l0 731 l-423 0 l0 -719 q0 -49 18 -71.5 q18 -22.5 74 -32.5 l108 -21 l0 -59 l-291 10 l-252 -10 Z" /><glyph glyph-name="uniFB04" unicode="&#xfb04;" d="M63 -10 l0 59 l64 14 q59 14 79.5 34 q20.5 20 20.5 65 l0 731 l-155 0 l0 70 l155 0 q0 133 38 235 q38 102 101.5 160.5 q63.5 58.5 136 88.5 q72.5 30 150.5 30 q68 0 125.5 -15.5 q57.5 -15.5 57.5 -46.5 q0 -35 -39 -84 q-39 -49 -84 -49 q-2 0 -21.5 24.5 q-19.5 24.5 -55.5 49 q-36 24.5 -75 24.5 q-102 0 -137 -137 q-18 -72 -18 -280 l423 0 q0 158 46.5 276.5 q46.5 118.5 123 184 q76.5 65.5 163.5 97 q87 31.5 184 31.5 q119 0 182 -47 l24 21 l64 0 q-6 -281 -6 -453 l0 -911 q0 -47 20.5 -66.5 q20.5 -19.5 79.5 -32.5 l72 -14 l0 -59 l-260 10 l-254 -10 l0 59 l63 14 q59 12 80 32 q21 20 21 67 l0 1165 q0 43 -62.5 82 q-62.5 39 -138.5 39 q-115 0 -170 -105 q-53 -100 -53 -382 l241 14 l-16 -115 l-225 35 l0 -721 q0 -49 18 -71.5 q18 -22.5 74 -32.5 l108 -21 l0 -59 l-290 10 l-252 -10 l0 59 l63 14 q59 14 79.5 34 q20.5 20 20.5 65 l0 731 l-423 0 l0 -719 q0 -49 18 -71.5 q18 -22.5 74 -32.5 l108 -21 l0 -59 l-291 10 l-252 -10 Z" /></font>
</defs>
</svg>
