<?xml version="1.0" standalone="no"?><!DOCTYPE svg PUBLIC "-//W3C//DTD SVG 1.1//EN" "http://www.w3.org/Graphics/SVG/1.1/DTD/svg11.dtd" ><svg xmlns="http://www.w3.org/2000/svg"><metadata></metadata><defs><font id="H&FJ: Tungsten Semibold: 1.210 " horiz-adv-x="694"><font-face font-family="Tungsten Semibold" font-weight="373" font-stretch="normal" units-per-em="1000" panose-1="0 0 0 0 0 0 0 0 0 0" ascent="800" descent="-200" x-height="0" bbox="-25 -221 644 874" underline-thickness="50" underline-position="-75" unicode-range="U+0020-fb04" /><missing-glyph horiz-adv-x="500" d="M0 -200 l500 0 l0 1000 l-500 0 l0 -1000 ZM71 750 l358 0 l-179 -390 l-179 390 ZM50 -76 l0 752 l172 -376 l-172 -376 ZM450 676 l0 -752 l-172 376 l172 376 ZM250 240 l179 -390 l-358 0 l179 390 Z" /><glyph glyph-name="" unicode="a" d="M254 701 l-142 0 l-100 -701 l99 0 l13 110 l111 0 l14 -110 l106 0 l-101 701 ZM179 559 l44 -354 l-87 0 l43 354 Z" /><glyph glyph-name="" unicode="b" d="M276 360 q29 10 44 36 q15 25 15 71 l0 103 q0 130 -130 130 l-173 0 l0 -700 l175 0 q130 0 130 130 l0 129 q0 42 -15 67 q-15 24 -46 34 l0 0 ZM229 566 l0 -120 q0 -22 -11 -33 q-11 -11 -33 -11 l-47 0 l0 204 l51 0 q40 0 40 -40 l0 0 ZM138 311 l49 0 q22 0 33 -11 q11 -11 11 -33 l0 -133 q0 -40 -40 -40 l-53 0 l0 217 Z" /><glyph glyph-name="" unicode="c" d="M238 287 l0 -158 q0 -21 -10 -31 q-10 -10 -30 -10 l-20 0 q-21 0 -31 10 q-10 10 -10 31 l0 442 q0 21 10 31 q10 10 31 10 l18 0 q20 0 30 -10 q10 -10 10 -31 l0 -137 l105 0 l0 143 q0 65 -32 97 q-32 32 -97 32 l-52 0 q-130 0 -130 -130 l0 -452 q0 -130 130 -130 l53 0 q130 0 130 130 l0 163 l-105 0 Z" /><glyph glyph-name="" unicode="d" d="M32 0 l161 0 q78 0 116 38 q37 38 37 115 l0 394 q0 77 -37 115 q-38 38 -116 38 l-161 0 l0 -700 ZM139 606 l39 0 q31 0 46 -15 q15 -16 15 -47 l0 -388 q0 -31 -15 -47 q-15 -15 -46 -15 l-39 0 l0 512 Z" /><glyph glyph-name="" unicode="e" d="M32 700 l0 -700 l240 0 l0 97 l-133 0 l0 211 l126 0 l0 97 l-126 0 l0 198 l131 0 l0 97 l-238 0 Z" /><glyph glyph-name="" unicode="f" d="M32 700 l0 -700 l107 0 l0 304 l121 0 l0 97 l-121 0 l0 202 l126 0 l0 97 l-233 0 Z" /><glyph glyph-name="" unicode="g" d="M243 290 l0 -161 q0 -21 -10 -31 q-10 -10 -31 -10 l-24 0 q-21 0 -31 10 q-10 10 -10 31 l0 442 q0 21 10 31 q10 10 31 10 l22 0 q20 0 30 -10 q10 -10 10 -31 l0 -107 l105 0 l0 113 q0 65 -32 97 q-32 32 -97 32 l-56 0 q-130 0 -130 -130 l0 -452 q0 -130 130 -130 l57 0 q130 0 130 130 l0 258 l-160 0 l0 -92 l56 0 Z" /><glyph glyph-name="" unicode="h" d="M139 405 l0 295 l-107 0 l0 -700 l107 0 l0 308 l103 0 l0 -308 l107 0 l0 700 l-107 0 l0 -295 l-103 0 Z" /><glyph glyph-name="" unicode="i" d="M140 700 l-107 0 l0 -700 l107 0 l0 700 Z" /><glyph glyph-name="" unicode="j" d="M211 700 l-107 0 l0 -562 q0 -21 -10 -31 q-10 -10 -31 -10 l-47 0 l0 -97 l65 0 q130 0 130 130 l0 570 Z" /><glyph glyph-name="" unicode="k" d="M358 0 l-116 356 l120 344 l-112 0 l-111 -338 l0 338 l-107 0 l0 -700 l107 0 l0 343 l104 -343 l115 0 Z" /><glyph glyph-name="" unicode="l" d="M32 700 l0 -700 l225 0 l0 97 l-118 0 l0 603 l-107 0 Z" /><glyph glyph-name="" unicode="m" d="M328 700 l-69 -509 l-67 509 l-160 0 l0 -700 l92 0 l0 539 l77 -539 l105 0 l76 532 l0 -532 l105 0 l0 700 l-159 0 Z" /><glyph glyph-name="" unicode="n" d="M352 0 l0 700 l-96 0 l0 -315 l1 -117 l-100 432 l-125 0 l0 -700 l96 0 l0 348 l-1 123 l109 -471 l116 0 Z" /><glyph glyph-name="" unicode="o" d="M347 124 l0 452 q0 130 -130 130 l-57 0 q-130 0 -130 -130 l0 -452 q0 -130 130 -130 l57 0 q130 0 130 130 l0 0 ZM240 571 l0 -442 q0 -21 -10 -31 q-10 -10 -30 -10 l-22 0 q-21 0 -31 10 q-10 10 -10 31 l0 442 q0 21 10 31 q10 10 31 10 l22 0 q20 0 30 -10 q10 -10 10 -31 l0 0 Z" /><glyph glyph-name="" unicode="p" d="M139 254 l61 0 q130 0 130 130 l0 186 q0 130 -130 130 l-168 0 l0 -700 l107 0 l0 254 ZM223 565 l0 -176 q0 -21 -10 -31 q-10 -10 -30 -10 l-44 0 l0 258 l44 0 q20 0 30 -10 q10 -10 10 -31 l0 0 Z" /><glyph glyph-name="" unicode="q" d="M347 576 q0 130 -130 130 l-57 0 q-130 0 -130 -130 l0 -452 q0 -130 130 -130 l24 0 l129 -79 l52 81 l-71 29 q26 13 40 41 q13 27 13 69 l0 441 ZM240 129 q0 -21 -10 -31 q-10 -10 -30 -10 l-22 0 q-21 0 -31 10 q-10 10 -10 31 l0 442 q0 21 10 31 q10 10 31 10 l22 0 q20 0 30 -10 q10 -10 10 -31 l0 -442 Z" /><glyph glyph-name="" unicode="r" d="M277 330 q29 11 45 37 q16 25 16 71 l0 132 q0 130 -130 130 l-176 0 l0 -700 l107 0 l0 281 l48 0 q23 0 34 -11 q11 -11 11 -34 l0 -236 l107 0 l0 238 q0 39 -14 61 q-15 22 -48 31 l0 0 ZM231 565 l0 -148 q0 -22 -11 -32 q-11 -11 -33 -11 l-48 0 l0 231 l52 0 q40 0 40 -40 l0 0 Z" /><glyph glyph-name="" unicode="s" d="M273 359 l-108 79 q-15 10 -22 23 q-8 13 -8 34 l0 78 q0 40 40 40 l13 0 q40 0 40 -40 l0 -123 l105 0 l0 127 q0 129 -129 129 l-45 0 q-130 0 -130 -130 l0 -96 q-1 -40 13 -68 q14 -28 49 -53 l108 -79 q15 -11 23 -23 q7 -13 7 -34 l0 -96 q0 -20 -10 -30 q-10 -10 -31 -10 l-14 0 q-21 0 -31 10 q-10 10 -10 30 l0 144 l-104 0 l0 -148 q0 -64 32 -97 q32 -32 97 -32 l47 0 q130 0 130 130 l0 114 q1 42 -13 69 q-14 27 -49 52 l0 0 Z" /><glyph glyph-name="" unicode="t" d="M213 0 l0 603 l96 0 l0 97 l-299 0 l0 -97 l96 0 l0 -603 l107 0 Z" /><glyph glyph-name="" unicode="u" d="M343 700 l-107 0 l0 -571 q0 -21 -10 -31 q-10 -10 -30 -10 l-17 0 q-21 0 -31 10 q-10 10 -10 31 l0 571 l-107 0 l0 -576 q0 -130 130 -130 l52 0 q130 0 130 130 l0 576 Z" /><glyph glyph-name="" unicode="v" d="M246 -1 l104 701 l-102 0 l-65 -522 l-63 522 l-108 0 l103 -701 l131 0 Z" /><glyph glyph-name="" unicode="w" d="M332 700 l-103 0 l-54 -499 l-50 499 l-108 0 l85 -700 l127 0 l46 422 l48 -422 l126 0 l85 700 l-98 0 l-50 -499 l-54 499 Z" /><glyph glyph-name="" unicode="x" d="M346 700 l-103 0 l-60 -250 l-58 250 l-110 0 l96 -355 l-98 -345 l103 0 l63 251 l59 -251 l110 0 l-98 354 l96 346 Z" /><glyph glyph-name="" unicode="y" d="M342 700 l-103 0 l-64 -298 l-60 298 l-110 0 l115 -462 l0 -238 l107 0 l0 249 l115 451 Z" /><glyph glyph-name="" unicode="z" d="M175 604 l-156 -499 l0 -105 l260 0 l0 96 l-155 0 l155 499 l0 105 l-255 0 l0 -96 l151 0 Z" /><glyph glyph-name="" unicode="a" d="M24 87 q0 -45 22 -69 q22 -24 65 -24 l1 0 q31 1 53 12 q23 12 41 29 l0 -35 l100 0 l0 433 q0 122 -122 122 l-32 0 q-122 0 -122 -122 l0 -71 l95 0 l0 68 q0 18 10 28 q9 9 27 9 l7 0 q19 0 28 -9 q9 -10 9 -28 l0 -85 l-105 -36 q-42 -13 -60 -38 q-18 -25 -17 -73 l0 -111 ZM154 85 q-16 0 -24 8 q-8 7 -8 23 l0 78 q0 18 6 28 q7 10 23 17 l55 21 l0 -159 q-13 -8 -26 -12 q-13 -4 -26 -4 l0 0 Z" /><glyph glyph-name="" unicode="b" d="M29 0 l100 0 l0 33 q17 -16 41 -27 q24 -11 55 -12 l1 0 q46 0 70 28 q24 27 24 75 l0 356 q0 48 -24 75 q-24 27 -70 27 l-1 0 q-31 -1 -55 -13 q-23 -13 -40 -30 l0 198 l-101 0 l0 -710 ZM130 445 q12 8 25 13 q13 5 28 5 q18 0 27 -8 q9 -8 9 -26 l0 -309 q0 -18 -9 -26 q-9 -8 -27 -8 q-15 0 -28 5 q-13 5 -25 13 l0 341 Z" /><glyph glyph-name="" unicode="c" d="M213 334 l99 0 l0 100 q0 61 -30 91 q-31 30 -91 30 l-42 0 q-122 0 -122 -122 l0 -317 q0 -122 122 -122 l42 0 q122 0 122 122 l0 118 l-99 0 l0 -112 q0 -37 -37 -37 l-13 0 q-36 0 -36 37 l0 305 q0 37 36 37 l12 0 q37 0 37 -37 l0 -93 Z" /><glyph glyph-name="" unicode="d" d="M318 710 l-101 0 l0 -194 q-17 16 -40 27 q-23 11 -54 12 l-1 0 q-47 0 -71 -27 q-24 -27 -24 -75 l0 -356 q0 -48 24 -75 q24 -28 71 -28 l1 0 q31 1 55 13 q23 13 40 30 l0 -37 l100 0 l0 710 ZM217 104 q-11 -8 -25 -13 q-13 -5 -28 -5 q-18 0 -27 8 q-9 8 -9 26 l0 309 q0 18 9 26 q9 8 27 8 q15 0 28 -5 q14 -5 25 -13 l0 -341 Z" /><glyph glyph-name="" unicode="e" d="M310 235 l0 198 q0 122 -122 122 l-39 0 q-122 0 -122 -122 l0 -317 q0 -122 122 -122 l39 0 q122 0 122 122 l0 63 l-97 0 l0 -58 q0 -37 -37 -37 l-13 0 q-36 0 -36 37 l0 114 l183 0 ZM127 429 q0 37 36 37 l11 0 q37 0 37 -37 l0 -108 l-84 0 l0 108 Z" /><glyph glyph-name="" unicode="f" d="M47 549 l-31 0 l0 -88 l31 0 l0 -461 l101 0 l0 461 l61 0 l0 88 l-61 0 l0 46 q0 28 28 28 l36 0 l0 87 l-56 0 q-109 0 -109 -109 l0 -52 Z" /><glyph glyph-name="" unicode="g" d="M318 549 l-100 0 l0 -33 q-17 16 -40 27 q-24 11 -55 12 l-1 0 q-47 0 -71 -27 q-24 -27 -24 -75 l0 -297 q0 -48 24 -75 q24 -28 71 -28 l1 0 q29 0 52 11 q24 10 43 27 l0 -92 q0 -16 -8 -24 q-7 -9 -23 -9 l-35 0 q-16 0 -23 9 q-8 8 -8 24 l0 24 l-92 0 l0 -32 q0 -54 26 -79 q26 -26 80 -26 l65 0 q60 0 89 29 q29 28 29 88 l0 546 ZM217 160 q-11 -8 -25 -12 q-13 -5 -28 -5 q-18 0 -27 8 q-9 8 -9 26 l0 252 q0 18 9 26 q9 8 27 8 q15 0 28 -5 q14 -5 25 -13 l0 -285 Z" /><glyph glyph-name="" unicode="h" d="M29 0 l101 0 l0 446 q14 8 27 13 q13 4 27 4 q17 0 25 -8 q8 -8 8 -24 l0 -431 l101 0 l0 461 q0 46 -22 70 q-22 24 -66 24 l-5 0 q-31 0 -53 -12 q-23 -12 -42 -30 l0 197 l-101 0 l0 -710 Z" /><glyph glyph-name="" unicode="i" d="M29 595 l105 0 l0 99 l-105 0 l0 -99 ZM31 0 l101 0 l0 549 l-101 0 l0 -549 Z" /><glyph glyph-name="" unicode="j" d="M30 595 l105 0 l0 99 l-105 0 l0 -99 ZM133 549 l-101 0 l0 -548 q0 -14 -7 -21 q-7 -7 -21 -7 l-9 0 l0 -85 l34 0 q52 0 78 26 q26 26 26 79 l0 556 Z" /><glyph glyph-name="" unicode="k" d="M223 549 l-93 -267 l0 428 l-101 0 l0 -710 l101 0 l0 273 l87 -273 l108 0 l-98 281 l102 268 l-106 0 Z" /><glyph glyph-name="" unicode="l" d="M31 0 l101 0 l0 710 l-101 0 l0 -710 Z" /><glyph glyph-name="" unicode="m" d="M315 446 q13 8 26 13 q13 4 26 4 q31 0 31 -31 l0 -432 l101 0 l0 462 q0 45 -22 69 q-23 24 -65 24 l-3 0 q-32 0 -57 -13 q-25 -12 -46 -33 q-19 46 -78 46 l-4 0 q-30 0 -53 -12 q-23 -12 -42 -30 l0 36 l-100 0 l0 -549 l101 0 l0 446 q14 8 27 13 q13 4 26 4 q16 0 23 -8 q7 -7 7 -23 l0 -432 l102 0 l0 446 Z" /><glyph glyph-name="" unicode="n" d="M29 0 l101 0 l0 446 q14 8 27 13 q13 4 27 4 q17 0 25 -8 q8 -8 8 -24 l0 -431 l101 0 l0 461 q0 46 -22 70 q-22 24 -66 24 l-5 0 q-31 0 -54 -12 q-23 -12 -42 -30 l0 36 l-100 0 l0 -549 Z" /><glyph glyph-name="" unicode="o" d="M196 -6 q122 0 122 122 l0 317 q0 122 -122 122 l-47 0 q-122 0 -122 -122 l0 -317 q0 -122 122 -122 l47 0 ZM180 464 q37 0 37 -37 l0 -305 q0 -37 -37 -37 l-16 0 q-36 0 -36 37 l0 305 q0 37 36 37 l16 0 Z" /><glyph glyph-name="" unicode="p" d="M320 97 l0 356 q0 48 -24 75 q-24 27 -70 27 l-1 0 q-31 -1 -55 -13 q-24 -13 -41 -30 l0 37 l-100 0 l0 -659 l101 0 l0 143 q17 -16 40 -27 q24 -11 55 -12 l1 0 q46 0 70 28 q24 27 24 75 l0 0 ZM219 429 l0 -309 q0 -18 -9 -26 q-9 -8 -27 -8 q-15 0 -28 5 q-13 5 -25 13 l0 341 q12 8 25 13 q13 5 28 5 q18 0 27 -8 q9 -8 9 -26 l0 0 Z" /><glyph glyph-name="" unicode="q" d="M318 549 l-100 0 l0 -33 q-17 16 -40 27 q-24 11 -55 12 l-1 0 q-47 0 -71 -27 q-24 -27 -24 -75 l0 -356 q0 -48 24 -75 q24 -28 71 -28 l1 0 q31 1 54 13 q23 13 40 30 l0 -147 l101 0 l0 659 ZM217 104 q-11 -8 -25 -13 q-13 -5 -28 -5 q-18 0 -27 8 q-9 8 -9 26 l0 309 q0 18 9 26 q9 8 27 8 q15 0 28 -5 q14 -5 25 -13 l0 -341 Z" /><glyph glyph-name="" unicode="r" d="M29 0 l101 0 l0 410 q16 14 36 22 q20 8 48 10 l0 112 q-29 0 -49 -15 q-19 -16 -36 -49 l0 59 l-100 0 l0 -549 Z" /><glyph glyph-name="" unicode="s" d="M206 355 l98 0 l0 79 q0 60 -30 91 q-30 30 -91 30 l-34 0 q-122 0 -122 -122 l0 -63 q0 -38 15 -61 q15 -24 46 -43 l96 -59 q13 -8 18 -18 q6 -10 6 -24 l0 -47 q0 -36 -36 -36 l-13 0 q-35 0 -35 36 l0 81 l-98 0 l0 -84 q0 -60 30 -90 q30 -31 91 -31 l36 0 q122 0 122 122 l0 66 q0 39 -15 62 q-15 23 -47 42 l-95 60 q-13 8 -19 18 q-5 9 -5 24 l0 43 q0 36 35 36 l12 0 q35 0 35 -36 l0 -76 Z" /><glyph glyph-name="" unicode="t" d="M151 461 l53 0 l0 88 l-53 0 l0 90 l-101 0 l0 -90 l-36 0 l0 -88 l36 0 l0 -461 l101 0 l0 461 Z" /><glyph glyph-name="" unicode="u" d="M317 549 l-101 0 l0 -446 q-13 -8 -26 -13 q-14 -4 -27 -4 q-17 0 -26 8 q-8 8 -8 24 l0 431 l-101 0 l0 -461 q0 -46 22 -70 q23 -24 67 -24 l4 0 q31 0 54 12 q24 12 42 30 l0 -36 l100 0 l0 549 Z" /><glyph glyph-name="" unicode="v" d="M226 0 l91 549 l-96 0 l-54 -390 l-54 390 l-102 0 l92 -549 l123 0 Z" /><glyph glyph-name="" unicode="w" d="M290 549 l-91 0 l-48 -359 l-39 359 l-100 0 l82 -549 l103 0 l45 323 l44 -323 l103 0 l82 549 l-93 0 l-40 -358 l-48 358 Z" /><glyph glyph-name="" unicode="x" d="M102 0 l54 182 l50 -182 l106 0 l-90 283 l88 266 l-99 0 l-52 -181 l-48 181 l-106 0 l88 -283 l-90 -266 l99 0 Z" /><glyph glyph-name="" unicode="y" d="M181 -110 l138 659 l-97 0 l-59 -334 l-53 334 l-101 0 l104 -528 l-29 -131 l97 0 Z" /><glyph glyph-name="" unicode="z" d="M157 461 l-141 -373 l0 -88 l245 0 l0 88 l-142 0 l142 373 l0 88 l-240 0 l0 -88 l136 0 Z" /><glyph glyph-name="" unicode="á" d="M355 0 l-101 701 l-142 0 l-100 -701 l99 0 l13 110 l111 0 l14 -110 l106 0 ZM179 559 l44 -354 l-87 0 l43 354 ZM147 741 l71 0 l73 89 l-101 0 l-43 -89 Z" /><glyph glyph-name="" unicode="á" d="M24 87 q0 -45 22 -69 q22 -24 65 -24 l1 0 q31 1 53 12 q23 12 41 29 l0 -35 l100 0 l0 433 q0 122 -122 122 l-32 0 q-122 0 -122 -122 l0 -71 l95 0 l0 68 q0 18 10 28 q9 9 27 9 l7 0 q19 0 28 -9 q9 -10 9 -28 l0 -85 l-105 -36 q-42 -13 -60 -38 q-18 -25 -17 -73 l0 -111 ZM154 85 q-16 0 -24 8 q-8 7 -8 23 l0 78 q0 18 6 28 q7 10 23 17 l55 21 l0 -159 q-13 -8 -26 -12 q-13 -4 -26 -4 l0 0 ZM135 590 l71 0 l67 109 l-101 0 l-37 -109 Z" /><glyph glyph-name="" unicode="&#x102;" d="M254 701 l-142 0 l-100 -701 l99 0 l13 110 l111 0 l14 -110 l106 0 l-101 701 ZM179 559 l44 -354 l-87 0 l43 354 ZM84 816 q0 -40 20 -59 q20 -19 63 -19 l34 0 q43 0 63 19 q20 19 20 59 l0 18 l-66 0 l0 -12 q0 -13 -7 -18 q-7 -6 -21 -6 l-12 0 q-14 0 -21 6 q-7 5 -7 18 l0 12 l-66 0 l0 -18 Z" /><glyph glyph-name="" unicode="&#x103;" d="M24 87 q0 -45 22 -69 q22 -24 65 -24 l1 0 q31 1 53 12 q23 12 41 29 l0 -35 l100 0 l0 433 q0 122 -122 122 l-32 0 q-122 0 -122 -122 l0 -71 l95 0 l0 68 q0 18 10 28 q9 9 27 9 l7 0 q19 0 28 -9 q9 -10 9 -28 l0 -85 l-105 -36 q-42 -13 -60 -38 q-18 -25 -17 -73 l0 -111 ZM74 672 q0 -44 20 -65 q20 -20 63 -20 l30 0 q43 0 63 20 q20 21 20 65 l0 27 l-66 0 l0 -25 q0 -27 -28 -27 l-8 0 q-28 0 -28 27 l0 25 l-66 0 l0 -27 ZM154 85 q-16 0 -24 8 q-8 7 -8 23 l0 78 q0 18 6 28 q7 10 23 17 l55 21 l0 -159 q-13 -8 -26 -12 q-13 -4 -26 -4 l0 0 Z" /><glyph glyph-name="" unicode="â" d="M355 0 l-101 701 l-142 0 l-100 -701 l99 0 l13 110 l111 0 l14 -110 l106 0 ZM179 559 l44 -354 l-87 0 l43 354 ZM225 838 l-82 0 l-70 -97 l66 0 l45 39 l45 -39 l66 0 l-70 97 Z" /><glyph glyph-name="" unicode="â" d="M24 87 q0 -45 22 -69 q22 -24 65 -24 l1 0 q31 1 53 12 q23 12 41 29 l0 -35 l100 0 l0 433 q0 122 -122 122 l-32 0 q-122 0 -122 -122 l0 -71 l95 0 l0 68 q0 18 10 28 q9 9 27 9 l7 0 q19 0 28 -9 q9 -10 9 -28 l0 -85 l-105 -36 q-42 -13 -60 -38 q-18 -25 -17 -73 l0 -111 ZM213 699 l-82 0 l-66 -109 l66 0 l41 48 l41 -48 l66 0 l-66 109 ZM154 85 q-16 0 -24 8 q-8 7 -8 23 l0 78 q0 18 6 28 q7 10 23 17 l55 21 l0 -159 q-13 -8 -26 -12 q-13 -4 -26 -4 l0 0 Z" /><glyph glyph-name="" unicode="ä" d="M355 0 l-101 701 l-142 0 l-100 -701 l99 0 l13 110 l111 0 l14 -110 l106 0 ZM179 559 l44 -354 l-87 0 l43 354 ZM204 741 l85 0 l0 82 l-85 0 l0 -82 ZM164 823 l-85 0 l0 -82 l85 0 l0 82 Z" /><glyph glyph-name="" unicode="ä" d="M24 87 q0 -45 22 -69 q22 -24 65 -24 l1 0 q31 1 53 12 q23 12 41 29 l0 -35 l100 0 l0 433 q0 122 -122 122 l-32 0 q-122 0 -122 -122 l0 -71 l95 0 l0 68 q0 18 10 28 q9 9 27 9 l7 0 q19 0 28 -9 q9 -10 9 -28 l0 -85 l-105 -36 q-42 -13 -60 -38 q-18 -25 -17 -73 l0 -111 ZM154 85 q-16 0 -24 8 q-8 7 -8 23 l0 78 q0 18 6 28 q7 10 23 17 l55 21 l0 -159 q-13 -8 -26 -12 q-13 -4 -26 -4 l0 0 ZM192 590 l83 0 l0 102 l-83 0 l0 -102 ZM152 692 l-83 0 l0 -102 l83 0 l0 102 Z" /><glyph glyph-name="" unicode="à" d="M254 701 l-142 0 l-100 -701 l99 0 l13 110 l111 0 l14 -110 l106 0 l-101 701 ZM179 559 l44 -354 l-87 0 l43 354 ZM178 830 l-103 0 l74 -89 l73 0 l-44 89 Z" /><glyph glyph-name="" unicode="à" d="M24 87 q0 -45 22 -69 q22 -24 65 -24 l1 0 q31 1 53 12 q23 12 41 29 l0 -35 l100 0 l0 433 q0 122 -122 122 l-32 0 q-122 0 -122 -122 l0 -71 l95 0 l0 68 q0 18 10 28 q9 9 27 9 l7 0 q19 0 28 -9 q9 -10 9 -28 l0 -85 l-105 -36 q-42 -13 -60 -38 q-18 -25 -17 -73 l0 -111 ZM154 85 q-16 0 -24 8 q-8 7 -8 23 l0 78 q0 18 6 28 q7 10 23 17 l55 21 l0 -159 q-13 -8 -26 -12 q-13 -4 -26 -4 l0 0 ZM172 699 l-101 0 l67 -109 l71 0 l-37 109 Z" /><glyph glyph-name="" unicode="&#x100;" d="M254 701 l-142 0 l-100 -701 l99 0 l13 110 l111 0 l14 -110 l106 0 l-101 701 ZM179 559 l44 -354 l-87 0 l43 354 ZM78 813 l0 -65 l212 0 l0 65 l-212 0 Z" /><glyph glyph-name="" unicode="&#x101;" d="M24 87 q0 -45 22 -69 q22 -24 65 -24 l1 0 q31 1 53 12 q23 12 41 29 l0 -35 l100 0 l0 433 q0 122 -122 122 l-32 0 q-122 0 -122 -122 l0 -71 l95 0 l0 68 q0 18 10 28 q9 9 27 9 l7 0 q19 0 28 -9 q9 -10 9 -28 l0 -85 l-105 -36 q-42 -13 -60 -38 q-18 -25 -17 -73 l0 -111 ZM66 672 l0 -75 l212 0 l0 75 l-212 0 ZM154 85 q-16 0 -24 8 q-8 7 -8 23 l0 78 q0 18 6 28 q7 10 23 17 l55 21 l0 -159 q-13 -8 -26 -12 q-13 -4 -26 -4 l0 0 Z" /><glyph glyph-name="" unicode="&#x104;" d="M254 701 l-142 0 l-100 -701 l99 0 l13 110 l111 0 l14 -110 l24 0 l-1 -2 q-10 -15 -15 -27 q-5 -12 -5 -25 l0 -6 q0 -23 12 -35 q12 -12 41 -12 l53 0 l0 57 l-26 0 q-6 0 -8 2 q-3 2 -3 7 q0 6 2 12 q3 6 8 15 l8 14 l16 0 l-101 701 ZM179 559 l44 -354 l-87 0 l43 354 Z" /><glyph glyph-name="" unicode="&#x105;" d="M24 87 q0 -45 22 -69 q22 -24 65 -24 l1 0 q31 1 53 12 q23 12 41 29 l0 -35 l20 0 l-1 -2 q-10 -15 -15 -27 q-5 -12 -5 -25 l0 -6 q0 -23 12 -35 q12 -12 41 -12 l53 0 l0 57 l-26 0 q-6 0 -8 2 q-3 2 -3 7 q0 6 2 12 q3 6 8 15 l8 14 l14 0 l0 433 q0 122 -122 122 l-32 0 q-122 0 -122 -122 l0 -71 l95 0 l0 68 q0 18 10 28 q9 9 27 9 l7 0 q19 0 28 -9 q9 -10 9 -28 l0 -85 l-105 -36 q-42 -13 -60 -38 q-18 -25 -17 -73 l0 -111 ZM154 85 q-16 0 -24 8 q-8 7 -8 23 l0 78 q0 18 6 28 q7 10 23 17 l55 21 l0 -159 q-13 -8 -26 -12 q-13 -4 -26 -4 l0 0 Z" /><glyph glyph-name="" unicode="å" d="M283 712 q0 24 -16 39 q-16 14 -48 14 l-73 0 q-33 0 -49 -14 q-16 -15 -16 -39 l0 -5 q0 -16 6 -27 q7 -12 20 -19 l-96 -662 l99 1 l13 110 l111 0 l14 -110 l106 0 l-96 661 q12 7 19 19 q6 11 6 27 l0 5 ZM179 563 l44 -358 l-88 0 l44 358 ZM257 706 q0 -14 -9 -22 q-10 -8 -31 -8 l-69 0 q-21 0 -31 8 q-10 8 -10 22 l0 6 q0 30 41 30 l69 0 q21 0 31 -7 q9 -8 9 -23 l0 -6 Z" /><glyph glyph-name="" unicode="å" d="M24 87 q0 -45 22 -69 q22 -24 65 -24 l1 0 q31 1 53 12 q23 12 41 29 l0 -35 l100 0 l0 433 q0 122 -122 122 l-32 0 q-122 0 -122 -122 l0 -71 l95 0 l0 68 q0 18 10 28 q9 9 27 9 l7 0 q19 0 28 -9 q9 -10 9 -28 l0 -85 l-105 -36 q-42 -13 -60 -38 q-18 -25 -17 -73 l0 -111 ZM258 647 q0 25 -15 40 q-16 15 -50 15 l-42 0 q-34 0 -50 -15 q-15 -15 -15 -40 l0 -6 q0 -25 15 -39 q16 -15 50 -15 l42 0 q34 0 50 15 q15 14 15 39 l0 6 ZM154 85 q-16 0 -24 8 q-8 7 -8 23 l0 78 q0 18 6 28 q7 10 23 17 l55 21 l0 -159 q-13 -8 -26 -12 q-13 -4 -26 -4 l0 0 ZM233 641 q0 -15 -10 -23 q-10 -9 -32 -9 l-37 0 q-23 0 -33 9 q-10 8 -10 23 l0 6 q0 16 10 24 q10 9 32 9 l38 0 q22 0 32 -9 q10 -8 10 -24 l0 -6 Z" /><glyph glyph-name="" unicode="&#x1fa;" d="M283 712 q0 24 -16 39 q-16 14 -48 14 l-73 0 q-33 0 -49 -14 q-16 -15 -16 -39 l0 -5 q0 -16 6 -27 q7 -12 20 -19 l-96 -662 l99 1 l13 110 l111 0 l14 -110 l106 0 l-96 661 q12 7 19 19 q6 11 6 27 l0 5 ZM179 563 l44 -358 l-88 0 l44 358 ZM257 706 q0 -14 -9 -22 q-10 -8 -31 -8 l-69 0 q-21 0 -31 8 q-10 8 -10 22 l0 6 q0 30 41 30 l69 0 q21 0 31 -7 q9 -8 9 -23 l0 -6 ZM146 785 l71 0 l73 89 l-101 0 l-43 -89 Z" /><glyph glyph-name="" unicode="&#x1fb;" d="M24 87 q0 -45 22 -69 q22 -24 65 -24 l1 0 q31 1 53 12 q23 12 41 29 l0 -35 l100 0 l0 433 q0 122 -122 122 l-32 0 q-122 0 -122 -122 l0 -71 l95 0 l0 68 q0 18 10 28 q9 9 27 9 l7 0 q19 0 28 -9 q9 -10 9 -28 l0 -85 l-105 -36 q-42 -13 -60 -38 q-18 -25 -17 -73 l0 -111 ZM253 647 q0 25 -15 40 q-16 15 -50 15 l-42 0 q-34 0 -50 -15 q-15 -15 -15 -40 l0 -6 q0 -25 15 -39 q16 -15 50 -15 l42 0 q34 0 50 15 q15 14 15 39 l0 6 ZM154 85 q-16 0 -24 8 q-8 7 -8 23 l0 78 q0 18 6 28 q7 10 23 17 l55 21 l0 -159 q-13 -8 -26 -12 q-13 -4 -26 -4 l0 0 ZM134 731 l71 0 l67 109 l-101 0 l-37 -109 ZM228 641 q0 -15 -10 -23 q-10 -9 -32 -9 l-37 0 q-23 0 -33 9 q-10 8 -10 23 l0 6 q0 16 10 24 q10 9 32 9 l38 0 q22 0 32 -9 q10 -8 10 -24 l0 -6 Z" /><glyph glyph-name="" unicode="ã" d="M355 0 l-101 701 l-142 0 l-100 -701 l99 0 l13 110 l111 0 l14 -110 l106 0 ZM119 840 q-48 0 -48 -51 l0 -48 l59 0 l0 25 q0 6 2 9 q2 3 8 3 q6 0 10 -1 q4 -2 12 -6 l32 -18 q11 -7 21 -10 q10 -2 25 -2 l9 0 q23 0 36 12 q12 13 12 38 l0 49 l-59 0 l0 -26 q0 -6 -2 -9 q-2 -3 -8 -3 q-6 0 -10 1 q-4 2 -12 6 l-31 19 q-11 7 -22 9 q-10 3 -25 3 l-9 0 ZM179 559 l44 -354 l-87 0 l43 354 Z" /><glyph glyph-name="" unicode="ã" d="M24 87 q0 -45 22 -69 q22 -24 65 -24 l1 0 q31 1 53 12 q23 12 41 29 l0 -35 l100 0 l0 433 q0 122 -122 122 l-32 0 q-122 0 -122 -122 l0 -71 l95 0 l0 68 q0 18 10 28 q9 9 27 9 l7 0 q19 0 28 -9 q9 -10 9 -28 l0 -85 l-105 -36 q-42 -13 -60 -38 q-18 -25 -17 -73 l0 -111 ZM109 699 q-48 0 -48 -51 l0 -58 l59 0 l0 32 q0 6 2 9 q2 3 8 3 q6 0 10 -2 q4 -3 12 -8 l28 -20 q12 -9 22 -11 q9 -3 25 -3 l8 0 q23 0 36 12 q12 13 12 38 l0 59 l-59 0 l0 -33 q0 -6 -2 -9 q-2 -3 -8 -3 q-6 0 -10 3 q-4 2 -12 8 l-27 19 q-12 9 -22 12 q-10 3 -26 3 l-8 0 ZM154 85 q-16 0 -24 8 q-8 7 -8 23 l0 78 q0 18 6 28 q7 10 23 17 l55 21 l0 -159 q-13 -8 -26 -12 q-13 -4 -26 -4 l0 0 Z" /><glyph glyph-name="" unicode="&#x106;" d="M238 287 l0 -158 q0 -21 -10 -31 q-10 -10 -30 -10 l-20 0 q-21 0 -31 10 q-10 10 -10 31 l0 442 q0 21 10 31 q10 10 31 10 l18 0 q20 0 30 -10 q10 -10 10 -31 l0 -137 l105 0 l0 143 q0 65 -32 97 q-32 32 -97 32 l-52 0 q-130 0 -130 -130 l0 -452 q0 -130 130 -130 l53 0 q130 0 130 130 l0 163 l-105 0 ZM150 741 l71 0 l73 89 l-101 0 l-43 -89 Z" /><glyph glyph-name="" unicode="&#x107;" d="M133 590 l71 0 l67 109 l-101 0 l-37 -109 ZM213 334 l99 0 l0 100 q0 61 -30 91 q-31 30 -91 30 l-42 0 q-122 0 -122 -122 l0 -317 q0 -122 122 -122 l42 0 q122 0 122 122 l0 118 l-99 0 l0 -112 q0 -37 -37 -37 l-13 0 q-36 0 -36 37 l0 305 q0 37 36 37 l12 0 q37 0 37 -37 l0 -93 Z" /><glyph glyph-name="" unicode="&#x10c;" d="M238 287 l0 -158 q0 -21 -10 -31 q-10 -10 -30 -10 l-20 0 q-21 0 -31 10 q-10 10 -10 31 l0 442 q0 21 10 31 q10 10 31 10 l18 0 q20 0 30 -10 q10 -10 10 -31 l0 -137 l105 0 l0 143 q0 65 -32 97 q-32 32 -97 32 l-52 0 q-130 0 -130 -130 l0 -452 q0 -130 130 -130 l53 0 q130 0 130 130 l0 163 l-105 0 ZM298 838 l-66 0 l-45 -39 l-45 39 l-66 0 l70 -97 l82 0 l70 97 Z" /><glyph glyph-name="" unicode="&#x10d;" d="M277 699 l-66 0 l-41 -48 l-41 48 l-66 0 l66 -109 l82 0 l66 109 ZM213 334 l99 0 l0 100 q0 61 -30 91 q-31 30 -91 30 l-42 0 q-122 0 -122 -122 l0 -317 q0 -122 122 -122 l42 0 q122 0 122 122 l0 118 l-99 0 l0 -112 q0 -37 -37 -37 l-13 0 q-36 0 -36 37 l0 305 q0 37 36 37 l12 0 q37 0 37 -37 l0 -93 Z" /><glyph glyph-name="" unicode="ç" d="M238 287 l0 -158 q0 -21 -10 -31 q-10 -10 -30 -10 l-20 0 q-21 0 -31 10 q-10 10 -10 31 l0 442 q0 21 10 31 q10 10 31 10 l18 0 q20 0 30 -10 q10 -10 10 -31 l0 -137 l105 0 l0 143 q0 65 -32 97 q-32 32 -97 32 l-52 0 q-130 0 -130 -130 l0 -452 q0 -65 32 -97 q32 -32 96 -33 l-42 -93 l89 0 l19 93 q59 3 89 35 q30 32 30 95 l0 163 l-105 0 Z" /><glyph glyph-name="" unicode="ç" d="M213 334 l99 0 l0 100 q0 61 -30 91 q-31 30 -91 30 l-42 0 q-122 0 -122 -122 l0 -317 q0 -116 111 -122 l-42 -93 l89 0 l19 94 q54 3 82 33 q27 30 27 88 l0 118 l-99 0 l0 -112 q0 -37 -37 -37 l-13 0 q-36 0 -36 37 l0 305 q0 37 36 37 l12 0 q37 0 37 -37 l0 -93 Z" /><glyph glyph-name="" unicode="&#x10a;" d="M232 819 l-90 0 l0 -78 l90 0 l0 78 ZM238 287 l0 -158 q0 -21 -10 -31 q-10 -10 -30 -10 l-20 0 q-21 0 -31 10 q-10 10 -10 31 l0 442 q0 21 10 31 q10 10 31 10 l18 0 q20 0 30 -10 q10 -10 10 -31 l0 -137 l105 0 l0 143 q0 65 -32 97 q-32 32 -97 32 l-52 0 q-130 0 -130 -130 l0 -452 q0 -130 130 -130 l53 0 q130 0 130 130 l0 163 l-105 0 Z" /><glyph glyph-name="" unicode="&#x10b;" d="M213 334 l99 0 l0 100 q0 61 -30 91 q-31 30 -91 30 l-42 0 q-122 0 -122 -122 l0 -317 q0 -122 122 -122 l42 0 q122 0 122 122 l0 118 l-99 0 l0 -112 q0 -37 -37 -37 l-13 0 q-36 0 -36 37 l0 305 q0 37 36 37 l12 0 q37 0 37 -37 l0 -93 ZM214 688 l-88 0 l0 -98 l88 0 l0 98 Z" /><glyph glyph-name="" unicode="&#x10e;" d="M293 838 l-66 0 l-45 -39 l-45 39 l-66 0 l70 -97 l82 0 l70 97 ZM32 0 l161 0 q78 0 116 38 q37 38 37 115 l0 394 q0 77 -37 115 q-38 38 -116 38 l-161 0 l0 -700 ZM139 606 l39 0 q31 0 46 -15 q15 -16 15 -47 l0 -388 q0 -31 -15 -47 q-15 -15 -46 -15 l-39 0 l0 512 Z" /><glyph glyph-name="" unicode="&#x10f;" d="M318 710 l-101 0 l0 -194 q-17 16 -40 27 q-23 11 -54 12 l-1 0 q-47 0 -71 -27 q-24 -27 -24 -75 l0 -356 q0 -48 24 -75 q24 -28 71 -28 l1 0 q31 1 55 13 q23 13 40 30 l0 -37 l100 0 l0 710 ZM217 104 q-11 -8 -25 -13 q-13 -5 -28 -5 q-18 0 -27 8 q-9 8 -9 26 l0 309 q0 18 9 26 q9 8 27 8 q15 0 28 -5 q14 -5 25 -13 l0 -341 ZM344 588 l42 0 l30 122 l-72 0 l0 -122 Z" /><glyph glyph-name="" unicode="&#x110;" d="M44 0 l161 0 q78 0 116 38 q37 38 37 115 l0 394 q0 77 -37 115 q-38 38 -116 38 l-161 0 l0 -302 l-42 0 l0 -86 l42 0 l0 -312 ZM151 606 l39 0 q31 0 46 -15 q15 -16 15 -47 l0 -388 q0 -31 -15 -47 q-15 -15 -46 -15 l-39 0 l0 218 l60 0 l0 86 l-60 0 l0 208 Z" /><glyph glyph-name="" unicode="&#x111;" d="M318 710 l-101 0 l0 -59 l-86 0 l0 -66 l86 0 l0 -69 q-17 16 -40 27 q-23 11 -54 12 l-1 0 q-47 0 -71 -27 q-24 -27 -24 -75 l0 -356 q0 -48 24 -75 q24 -28 71 -28 l1 0 q31 1 55 13 q23 13 40 30 l0 -37 l100 0 l0 585 l35 0 l0 66 l-35 0 l0 59 ZM217 104 q-11 -8 -25 -13 q-13 -5 -28 -5 q-18 0 -27 8 q-9 8 -9 26 l0 309 q0 18 9 26 q9 8 27 8 q15 0 28 -5 q14 -5 25 -13 l0 -341 Z" /><glyph glyph-name="" unicode="é" d="M115 741 l71 0 l73 89 l-101 0 l-43 -89 ZM32 700 l0 -700 l240 0 l0 97 l-133 0 l0 211 l126 0 l0 97 l-126 0 l0 198 l131 0 l0 97 l-238 0 Z" /><glyph glyph-name="" unicode="é" d="M310 235 l0 198 q0 122 -122 122 l-39 0 q-122 0 -122 -122 l0 -317 q0 -122 122 -122 l39 0 q122 0 122 122 l0 63 l-97 0 l0 -58 q0 -37 -37 -37 l-13 0 q-36 0 -36 37 l0 114 l183 0 ZM127 429 q0 37 36 37 l11 0 q37 0 37 -37 l0 -108 l-84 0 l0 108 ZM132 590 l71 0 l67 109 l-101 0 l-37 -109 Z" /><glyph glyph-name="" unicode="&#x114;" d="M52 816 q0 -40 20 -59 q20 -19 63 -19 l34 0 q43 0 63 19 q20 19 20 59 l0 18 l-66 0 l0 -12 q0 -13 -7 -18 q-7 -6 -21 -6 l-12 0 q-14 0 -21 6 q-7 5 -7 18 l0 12 l-66 0 l0 -18 ZM32 700 l0 -700 l240 0 l0 97 l-133 0 l0 211 l126 0 l0 97 l-126 0 l0 198 l131 0 l0 97 l-238 0 Z" /><glyph glyph-name="" unicode="&#x115;" d="M310 235 l0 198 q0 122 -122 122 l-39 0 q-122 0 -122 -122 l0 -317 q0 -122 122 -122 l39 0 q122 0 122 122 l0 63 l-97 0 l0 -58 q0 -37 -37 -37 l-13 0 q-36 0 -36 37 l0 114 l183 0 ZM71 672 q0 -44 20 -65 q20 -20 63 -20 l30 0 q43 0 63 20 q20 21 20 65 l0 27 l-66 0 l0 -25 q0 -27 -28 -27 l-8 0 q-28 0 -28 27 l0 25 l-66 0 l0 -27 ZM127 429 q0 37 36 37 l11 0 q37 0 37 -37 l0 -108 l-84 0 l0 108 Z" /><glyph glyph-name="" unicode="&#x11a;" d="M263 838 l-66 0 l-45 -39 l-45 39 l-66 0 l70 -97 l82 0 l70 97 ZM32 700 l0 -700 l240 0 l0 97 l-133 0 l0 211 l126 0 l0 97 l-126 0 l0 198 l131 0 l0 97 l-238 0 Z" /><glyph glyph-name="" unicode="&#x11b;" d="M310 235 l0 198 q0 122 -122 122 l-39 0 q-122 0 -122 -122 l0 -317 q0 -122 122 -122 l39 0 q122 0 122 122 l0 63 l-97 0 l0 -58 q0 -37 -37 -37 l-13 0 q-36 0 -36 37 l0 114 l183 0 ZM276 699 l-66 0 l-41 -48 l-41 48 l-66 0 l66 -109 l82 0 l66 109 ZM127 429 q0 37 36 37 l11 0 q37 0 37 -37 l0 -108 l-84 0 l0 108 Z" /><glyph glyph-name="" unicode="ê" d="M32 700 l0 -700 l240 0 l0 97 l-133 0 l0 211 l126 0 l0 97 l-126 0 l0 198 l131 0 l0 97 l-238 0 ZM193 838 l-82 0 l-70 -97 l66 0 l45 39 l45 -39 l66 0 l-70 97 Z" /><glyph glyph-name="" unicode="ê" d="M310 235 l0 198 q0 122 -122 122 l-39 0 q-122 0 -122 -122 l0 -317 q0 -122 122 -122 l39 0 q122 0 122 122 l0 63 l-97 0 l0 -58 q0 -37 -37 -37 l-13 0 q-36 0 -36 37 l0 114 l183 0 ZM210 699 l-82 0 l-66 -109 l66 0 l41 48 l41 -48 l66 0 l-66 109 ZM127 429 q0 37 36 37 l11 0 q37 0 37 -37 l0 -108 l-84 0 l0 108 Z" /><glyph glyph-name="" unicode="ë" d="M172 741 l85 0 l0 82 l-85 0 l0 -82 ZM132 823 l-85 0 l0 -82 l85 0 l0 82 ZM32 700 l0 -700 l240 0 l0 97 l-133 0 l0 211 l126 0 l0 97 l-126 0 l0 198 l131 0 l0 97 l-238 0 Z" /><glyph glyph-name="" unicode="ë" d="M310 235 l0 198 q0 122 -122 122 l-39 0 q-122 0 -122 -122 l0 -317 q0 -122 122 -122 l39 0 q122 0 122 122 l0 63 l-97 0 l0 -58 q0 -37 -37 -37 l-13 0 q-36 0 -36 37 l0 114 l183 0 ZM127 429 q0 37 36 37 l11 0 q37 0 37 -37 l0 -108 l-84 0 l0 108 ZM149 692 l-83 0 l0 -102 l83 0 l0 102 ZM189 590 l83 0 l0 102 l-83 0 l0 -102 Z" /><glyph glyph-name="" unicode="&#x116;" d="M197 819 l-90 0 l0 -78 l90 0 l0 78 ZM32 700 l0 -700 l240 0 l0 97 l-133 0 l0 211 l126 0 l0 97 l-126 0 l0 198 l131 0 l0 97 l-238 0 Z" /><glyph glyph-name="" unicode="&#x117;" d="M310 235 l0 198 q0 122 -122 122 l-39 0 q-122 0 -122 -122 l0 -317 q0 -122 122 -122 l39 0 q122 0 122 122 l0 63 l-97 0 l0 -58 q0 -37 -37 -37 l-13 0 q-36 0 -36 37 l0 114 l183 0 ZM127 429 q0 37 36 37 l11 0 q37 0 37 -37 l0 -108 l-84 0 l0 108 ZM213 688 l-88 0 l0 -98 l88 0 l0 98 Z" /><glyph glyph-name="" unicode="è" d="M146 830 l-103 0 l74 -89 l73 0 l-44 89 ZM32 700 l0 -700 l240 0 l0 97 l-133 0 l0 211 l126 0 l0 97 l-126 0 l0 198 l131 0 l0 97 l-238 0 Z" /><glyph glyph-name="" unicode="è" d="M310 235 l0 198 q0 122 -122 122 l-39 0 q-122 0 -122 -122 l0 -317 q0 -122 122 -122 l39 0 q122 0 122 122 l0 63 l-97 0 l0 -58 q0 -37 -37 -37 l-13 0 q-36 0 -36 37 l0 114 l183 0 ZM127 429 q0 37 36 37 l11 0 q37 0 37 -37 l0 -108 l-84 0 l0 108 ZM169 699 l-101 0 l67 -109 l71 0 l-37 109 Z" /><glyph glyph-name="" unicode="&#x112;" d="M46 813 l0 -65 l212 0 l0 65 l-212 0 ZM32 700 l0 -700 l240 0 l0 97 l-133 0 l0 211 l126 0 l0 97 l-126 0 l0 198 l131 0 l0 97 l-238 0 Z" /><glyph glyph-name="" unicode="&#x113;" d="M310 235 l0 198 q0 122 -122 122 l-39 0 q-122 0 -122 -122 l0 -317 q0 -122 122 -122 l39 0 q122 0 122 122 l0 63 l-97 0 l0 -58 q0 -37 -37 -37 l-13 0 q-36 0 -36 37 l0 114 l183 0 ZM63 672 l0 -75 l212 0 l0 75 l-212 0 ZM127 429 q0 37 36 37 l11 0 q37 0 37 -37 l0 -108 l-84 0 l0 108 Z" /><glyph glyph-name="" unicode="&#x118;" d="M32 700 l0 -700 l156 0 l-1 -2 q-10 -15 -15 -27 q-5 -12 -5 -25 l0 -6 q0 -23 12 -35 q12 -12 41 -12 l53 0 l0 57 l-26 0 q-6 0 -8 2 q-3 2 -3 7 q0 6 2 12 q3 6 8 15 l8 14 l18 0 l0 97 l-133 0 l0 211 l126 0 l0 97 l-126 0 l0 198 l131 0 l0 97 l-238 0 Z" /><glyph glyph-name="" unicode="&#x119;" d="M310 235 l0 198 q0 122 -122 122 l-39 0 q-122 0 -122 -122 l0 -317 q0 -122 122 -122 l8 0 q4 0 18 1 q15 0 29 1 q-10 -18 -13 -29 q-4 -11 -4 -21 l0 -6 q0 -23 12 -35 q12 -12 41 -12 l52 0 l0 57 l-26 0 q-5 0 -8 2 q-2 2 -2 7 q0 6 2 12 q2 6 7 15 l31 62 q7 13 10 30 q4 16 4 38 l0 63 l-97 0 l0 -58 q0 -37 -37 -37 l-13 0 q-36 0 -36 37 l0 114 l183 0 ZM127 429 q0 37 36 37 l11 0 q37 0 37 -37 l0 -108 l-84 0 l0 108 Z" /><glyph glyph-name="" unicode="&#x11e;" d="M89 816 q0 -40 20 -59 q20 -19 63 -19 l34 0 q43 0 63 19 q20 19 20 59 l0 18 l-66 0 l0 -12 q0 -13 -7 -18 q-7 -6 -21 -6 l-12 0 q-14 0 -21 6 q-7 5 -7 18 l0 12 l-66 0 l0 -18 ZM243 290 l0 -161 q0 -21 -10 -31 q-10 -10 -31 -10 l-24 0 q-21 0 -31 10 q-10 10 -10 31 l0 442 q0 21 10 31 q10 10 31 10 l22 0 q20 0 30 -10 q10 -10 10 -31 l0 -107 l105 0 l0 113 q0 65 -32 97 q-32 32 -97 32 l-56 0 q-130 0 -130 -130 l0 -452 q0 -130 130 -130 l57 0 q130 0 130 130 l0 258 l-160 0 l0 -92 l56 0 Z" /><glyph glyph-name="" unicode="&#x11f;" d="M318 549 l-100 0 l0 -33 q-17 16 -40 27 q-24 11 -55 12 l-1 0 q-47 0 -71 -27 q-24 -27 -24 -75 l0 -297 q0 -48 24 -75 q24 -28 71 -28 l1 0 q29 0 52 11 q24 10 43 27 l0 -92 q0 -16 -8 -24 q-7 -9 -23 -9 l-35 0 q-16 0 -23 9 q-8 8 -8 24 l0 24 l-92 0 l0 -32 q0 -54 26 -79 q26 -26 80 -26 l65 0 q60 0 89 29 q29 28 29 88 l0 546 ZM217 160 q-11 -8 -25 -12 q-13 -5 -28 -5 q-18 0 -27 8 q-9 8 -9 26 l0 252 q0 18 9 26 q9 8 27 8 q15 0 28 -5 q14 -5 25 -13 l0 -285 ZM82 672 q0 -44 20 -65 q20 -20 63 -20 l30 0 q43 0 63 20 q20 21 20 65 l0 27 l-66 0 l0 -25 q0 -27 -28 -27 l-8 0 q-28 0 -28 27 l0 25 l-66 0 l0 -27 Z" /><glyph glyph-name="" unicode="&#x122;" d="M243 290 l0 -161 q0 -21 -10 -31 q-10 -10 -31 -10 l-24 0 q-21 0 -31 10 q-10 10 -10 31 l0 442 q0 21 10 31 q10 10 31 10 l22 0 q20 0 30 -10 q10 -10 10 -31 l0 -107 l105 0 l0 113 q0 65 -32 97 q-32 32 -97 32 l-56 0 q-130 0 -130 -130 l0 -452 q0 -130 130 -130 l57 0 q130 0 130 130 l0 258 l-160 0 l0 -92 l56 0 ZM230 -41 l-81 0 l0 -97 l31 0 q-1 -7 -4 -17 q-4 -10 -14 -26 l-14 -22 l28 -18 l20 24 q21 25 28 45 q7 19 6 51 l0 60 Z" /><glyph glyph-name="" unicode="&#x123;" d="M318 549 l-100 0 l0 -33 q-17 16 -40 27 q-24 11 -55 12 l-1 0 q-47 0 -71 -27 q-24 -27 -24 -75 l0 -297 q0 -48 24 -75 q24 -28 71 -28 l1 0 q29 0 52 11 q24 10 43 27 l0 -92 q0 -16 -8 -24 q-7 -9 -23 -9 l-35 0 q-16 0 -23 9 q-8 8 -8 24 l0 24 l-92 0 l0 -32 q0 -54 26 -79 q26 -26 80 -26 l65 0 q60 0 89 29 q29 28 29 88 l0 546 ZM217 160 q-11 -8 -25 -12 q-13 -5 -28 -5 q-18 0 -27 8 q-9 8 -9 26 l0 252 q0 18 9 26 q9 8 27 8 q15 0 28 -5 q14 -5 25 -13 l0 -285 ZM139 590 l81 0 l0 97 l-31 0 q1 7 5 17 q3 10 13 26 l14 22 l-28 18 l-20 -24 q-21 -25 -28 -45 q-7 -19 -6 -51 l0 -60 Z" /><glyph glyph-name="" unicode="&#x120;" d="M234 819 l-90 0 l0 -78 l90 0 l0 78 ZM243 290 l0 -161 q0 -21 -10 -31 q-10 -10 -31 -10 l-24 0 q-21 0 -31 10 q-10 10 -10 31 l0 442 q0 21 10 31 q10 10 31 10 l22 0 q20 0 30 -10 q10 -10 10 -31 l0 -107 l105 0 l0 113 q0 65 -32 97 q-32 32 -97 32 l-56 0 q-130 0 -130 -130 l0 -452 q0 -130 130 -130 l57 0 q130 0 130 130 l0 258 l-160 0 l0 -92 l56 0 Z" /><glyph glyph-name="" unicode="&#x121;" d="M318 549 l-100 0 l0 -33 q-17 16 -40 27 q-24 11 -55 12 l-1 0 q-47 0 -71 -27 q-24 -27 -24 -75 l0 -297 q0 -48 24 -75 q24 -28 71 -28 l1 0 q29 0 52 11 q24 10 43 27 l0 -92 q0 -16 -8 -24 q-7 -9 -23 -9 l-35 0 q-16 0 -23 9 q-8 8 -8 24 l0 24 l-92 0 l0 -32 q0 -54 26 -79 q26 -26 80 -26 l65 0 q60 0 89 29 q29 28 29 88 l0 546 ZM217 160 q-11 -8 -25 -12 q-13 -5 -28 -5 q-18 0 -27 8 q-9 8 -9 26 l0 252 q0 18 9 26 q9 8 27 8 q15 0 28 -5 q14 -5 25 -13 l0 -285 ZM224 688 l-88 0 l0 -98 l88 0 l0 98 Z" /><glyph glyph-name="" unicode="&#x126;" d="M2 516 l42 0 l0 -516 l107 0 l0 308 l103 0 l0 -308 l107 0 l0 516 l45 0 l0 86 l-45 0 l0 98 l-107 0 l0 -105 l-103 0 l0 105 l-107 0 l0 -98 l-42 0 l0 -86 ZM151 405 l0 119 l103 0 l0 -119 l-103 0 Z" /><glyph glyph-name="" unicode="&#x127;" d="M41 0 l101 0 l0 446 q14 8 27 13 q13 4 27 4 q17 0 25 -8 q8 -8 8 -24 l0 -431 l101 0 l0 461 q0 46 -22 70 q-22 24 -66 24 l-5 0 q-31 0 -53 -12 q-23 -12 -42 -30 l0 72 l87 0 l0 66 l-87 0 l0 59 l-101 0 l0 -59 l-35 0 l0 -66 l35 0 l0 -585 Z" /><glyph glyph-name="" unicode="í" d="M140 700 l-107 0 l0 -700 l107 0 l0 700 ZM50 741 l71 0 l73 89 l-101 0 l-43 -89 Z" /><glyph glyph-name="" unicode="í" d="M45 590 l71 0 l67 109 l-101 0 l-37 -109 ZM31 0 l101 0 l0 549 l-101 0 l0 -549 Z" /><glyph glyph-name="" unicode="&#x12c;" d="M140 700 l-107 0 l0 -700 l107 0 l0 700 ZM-13 816 q0 -40 20 -59 q20 -19 63 -19 l34 0 q43 0 63 19 q20 19 20 59 l0 18 l-66 0 l0 -12 q0 -13 -7 -18 q-7 -6 -21 -6 l-12 0 q-14 0 -21 6 q-7 5 -7 18 l0 12 l-66 0 l0 -18 Z" /><glyph glyph-name="" unicode="&#x12d;" d="M31 0 l101 0 l0 549 l-101 0 l0 -549 ZM-16 672 q0 -44 20 -65 q20 -20 63 -20 l30 0 q43 0 63 20 q20 21 20 65 l0 27 l-66 0 l0 -25 q0 -27 -28 -27 l-8 0 q-28 0 -28 27 l0 25 l-66 0 l0 -27 Z" /><glyph glyph-name="" unicode="î" d="M140 700 l-107 0 l0 -700 l107 0 l0 700 ZM128 838 l-82 0 l-70 -97 l66 0 l45 39 l45 -39 l66 0 l-70 97 Z" /><glyph glyph-name="" unicode="î" d="M123 699 l-82 0 l-66 -109 l66 0 l41 48 l41 -48 l66 0 l-66 109 ZM31 0 l101 0 l0 549 l-101 0 l0 -549 Z" /><glyph glyph-name="" unicode="ï" d="M140 700 l-107 0 l0 -700 l107 0 l0 700 ZM107 741 l85 0 l0 82 l-85 0 l0 -82 ZM67 823 l-85 0 l0 -82 l85 0 l0 82 Z" /><glyph glyph-name="" unicode="ï" d="M102 590 l83 0 l0 102 l-83 0 l0 -102 ZM62 692 l-83 0 l0 -102 l83 0 l0 102 ZM31 0 l101 0 l0 549 l-101 0 l0 -549 Z" /><glyph glyph-name="" unicode="&#x130;" d="M140 700 l-107 0 l0 -700 l107 0 l0 700 ZM132 819 l-90 0 l0 -78 l90 0 l0 78 Z" /><glyph glyph-name="" unicode="&#x131;" d="M31 0 l101 0 l0 549 l-101 0 l0 -549 Z" /><glyph glyph-name="" unicode="ì" d="M140 700 l-107 0 l0 -700 l107 0 l0 700 ZM81 830 l-103 0 l74 -89 l73 0 l-44 89 Z" /><glyph glyph-name="" unicode="ì" d="M31 0 l101 0 l0 549 l-101 0 l0 -549 ZM82 699 l-101 0 l67 -109 l71 0 l-37 109 Z" /><glyph glyph-name="" unicode="&#x12a;" d="M140 700 l-107 0 l0 -700 l107 0 l0 700 ZM-19 813 l0 -65 l212 0 l0 65 l-212 0 Z" /><glyph glyph-name="" unicode="&#x12b;" d="M31 0 l101 0 l0 549 l-101 0 l0 -549 ZM-24 672 l0 -75 l212 0 l0 75 l-212 0 Z" /><glyph glyph-name="" unicode="&#x12e;" d="M140 700 l-107 0 l0 -700 l24 0 l-1 -2 q-10 -15 -15 -27 q-5 -12 -5 -25 l0 -6 q0 -23 12 -35 q12 -12 41 -12 l53 0 l0 57 l-26 0 q-6 0 -8 2 q-3 2 -3 7 q0 6 2 12 q3 6 8 15 l8 14 l17 0 l0 700 Z" /><glyph glyph-name="" unicode="&#x12f;" d="M31 0 l21 0 l-1 -2 q-10 -15 -15 -27 q-5 -12 -5 -25 l0 -6 q0 -23 12 -35 q12 -12 41 -12 l53 0 l0 57 l-26 0 q-6 0 -8 2 q-3 2 -3 7 q0 6 2 12 q3 6 8 15 l8 14 l14 0 l0 549 l-101 0 l0 -549 ZM29 595 l105 0 l0 99 l-105 0 l0 -99 Z" /><glyph glyph-name="" unicode="&#x136;" d="M358 0 l-116 356 l120 344 l-112 0 l-111 -338 l0 338 l-107 0 l0 -700 l107 0 l0 343 l104 -343 l115 0 ZM220 -41 l-81 0 l0 -97 l31 0 q-1 -7 -4 -17 q-4 -10 -14 -26 l-14 -22 l28 -18 l20 24 q21 25 28 45 q7 19 6 51 l0 60 Z" /><glyph glyph-name="" unicode="&#x137;" d="M223 549 l-93 -267 l0 428 l-101 0 l0 -710 l101 0 l0 273 l87 -273 l108 0 l-98 281 l102 268 l-106 0 ZM208 -41 l-81 0 l0 -97 l30 0 q0 -7 -4 -17 q-3 -10 -13 -26 l-14 -22 l28 -18 l20 24 q21 25 28 45 q7 19 6 51 l0 60 Z" /><glyph glyph-name="" unicode="&#x139;" d="M39 741 l71 0 l73 89 l-101 0 l-43 -89 ZM32 700 l0 -700 l225 0 l0 97 l-118 0 l0 603 l-107 0 Z" /><glyph glyph-name="" unicode="&#x13a;" d="M46 740 l71 0 l67 109 l-101 0 l-37 -109 ZM31 0 l101 0 l0 710 l-101 0 l0 -710 Z" /><glyph glyph-name="" unicode="&#x13d;" d="M168 578 l42 0 l30 122 l-72 0 l0 -122 ZM42 700 l0 -700 l225 0 l0 97 l-118 0 l0 603 l-107 0 Z" /><glyph glyph-name="" unicode="&#x13e;" d="M159 588 l42 0 l30 122 l-72 0 l0 -122 ZM31 0 l101 0 l0 710 l-101 0 l0 -710 Z" /><glyph glyph-name="" unicode="&#x13b;" d="M32 700 l0 -700 l225 0 l0 97 l-118 0 l0 603 l-107 0 ZM175 -41 l-81 0 l0 -97 l30 0 q0 -7 -4 -17 q-3 -10 -13 -26 l-14 -22 l28 -18 l20 24 q21 25 28 45 q7 19 6 51 l0 60 Z" /><glyph glyph-name="" unicode="&#x13c;" d="M31 0 l101 0 l0 710 l-101 0 l0 -710 ZM123 -41 l-81 0 l0 -97 l30 0 q0 -7 -4 -17 q-3 -10 -13 -26 l-14 -22 l28 -18 l20 24 q21 25 28 45 q7 19 6 51 l0 60 Z" /><glyph glyph-name="" unicode="&#x13f;" d="M254 401 l-72 0 l0 -99 l72 0 l0 99 ZM42 700 l0 -700 l225 0 l0 97 l-118 0 l0 603 l-107 0 Z" /><glyph glyph-name="" unicode="&#x140;" d="M224 405 l-66 0 l0 -99 l66 0 l0 99 ZM31 0 l101 0 l0 710 l-101 0 l0 -710 Z" /><glyph glyph-name="" unicode="&#x141;" d="M41 700 l0 -327 l-43 -22 l0 -86 l43 22 l0 -287 l225 0 l0 97 l-118 0 l0 247 l66 35 l0 86 l-66 -35 l0 270 l-107 0 Z" /><glyph glyph-name="" unicode="&#x142;" d="M39 0 l101 0 l0 349 l37 25 l0 83 l-37 -27 l0 280 l-101 0 l0 -347 l-36 -24 l0 -83 l36 26 l0 -282 Z" /><glyph glyph-name="" unicode="&#x143;" d="M236 0 l116 0 l0 700 l-96 0 l0 -315 l1 -117 l-100 432 l-125 0 l0 -700 l96 0 l0 348 l-1 123 l109 -471 ZM157 741 l71 0 l73 89 l-101 0 l-43 -89 Z" /><glyph glyph-name="" unicode="&#x144;" d="M29 0 l101 0 l0 446 q14 8 27 13 q13 4 27 4 q17 0 25 -8 q8 -8 8 -24 l0 -431 l101 0 l0 461 q0 46 -22 70 q-22 24 -66 24 l-5 0 q-31 0 -54 -12 q-23 -12 -42 -30 l0 36 l-100 0 l0 -549 ZM137 590 l71 0 l67 109 l-101 0 l-37 -109 Z" /><glyph glyph-name="" unicode="&#x147;" d="M352 0 l0 700 l-96 0 l0 -315 l1 -117 l-100 432 l-125 0 l0 -700 l96 0 l0 348 l-1 123 l109 -471 l116 0 ZM305 838 l-66 0 l-45 -39 l-45 39 l-66 0 l70 -97 l82 0 l70 97 Z" /><glyph glyph-name="" unicode="&#x148;" d="M29 0 l101 0 l0 446 q14 8 27 13 q13 4 27 4 q17 0 25 -8 q8 -8 8 -24 l0 -431 l101 0 l0 461 q0 46 -22 70 q-22 24 -66 24 l-5 0 q-31 0 -54 -12 q-23 -12 -42 -30 l0 36 l-100 0 l0 -549 ZM281 699 l-66 0 l-41 -48 l-41 48 l-66 0 l66 -109 l82 0 l66 109 Z" /><glyph glyph-name="" unicode="&#x145;" d="M236 0 l116 0 l0 700 l-96 0 l0 -315 l1 -117 l-100 432 l-125 0 l0 -700 l96 0 l0 348 l-1 123 l109 -471 ZM231 -41 l-81 0 l0 -97 l31 0 q-1 -7 -4 -17 q-4 -10 -14 -26 l-14 -22 l28 -18 l20 24 q21 25 28 45 q7 19 6 51 l0 60 Z" /><glyph glyph-name="" unicode="&#x146;" d="M29 0 l101 0 l0 446 q14 8 27 13 q13 4 27 4 q17 0 25 -8 q8 -8 8 -24 l0 -431 l101 0 l0 461 q0 46 -22 70 q-22 24 -66 24 l-5 0 q-31 0 -54 -12 q-23 -12 -42 -30 l0 36 l-100 0 l0 -549 ZM215 -41 l-81 0 l0 -97 l30 0 q0 -7 -4 -17 q-3 -10 -13 -26 l-14 -22 l28 -18 l20 24 q21 25 28 45 q7 19 6 51 l0 60 Z" /><glyph glyph-name="" unicode="ñ" d="M236 0 l116 0 l0 700 l-96 0 l0 -315 l1 -117 l-100 432 l-125 0 l0 -700 l96 0 l0 348 l-1 123 l109 -471 ZM129 840 q-48 0 -48 -51 l0 -48 l59 0 l0 25 q0 6 2 9 q2 3 8 3 q6 0 10 -1 q4 -2 12 -6 l32 -18 q11 -7 21 -10 q10 -2 25 -2 l9 0 q23 0 36 12 q12 13 12 38 l0 49 l-59 0 l0 -26 q0 -6 -2 -9 q-2 -3 -8 -3 q-6 0 -10 1 q-4 2 -12 6 l-31 19 q-11 7 -22 9 q-10 3 -25 3 l-9 0 Z" /><glyph glyph-name="" unicode="ñ" d="M29 0 l101 0 l0 446 q14 8 27 13 q13 4 27 4 q17 0 25 -8 q8 -8 8 -24 l0 -431 l101 0 l0 461 q0 46 -22 70 q-22 24 -66 24 l-5 0 q-31 0 -54 -12 q-23 -12 -42 -30 l0 36 l-100 0 l0 -549 ZM111 699 q-48 0 -48 -51 l0 -58 l59 0 l0 32 q0 6 2 9 q2 3 8 3 q6 0 10 -2 q4 -3 12 -8 l28 -20 q12 -9 22 -11 q9 -3 25 -3 l8 0 q23 0 36 12 q12 13 12 38 l0 59 l-59 0 l0 -33 q0 -6 -2 -9 q-2 -3 -8 -3 q-6 0 -10 3 q-4 2 -12 8 l-27 19 q-12 9 -22 12 q-10 3 -26 3 l-8 0 Z" /><glyph glyph-name="" unicode="ó" d="M152 741 l71 0 l73 89 l-101 0 l-43 -89 ZM347 124 l0 452 q0 130 -130 130 l-57 0 q-130 0 -130 -130 l0 -452 q0 -130 130 -130 l57 0 q130 0 130 130 l0 0 ZM240 571 l0 -442 q0 -21 -10 -31 q-10 -10 -30 -10 l-22 0 q-21 0 -31 10 q-10 10 -10 31 l0 442 q0 21 10 31 q10 10 31 10 l22 0 q20 0 30 -10 q10 -10 10 -31 l0 0 Z" /><glyph glyph-name="" unicode="ó" d="M136 590 l71 0 l67 109 l-101 0 l-37 -109 ZM196 -6 q122 0 122 122 l0 317 q0 122 -122 122 l-47 0 q-122 0 -122 -122 l0 -317 q0 -122 122 -122 l47 0 ZM180 464 q37 0 37 -37 l0 -305 q0 -37 -37 -37 l-16 0 q-36 0 -36 37 l0 305 q0 37 36 37 l16 0 Z" /><glyph glyph-name="" unicode="&#x14e;" d="M89 816 q0 -40 20 -59 q20 -19 63 -19 l34 0 q43 0 63 19 q20 19 20 59 l0 18 l-66 0 l0 -12 q0 -13 -7 -18 q-7 -6 -21 -6 l-12 0 q-14 0 -21 6 q-7 5 -7 18 l0 12 l-66 0 l0 -18 ZM347 124 l0 452 q0 130 -130 130 l-57 0 q-130 0 -130 -130 l0 -452 q0 -130 130 -130 l57 0 q130 0 130 130 l0 0 ZM240 571 l0 -442 q0 -21 -10 -31 q-10 -10 -30 -10 l-22 0 q-21 0 -31 10 q-10 10 -10 31 l0 442 q0 21 10 31 q10 10 31 10 l22 0 q20 0 30 -10 q10 -10 10 -31 l0 0 Z" /><glyph glyph-name="" unicode="&#x14f;" d="M196 -6 q122 0 122 122 l0 317 q0 122 -122 122 l-47 0 q-122 0 -122 -122 l0 -317 q0 -122 122 -122 l47 0 ZM180 464 q37 0 37 -37 l0 -305 q0 -37 -37 -37 l-16 0 q-36 0 -36 37 l0 305 q0 37 36 37 l16 0 ZM75 672 q0 -44 20 -65 q20 -20 63 -20 l30 0 q43 0 63 20 q20 21 20 65 l0 27 l-66 0 l0 -25 q0 -27 -28 -27 l-8 0 q-28 0 -28 27 l0 25 l-66 0 l0 -27 Z" /><glyph glyph-name="" unicode="ô" d="M347 124 l0 452 q0 130 -130 130 l-57 0 q-130 0 -130 -130 l0 -452 q0 -130 130 -130 l57 0 q130 0 130 130 l0 0 ZM240 571 l0 -442 q0 -21 -10 -31 q-10 -10 -30 -10 l-22 0 q-21 0 -31 10 q-10 10 -10 31 l0 442 q0 21 10 31 q10 10 31 10 l22 0 q20 0 30 -10 q10 -10 10 -31 l0 0 ZM230 838 l-82 0 l-70 -97 l66 0 l45 39 l45 -39 l66 0 l-70 97 Z" /><glyph glyph-name="" unicode="ô" d="M214 699 l-82 0 l-66 -109 l66 0 l41 48 l41 -48 l66 0 l-66 109 ZM196 -6 q122 0 122 122 l0 317 q0 122 -122 122 l-47 0 q-122 0 -122 -122 l0 -317 q0 -122 122 -122 l47 0 ZM180 464 q37 0 37 -37 l0 -305 q0 -37 -37 -37 l-16 0 q-36 0 -36 37 l0 305 q0 37 36 37 l16 0 Z" /><glyph glyph-name="" unicode="ö" d="M209 741 l85 0 l0 82 l-85 0 l0 -82 ZM169 823 l-85 0 l0 -82 l85 0 l0 82 ZM347 124 l0 452 q0 130 -130 130 l-57 0 q-130 0 -130 -130 l0 -452 q0 -130 130 -130 l57 0 q130 0 130 130 l0 0 ZM240 571 l0 -442 q0 -21 -10 -31 q-10 -10 -30 -10 l-22 0 q-21 0 -31 10 q-10 10 -10 31 l0 442 q0 21 10 31 q10 10 31 10 l22 0 q20 0 30 -10 q10 -10 10 -31 l0 0 Z" /><glyph glyph-name="" unicode="ö" d="M193 590 l83 0 l0 102 l-83 0 l0 -102 ZM153 692 l-83 0 l0 -102 l83 0 l0 102 ZM196 -6 q122 0 122 122 l0 317 q0 122 -122 122 l-47 0 q-122 0 -122 -122 l0 -317 q0 -122 122 -122 l47 0 ZM180 464 q37 0 37 -37 l0 -305 q0 -37 -37 -37 l-16 0 q-36 0 -36 37 l0 305 q0 37 36 37 l16 0 Z" /><glyph glyph-name="" unicode="ò" d="M183 830 l-103 0 l74 -89 l73 0 l-44 89 ZM347 124 l0 452 q0 130 -130 130 l-57 0 q-130 0 -130 -130 l0 -452 q0 -130 130 -130 l57 0 q130 0 130 130 l0 0 ZM240 571 l0 -442 q0 -21 -10 -31 q-10 -10 -30 -10 l-22 0 q-21 0 -31 10 q-10 10 -10 31 l0 442 q0 21 10 31 q10 10 31 10 l22 0 q20 0 30 -10 q10 -10 10 -31 l0 0 Z" /><glyph glyph-name="" unicode="ò" d="M196 -6 q122 0 122 122 l0 317 q0 122 -122 122 l-47 0 q-122 0 -122 -122 l0 -317 q0 -122 122 -122 l47 0 ZM180 464 q37 0 37 -37 l0 -305 q0 -37 -37 -37 l-16 0 q-36 0 -36 37 l0 305 q0 37 36 37 l16 0 ZM173 699 l-101 0 l67 -109 l71 0 l-37 109 Z" /><glyph glyph-name="" unicode="&#x150;" d="M347 124 l0 452 q0 130 -130 130 l-57 0 q-130 0 -130 -130 l0 -452 q0 -130 130 -130 l57 0 q130 0 130 130 l0 0 ZM240 571 l0 -442 q0 -21 -10 -31 q-10 -10 -30 -10 l-22 0 q-21 0 -31 10 q-10 10 -10 31 l0 442 q0 21 10 31 q10 10 31 10 l22 0 q20 0 30 -10 q10 -10 10 -31 l0 0 ZM118 741 l53 0 l72 89 l-88 0 l-37 -89 ZM209 741 l54 0 l72 89 l-89 0 l-37 -89 Z" /><glyph glyph-name="" unicode="&#x151;" d="M103 590 l52 0 l66 109 l-86 0 l-32 -109 ZM193 590 l52 0 l66 109 l-87 0 l-31 -109 ZM196 -6 q122 0 122 122 l0 317 q0 122 -122 122 l-47 0 q-122 0 -122 -122 l0 -317 q0 -122 122 -122 l47 0 ZM180 464 q37 0 37 -37 l0 -305 q0 -37 -37 -37 l-16 0 q-36 0 -36 37 l0 305 q0 37 36 37 l16 0 Z" /><glyph glyph-name="" unicode="&#x14c;" d="M83 813 l0 -65 l212 0 l0 65 l-212 0 ZM347 124 l0 452 q0 130 -130 130 l-57 0 q-130 0 -130 -130 l0 -452 q0 -130 130 -130 l57 0 q130 0 130 130 l0 0 ZM240 571 l0 -442 q0 -21 -10 -31 q-10 -10 -30 -10 l-22 0 q-21 0 -31 10 q-10 10 -10 31 l0 442 q0 21 10 31 q10 10 31 10 l22 0 q20 0 30 -10 q10 -10 10 -31 l0 0 Z" /><glyph glyph-name="" unicode="&#x14d;" d="M67 672 l0 -75 l212 0 l0 75 l-212 0 ZM196 -6 q122 0 122 122 l0 317 q0 122 -122 122 l-47 0 q-122 0 -122 -122 l0 -317 q0 -122 122 -122 l47 0 ZM180 464 q37 0 37 -37 l0 -305 q0 -37 -37 -37 l-16 0 q-36 0 -36 37 l0 305 q0 37 36 37 l16 0 Z" /><glyph glyph-name="" unicode="ø" d="M347 124 l0 452 q0 130 -130 130 l-57 0 q-130 0 -130 -130 l0 -452 q0 -130 130 -130 l57 0 q130 0 130 130 l0 0 ZM242 244 l-1 -115 q0 -41 -42 -41 l-21 0 q-13 0 -21 4 q-9 3 -14 10 l100 359 l-1 -217 ZM136 449 l1 122 q0 20 10 31 q10 10 31 10 l22 0 q25 0 34 -15 l-100 -360 l2 212 Z" /><glyph glyph-name="" unicode="ø" d="M196 -6 q122 0 122 122 l0 317 q0 122 -122 122 l-47 0 q-122 0 -122 -122 l0 -317 q0 -122 122 -122 l47 0 ZM217 122 q0 -37 -37 -37 l-16 0 q-20 0 -29 9 l83 271 l-1 -201 l0 -42 ZM164 464 l16 0 q19 0 28 -10 l-82 -266 l1 206 l0 33 q0 37 37 37 l0 0 Z" /><glyph glyph-name="" unicode="&#x1fe;" d="M347 124 l0 452 q0 130 -130 130 l-57 0 q-130 0 -130 -130 l0 -452 q0 -130 130 -130 l57 0 q130 0 130 130 l0 0 ZM242 244 l-1 -115 q0 -41 -42 -41 l-21 0 q-13 0 -21 4 q-9 3 -14 10 l100 359 l-1 -217 ZM136 449 l1 122 q0 20 10 31 q10 10 31 10 l22 0 q25 0 34 -15 l-100 -360 l2 212 ZM152 741 l71 0 l73 89 l-101 0 l-43 -89 Z" /><glyph glyph-name="" unicode="&#x1ff;" d="M196 -6 q122 0 122 122 l0 317 q0 122 -122 122 l-47 0 q-122 0 -122 -122 l0 -317 q0 -122 122 -122 l47 0 ZM217 122 q0 -37 -37 -37 l-16 0 q-20 0 -29 9 l83 271 l-1 -201 l0 -42 ZM164 464 l16 0 q19 0 28 -10 l-82 -266 l1 206 l0 33 q0 37 37 37 l0 0 ZM136 590 l71 0 l67 109 l-101 0 l-37 -109 Z" /><glyph glyph-name="" unicode="õ" d="M347 124 l0 452 q0 130 -130 130 l-57 0 q-130 0 -130 -130 l0 -452 q0 -130 130 -130 l57 0 q130 0 130 130 l0 0 ZM240 571 l0 -442 q0 -21 -10 -31 q-10 -10 -30 -10 l-22 0 q-21 0 -31 10 q-10 10 -10 31 l0 442 q0 21 10 31 q10 10 31 10 l22 0 q20 0 30 -10 q10 -10 10 -31 l0 0 ZM124 840 q-48 0 -48 -51 l0 -48 l59 0 l0 25 q0 6 2 9 q2 3 8 3 q6 0 10 -1 q4 -2 12 -6 l32 -18 q11 -7 21 -10 q10 -2 25 -2 l9 0 q23 0 36 12 q12 13 12 38 l0 49 l-59 0 l0 -26 q0 -6 -2 -9 q-2 -3 -8 -3 q-6 0 -10 1 q-4 2 -12 6 l-31 19 q-11 7 -22 9 q-10 3 -25 3 l-9 0 Z" /><glyph glyph-name="" unicode="õ" d="M196 -6 q122 0 122 122 l0 317 q0 122 -122 122 l-47 0 q-122 0 -122 -122 l0 -317 q0 -122 122 -122 l47 0 ZM180 464 q37 0 37 -37 l0 -305 q0 -37 -37 -37 l-16 0 q-36 0 -36 37 l0 305 q0 37 36 37 l16 0 ZM110 699 q-48 0 -48 -51 l0 -58 l59 0 l0 32 q0 6 2 9 q2 3 8 3 q6 0 10 -2 q4 -3 12 -8 l28 -20 q12 -9 22 -11 q9 -3 25 -3 l8 0 q23 0 36 12 q12 13 12 38 l0 59 l-59 0 l0 -33 q0 -6 -2 -9 q-2 -3 -8 -3 q-6 0 -10 3 q-4 2 -12 8 l-27 19 q-12 9 -22 12 q-10 3 -26 3 l-8 0 Z" /><glyph glyph-name="" unicode="&#x154;" d="M277 330 q29 11 45 37 q16 25 16 71 l0 132 q0 130 -130 130 l-176 0 l0 -700 l107 0 l0 281 l48 0 q23 0 34 -11 q11 -11 11 -34 l0 -236 l107 0 l0 238 q0 39 -14 61 q-15 22 -48 31 l0 0 ZM231 565 l0 -148 q0 -22 -11 -32 q-11 -11 -33 -11 l-48 0 l0 231 l52 0 q40 0 40 -40 l0 0 ZM145 741 l71 0 l73 89 l-101 0 l-43 -89 Z" /><glyph glyph-name="" unicode="&#x155;" d="M81 590 l71 0 l67 109 l-101 0 l-37 -109 ZM29 0 l101 0 l0 410 q16 14 36 22 q20 8 48 10 l0 112 q-29 0 -49 -15 q-19 -16 -36 -49 l0 59 l-100 0 l0 -549 Z" /><glyph glyph-name="" unicode="&#x158;" d="M293 838 l-66 0 l-45 -39 l-45 39 l-66 0 l70 -97 l82 0 l70 97 ZM277 330 q29 11 45 37 q16 25 16 71 l0 132 q0 130 -130 130 l-176 0 l0 -700 l107 0 l0 281 l48 0 q23 0 34 -11 q11 -11 11 -34 l0 -236 l107 0 l0 238 q0 39 -14 61 q-15 22 -48 31 l0 0 ZM231 565 l0 -148 q0 -22 -11 -32 q-11 -11 -33 -11 l-48 0 l0 231 l52 0 q40 0 40 -40 l0 0 Z" /><glyph glyph-name="" unicode="&#x159;" d="M225 699 l-66 0 l-41 -48 l-41 48 l-66 0 l66 -109 l82 0 l66 109 ZM29 0 l101 0 l0 410 q16 14 36 22 q20 8 48 10 l0 112 q-29 0 -49 -15 q-19 -16 -36 -49 l0 59 l-100 0 l0 -549 Z" /><glyph glyph-name="" unicode="&#x156;" d="M277 330 q29 11 45 37 q16 25 16 71 l0 132 q0 130 -130 130 l-176 0 l0 -700 l107 0 l0 281 l48 0 q23 0 34 -11 q11 -11 11 -34 l0 -236 l107 0 l0 238 q0 39 -14 61 q-15 22 -48 31 l0 0 ZM231 565 l0 -148 q0 -22 -11 -32 q-11 -11 -33 -11 l-48 0 l0 231 l52 0 q40 0 40 -40 l0 0 ZM223 -41 l-81 0 l0 -97 l30 0 q0 -7 -4 -17 q-3 -10 -13 -26 l-14 -22 l28 -18 l20 24 q21 25 28 45 q7 19 6 51 l0 60 Z" /><glyph glyph-name="" unicode="&#x157;" d="M29 0 l101 0 l0 410 q16 14 36 22 q20 8 48 10 l0 112 q-29 0 -49 -15 q-19 -16 -36 -49 l0 59 l-100 0 l0 -549 ZM121 -41 l-81 0 l0 -97 l30 0 q0 -7 -4 -17 q-3 -10 -13 -26 l-14 -22 l28 -18 l20 24 q21 25 28 45 q7 19 6 51 l0 60 Z" /><glyph glyph-name="" unicode="&#x15a;" d="M273 359 l-108 79 q-15 10 -22 23 q-8 13 -8 34 l0 78 q0 40 40 40 l13 0 q40 0 40 -40 l0 -123 l105 0 l0 127 q0 129 -129 129 l-45 0 q-130 0 -130 -130 l0 -96 q-1 -40 13 -68 q14 -28 49 -53 l108 -79 q15 -11 23 -23 q7 -13 7 -34 l0 -96 q0 -20 -10 -30 q-10 -10 -31 -10 l-14 0 q-21 0 -31 10 q-10 10 -10 30 l0 144 l-104 0 l0 -148 q0 -64 32 -97 q32 -32 97 -32 l47 0 q130 0 130 130 l0 114 q1 42 -13 69 q-14 27 -49 52 l0 0 ZM145 741 l71 0 l73 89 l-101 0 l-43 -89 Z" /><glyph glyph-name="" unicode="&#x15b;" d="M128 590 l71 0 l67 109 l-101 0 l-37 -109 ZM206 355 l98 0 l0 79 q0 60 -30 91 q-30 30 -91 30 l-34 0 q-122 0 -122 -122 l0 -63 q0 -38 15 -61 q15 -24 46 -43 l96 -59 q13 -8 18 -18 q6 -10 6 -24 l0 -47 q0 -36 -36 -36 l-13 0 q-35 0 -35 36 l0 81 l-98 0 l0 -84 q0 -60 30 -90 q30 -31 91 -31 l36 0 q122 0 122 122 l0 66 q0 39 -15 62 q-15 23 -47 42 l-95 60 q-13 8 -19 18 q-5 9 -5 24 l0 43 q0 36 35 36 l12 0 q35 0 35 -36 l0 -76 Z" /><glyph glyph-name="" unicode="&#x160;" d="M273 359 l-108 79 q-15 10 -22 23 q-8 13 -8 34 l0 78 q0 40 40 40 l13 0 q40 0 40 -40 l0 -123 l105 0 l0 127 q0 129 -129 129 l-45 0 q-130 0 -130 -130 l0 -96 q-1 -40 13 -68 q14 -28 49 -53 l108 -79 q15 -11 23 -23 q7 -13 7 -34 l0 -96 q0 -20 -10 -30 q-10 -10 -31 -10 l-14 0 q-21 0 -31 10 q-10 10 -10 30 l0 144 l-104 0 l0 -148 q0 -64 32 -97 q32 -32 97 -32 l47 0 q130 0 130 130 l0 114 q1 42 -13 69 q-14 27 -49 52 l0 0 ZM293 838 l-66 0 l-45 -39 l-45 39 l-66 0 l70 -97 l82 0 l70 97 Z" /><glyph glyph-name="" unicode="&#x161;" d="M272 699 l-66 0 l-41 -48 l-41 48 l-66 0 l66 -109 l82 0 l66 109 ZM206 355 l98 0 l0 79 q0 60 -30 91 q-30 30 -91 30 l-34 0 q-122 0 -122 -122 l0 -63 q0 -38 15 -61 q15 -24 46 -43 l96 -59 q13 -8 18 -18 q6 -10 6 -24 l0 -47 q0 -36 -36 -36 l-13 0 q-35 0 -35 36 l0 81 l-98 0 l0 -84 q0 -60 30 -90 q30 -31 91 -31 l36 0 q122 0 122 122 l0 66 q0 39 -15 62 q-15 23 -47 42 l-95 60 q-13 8 -19 18 q-5 9 -5 24 l0 43 q0 36 35 36 l12 0 q35 0 35 -36 l0 -76 Z" /><glyph glyph-name="" unicode="&#x15e;" d="M273 359 l-108 79 q-15 10 -22 23 q-8 13 -8 34 l0 78 q0 40 40 40 l13 0 q40 0 40 -40 l0 -123 l105 0 l0 127 q0 129 -129 129 l-45 0 q-130 0 -130 -130 l0 -96 q-1 -40 13 -68 q14 -28 49 -53 l108 -79 q15 -11 23 -23 q7 -13 7 -34 l0 -96 q0 -20 -10 -30 q-10 -10 -31 -10 l-14 0 q-21 0 -31 10 q-10 10 -10 30 l0 144 l-104 0 l0 -148 q0 -64 31 -96 q30 -32 93 -33 l-42 -93 l89 0 l19 94 q116 6 116 129 l0 114 q1 42 -13 69 q-14 27 -49 52 l0 0 Z" /><glyph glyph-name="" unicode="&#x15f;" d="M206 355 l98 0 l0 79 q0 60 -30 91 q-30 30 -91 30 l-34 0 q-122 0 -122 -122 l0 -63 q0 -38 15 -61 q15 -24 46 -43 l96 -59 q13 -8 18 -18 q6 -10 6 -24 l0 -47 q0 -36 -36 -36 l-13 0 q-35 0 -35 36 l0 81 l-98 0 l0 -84 q0 -114 108 -120 l-42 -94 l89 0 l19 94 q52 4 78 34 q27 31 27 87 l0 66 q0 39 -15 62 q-15 23 -47 42 l-95 60 q-13 8 -19 18 q-5 9 -5 24 l0 43 q0 36 35 36 l12 0 q35 0 35 -36 l0 -76 Z" /><glyph glyph-name="" unicode="&#x218;" d="M273 359 l-108 79 q-15 10 -22 23 q-8 13 -8 34 l0 78 q0 40 40 40 l13 0 q40 0 40 -40 l0 -123 l105 0 l0 127 q0 129 -129 129 l-45 0 q-130 0 -130 -130 l0 -96 q-1 -40 13 -68 q14 -28 49 -53 l108 -79 q15 -11 23 -23 q7 -13 7 -34 l0 -96 q0 -20 -10 -30 q-10 -10 -31 -10 l-14 0 q-21 0 -31 10 q-10 10 -10 30 l0 144 l-104 0 l0 -148 q0 -64 32 -97 q32 -32 97 -32 l47 0 q130 0 130 130 l0 114 q1 42 -13 69 q-14 27 -49 52 l0 0 ZM223 -41 l-81 0 l0 -97 l30 0 q0 -7 -4 -17 q-3 -10 -13 -26 l-14 -22 l28 -18 l20 24 q21 25 28 45 q7 19 6 51 l0 60 Z" /><glyph glyph-name="" unicode="&#x219;" d="M206 355 l98 0 l0 79 q0 60 -30 91 q-30 30 -91 30 l-34 0 q-122 0 -122 -122 l0 -63 q0 -38 15 -61 q15 -24 46 -43 l96 -59 q13 -8 18 -18 q6 -10 6 -24 l0 -47 q0 -36 -36 -36 l-13 0 q-35 0 -35 36 l0 81 l-98 0 l0 -84 q0 -60 30 -90 q30 -31 91 -31 l36 0 q122 0 122 122 l0 66 q0 39 -15 62 q-15 23 -47 42 l-95 60 q-13 8 -19 18 q-5 9 -5 24 l0 43 q0 36 35 36 l12 0 q35 0 35 -36 l0 -76 ZM206 -41 l-81 0 l0 -97 l30 0 q0 -7 -4 -17 q-3 -10 -13 -26 l-14 -22 l28 -18 l20 24 q21 25 28 45 q7 19 6 51 l0 60 Z" /><glyph glyph-name="" unicode="&#x164;" d="M271 838 l-66 0 l-45 -39 l-45 39 l-66 0 l70 -97 l82 0 l70 97 ZM213 0 l0 603 l96 0 l0 97 l-299 0 l0 -97 l96 0 l0 -603 l107 0 Z" /><glyph glyph-name="" unicode="&#x165;" d="M177 588 l42 0 l30 122 l-72 0 l0 -122 ZM151 461 l53 0 l0 88 l-53 0 l0 90 l-101 0 l0 -90 l-36 0 l0 -88 l36 0 l0 -461 l101 0 l0 461 Z" /><glyph glyph-name="" unicode="&#x162;&#x21a;" d="M213 0 l0 603 l96 0 l0 97 l-299 0 l0 -97 l96 0 l0 -603 l107 0 ZM201 -41 l-81 0 l0 -97 l30 0 q0 -7 -4 -17 q-3 -10 -13 -26 l-14 -22 l28 -18 l20 24 q21 25 28 45 q7 19 6 51 l0 60 Z" /><glyph glyph-name="" unicode="&#x163;&#x21b;" d="M151 461 l53 0 l0 88 l-53 0 l0 90 l-101 0 l0 -90 l-36 0 l0 -88 l36 0 l0 -461 l101 0 l0 461 ZM146 -41 l-81 0 l0 -97 l30 0 q0 -7 -4 -17 q-3 -10 -13 -26 l-14 -22 l28 -18 l20 24 q21 25 28 45 q7 19 6 51 l0 60 Z" /><glyph glyph-name="" unicode="ú" d="M150 741 l71 0 l73 89 l-101 0 l-43 -89 ZM343 700 l-107 0 l0 -571 q0 -21 -10 -31 q-10 -10 -30 -10 l-17 0 q-21 0 -31 10 q-10 10 -10 31 l0 571 l-107 0 l0 -576 q0 -130 130 -130 l52 0 q130 0 130 130 l0 576 Z" /><glyph glyph-name="" unicode="ú" d="M317 549 l-101 0 l0 -446 q-13 -8 -26 -13 q-14 -4 -27 -4 q-17 0 -26 8 q-8 8 -8 24 l0 431 l-101 0 l0 -461 q0 -46 22 -70 q23 -24 67 -24 l4 0 q31 0 54 12 q24 12 42 30 l0 -36 l100 0 l0 549 ZM136 590 l71 0 l67 109 l-101 0 l-37 -109 Z" /><glyph glyph-name="" unicode="&#x16c;" d="M87 814 q0 -40 20 -59 q20 -19 63 -19 l34 0 q43 0 63 19 q20 19 20 59 l0 18 l-66 0 l0 -12 q0 -13 -7 -18 q-7 -6 -21 -6 l-12 0 q-14 0 -21 6 q-7 5 -7 18 l0 12 l-66 0 l0 -18 ZM343 700 l-107 0 l0 -571 q0 -21 -10 -31 q-10 -10 -30 -10 l-17 0 q-21 0 -31 10 q-10 10 -10 31 l0 571 l-107 0 l0 -576 q0 -130 130 -130 l52 0 q130 0 130 130 l0 576 Z" /><glyph glyph-name="" unicode="&#x16d;" d="M317 549 l-101 0 l0 -446 q-13 -8 -26 -13 q-14 -4 -27 -4 q-17 0 -26 8 q-8 8 -8 24 l0 431 l-101 0 l0 -461 q0 -46 22 -70 q23 -24 67 -24 l4 0 q31 0 54 12 q24 12 42 30 l0 -36 l100 0 l0 549 ZM75 672 q0 -44 20 -65 q20 -20 63 -20 l30 0 q43 0 63 20 q20 21 20 65 l0 27 l-66 0 l0 -25 q0 -27 -28 -27 l-8 0 q-28 0 -28 27 l0 25 l-66 0 l0 -27 Z" /><glyph glyph-name="" unicode="û" d="M343 700 l-107 0 l0 -571 q0 -21 -10 -31 q-10 -10 -30 -10 l-17 0 q-21 0 -31 10 q-10 10 -10 31 l0 571 l-107 0 l0 -576 q0 -130 130 -130 l52 0 q130 0 130 130 l0 576 ZM228 838 l-82 0 l-70 -97 l66 0 l45 39 l45 -39 l66 0 l-70 97 Z" /><glyph glyph-name="" unicode="û" d="M317 549 l-101 0 l0 -446 q-13 -8 -26 -13 q-14 -4 -27 -4 q-17 0 -26 8 q-8 8 -8 24 l0 431 l-101 0 l0 -461 q0 -46 22 -70 q23 -24 67 -24 l4 0 q31 0 54 12 q24 12 42 30 l0 -36 l100 0 l0 549 ZM214 699 l-82 0 l-66 -109 l66 0 l41 48 l41 -48 l66 0 l-66 109 Z" /><glyph glyph-name="" unicode="ü" d="M207 741 l85 0 l0 82 l-85 0 l0 -82 ZM167 823 l-85 0 l0 -82 l85 0 l0 82 ZM343 700 l-107 0 l0 -571 q0 -21 -10 -31 q-10 -10 -30 -10 l-17 0 q-21 0 -31 10 q-10 10 -10 31 l0 571 l-107 0 l0 -576 q0 -130 130 -130 l52 0 q130 0 130 130 l0 576 Z" /><glyph glyph-name="" unicode="ü" d="M317 549 l-101 0 l0 -446 q-13 -8 -26 -13 q-14 -4 -27 -4 q-17 0 -26 8 q-8 8 -8 24 l0 431 l-101 0 l0 -461 q0 -46 22 -70 q23 -24 67 -24 l4 0 q31 0 54 12 q24 12 42 30 l0 -36 l100 0 l0 549 ZM193 590 l83 0 l0 102 l-83 0 l0 -102 ZM153 692 l-83 0 l0 -102 l83 0 l0 102 Z" /><glyph glyph-name="" unicode="ù" d="M181 830 l-103 0 l74 -89 l73 0 l-44 89 ZM343 700 l-107 0 l0 -571 q0 -21 -10 -31 q-10 -10 -30 -10 l-17 0 q-21 0 -31 10 q-10 10 -10 31 l0 571 l-107 0 l0 -576 q0 -130 130 -130 l52 0 q130 0 130 130 l0 576 Z" /><glyph glyph-name="" unicode="ù" d="M317 549 l-101 0 l0 -446 q-13 -8 -26 -13 q-14 -4 -27 -4 q-17 0 -26 8 q-8 8 -8 24 l0 431 l-101 0 l0 -461 q0 -46 22 -70 q23 -24 67 -24 l4 0 q31 0 54 12 q24 12 42 30 l0 -36 l100 0 l0 549 ZM173 699 l-101 0 l67 -109 l71 0 l-37 109 Z" /><glyph glyph-name="" unicode="&#x170;" d="M343 700 l-107 0 l0 -571 q0 -21 -10 -31 q-10 -10 -30 -10 l-17 0 q-21 0 -31 10 q-10 10 -10 31 l0 571 l-107 0 l0 -576 q0 -130 130 -130 l52 0 q130 0 130 130 l0 576 ZM116 741 l53 0 l72 89 l-88 0 l-37 -89 ZM207 741 l54 0 l72 89 l-89 0 l-37 -89 Z" /><glyph glyph-name="" unicode="&#x171;" d="M317 549 l-101 0 l0 -446 q-13 -8 -26 -13 q-14 -4 -27 -4 q-17 0 -26 8 q-8 8 -8 24 l0 431 l-101 0 l0 -461 q0 -46 22 -70 q23 -24 67 -24 l4 0 q31 0 54 12 q24 12 42 30 l0 -36 l100 0 l0 549 ZM193 590 l52 0 l66 109 l-87 0 l-31 -109 ZM103 590 l52 0 l66 109 l-86 0 l-32 -109 Z" /><glyph glyph-name="" unicode="&#x16a;" d="M81 813 l0 -65 l212 0 l0 65 l-212 0 ZM343 700 l-107 0 l0 -571 q0 -21 -10 -31 q-10 -10 -30 -10 l-17 0 q-21 0 -31 10 q-10 10 -10 31 l0 571 l-107 0 l0 -576 q0 -130 130 -130 l52 0 q130 0 130 130 l0 576 Z" /><glyph glyph-name="" unicode="&#x16b;" d="M317 549 l-101 0 l0 -446 q-13 -8 -26 -13 q-14 -4 -27 -4 q-17 0 -26 8 q-8 8 -8 24 l0 431 l-101 0 l0 -461 q0 -46 22 -70 q23 -24 67 -24 l4 0 q31 0 54 12 q24 12 42 30 l0 -36 l100 0 l0 549 ZM67 672 l0 -75 l212 0 l0 75 l-212 0 Z" /><glyph glyph-name="" unicode="&#x172;" d="M343 700 l-107 0 l0 -571 q0 -21 -10 -31 q-10 -10 -30 -10 l-17 0 q-21 0 -31 10 q-10 10 -10 31 l0 571 l-107 0 l0 -576 q0 -126 121 -130 q-8 -13 -13 -24 q-4 -12 -4 -24 l0 -6 q0 -23 12 -35 q12 -12 41 -12 l53 0 l0 57 l-26 0 q-6 0 -8 2 q-3 2 -3 7 q0 6 2 12 q3 6 8 15 l5 8 q124 3 124 130 l0 576 Z" /><glyph glyph-name="" unicode="&#x173;" d="M317 549 l-101 0 l0 -446 q-13 -8 -26 -13 q-14 -4 -27 -4 q-17 0 -26 8 q-8 8 -8 24 l0 431 l-101 0 l0 -461 q0 -46 22 -70 q23 -24 67 -24 l4 0 q31 0 54 12 q24 12 42 30 l0 -36 l21 0 l-1 -2 q-10 -15 -15 -27 q-5 -12 -5 -25 l0 -6 q0 -23 12 -35 q12 -12 41 -12 l53 0 l0 57 l-26 0 q-6 0 -8 2 q-3 2 -3 7 q0 6 2 12 q3 6 8 15 l8 14 l13 0 l0 549 Z" /><glyph glyph-name="" unicode="&#x16e;" d="M343 700 l-107 0 l0 -571 q0 -21 -10 -31 q-10 -10 -30 -10 l-17 0 q-21 0 -31 10 q-10 10 -10 31 l0 571 l-107 0 l0 -576 q0 -130 130 -130 l52 0 q130 0 130 130 l0 576 ZM288 796 q0 24 -16 39 q-16 14 -49 14 l-72 0 q-33 0 -49 -14 q-16 -15 -16 -39 l0 -5 q0 -25 16 -39 q16 -14 49 -14 l72 0 q33 0 49 14 q16 14 16 39 l0 5 ZM262 791 q0 -15 -10 -23 q-9 -8 -31 -8 l-68 0 q-21 0 -31 8 q-10 8 -10 23 l0 4 q0 15 10 23 q10 8 31 8 l68 0 q22 0 31 -8 q10 -8 10 -23 l0 -4 Z" /><glyph glyph-name="" unicode="&#x16f;" d="M317 549 l-101 0 l0 -446 q-13 -8 -26 -13 q-14 -4 -27 -4 q-17 0 -26 8 q-8 8 -8 24 l0 431 l-101 0 l0 -461 q0 -46 22 -70 q23 -24 67 -24 l4 0 q31 0 54 12 q24 12 42 30 l0 -36 l100 0 l0 549 ZM259 647 q0 25 -15 40 q-16 15 -50 15 l-42 0 q-34 0 -50 -15 q-15 -15 -15 -40 l0 -6 q0 -25 15 -39 q16 -15 50 -15 l42 0 q34 0 50 15 q15 14 15 39 l0 6 ZM234 641 q0 -15 -10 -23 q-10 -9 -32 -9 l-37 0 q-23 0 -33 9 q-10 8 -10 23 l0 6 q0 16 10 24 q10 9 32 9 l38 0 q22 0 32 -9 q10 -8 10 -24 l0 -6 Z" /><glyph glyph-name="" unicode="&#x1e82;" d="M323 0 l126 0 l85 700 l-98 0 l-50 -499 l-54 499 l-103 0 l-54 -499 l-50 499 l-108 0 l85 -700 l127 0 l46 422 l48 -422 ZM243 741 l71 0 l73 89 l-101 0 l-43 -89 Z" /><glyph glyph-name="" unicode="&#x1e83;" d="M286 0 l103 0 l82 549 l-93 0 l-40 -358 l-48 358 l-91 0 l-48 -359 l-39 359 l-100 0 l82 -549 l103 0 l45 323 l44 -323 ZM209 590 l71 0 l67 109 l-101 0 l-37 -109 Z" /><glyph glyph-name="" unicode="&#x174;" d="M332 700 l-103 0 l-54 -499 l-50 499 l-108 0 l85 -700 l127 0 l46 422 l48 -422 l126 0 l85 700 l-98 0 l-50 -499 l-54 499 ZM321 838 l-82 0 l-70 -97 l66 0 l45 39 l45 -39 l66 0 l-70 97 Z" /><glyph glyph-name="" unicode="&#x175;" d="M290 549 l-91 0 l-48 -359 l-39 359 l-100 0 l82 -549 l103 0 l45 323 l44 -323 l103 0 l82 549 l-93 0 l-40 -358 l-48 358 ZM288 699 l-82 0 l-66 -109 l66 0 l41 48 l41 -48 l66 0 l-66 109 Z" /><glyph glyph-name="" unicode="&#x1e84;" d="M332 700 l-103 0 l-54 -499 l-50 499 l-108 0 l85 -700 l127 0 l46 422 l48 -422 l126 0 l85 700 l-98 0 l-50 -499 l-54 499 ZM260 823 l-85 0 l0 -82 l85 0 l0 82 ZM300 741 l85 0 l0 82 l-85 0 l0 -82 Z" /><glyph glyph-name="" unicode="&#x1e85;" d="M286 0 l103 0 l82 549 l-93 0 l-40 -358 l-48 358 l-91 0 l-48 -359 l-39 359 l-100 0 l82 -549 l103 0 l45 323 l44 -323 ZM267 590 l83 0 l0 102 l-83 0 l0 -102 ZM227 692 l-83 0 l0 -102 l83 0 l0 102 Z" /><glyph glyph-name="" unicode="&#x1e80;" d="M332 700 l-103 0 l-54 -499 l-50 499 l-108 0 l85 -700 l127 0 l46 422 l48 -422 l126 0 l85 700 l-98 0 l-50 -499 l-54 499 ZM275 830 l-103 0 l74 -89 l73 0 l-44 89 Z" /><glyph glyph-name="" unicode="&#x1e81;" d="M286 0 l103 0 l82 549 l-93 0 l-40 -358 l-48 358 l-91 0 l-48 -359 l-39 359 l-100 0 l82 -549 l103 0 l45 323 l44 -323 ZM247 699 l-101 0 l67 -109 l71 0 l-37 109 Z" /><glyph glyph-name="" unicode="ý" d="M342 700 l-103 0 l-64 -298 l-60 298 l-110 0 l115 -462 l0 -238 l107 0 l0 249 l115 451 ZM139 741 l71 0 l73 89 l-101 0 l-43 -89 Z" /><glyph glyph-name="" unicode="ý" d="M181 -110 l138 659 l-97 0 l-59 -334 l-53 334 l-101 0 l104 -528 l-29 -131 l97 0 ZM128 590 l71 0 l67 109 l-101 0 l-37 -109 Z" /><glyph glyph-name="" unicode="&#x176;" d="M342 700 l-103 0 l-64 -298 l-60 298 l-110 0 l115 -462 l0 -238 l107 0 l0 249 l115 451 ZM217 838 l-82 0 l-70 -97 l66 0 l45 39 l45 -39 l66 0 l-70 97 Z" /><glyph glyph-name="" unicode="&#x177;" d="M181 -110 l138 659 l-97 0 l-59 -334 l-53 334 l-101 0 l104 -528 l-29 -131 l97 0 ZM206 699 l-82 0 l-66 -109 l66 0 l41 48 l41 -48 l66 0 l-66 109 Z" /><glyph glyph-name="" unicode="&#x178;" d="M342 700 l-103 0 l-64 -298 l-60 298 l-110 0 l115 -462 l0 -238 l107 0 l0 249 l115 451 ZM156 823 l-85 0 l0 -82 l85 0 l0 82 ZM196 741 l85 0 l0 82 l-85 0 l0 -82 Z" /><glyph glyph-name="" unicode="ÿ" d="M181 -110 l138 659 l-97 0 l-59 -334 l-53 334 l-101 0 l104 -528 l-29 -131 l97 0 ZM145 692 l-83 0 l0 -102 l83 0 l0 102 ZM185 590 l83 0 l0 102 l-83 0 l0 -102 Z" /><glyph glyph-name="" unicode="&#x1ef2;" d="M342 700 l-103 0 l-64 -298 l-60 298 l-110 0 l115 -462 l0 -238 l107 0 l0 249 l115 451 ZM170 830 l-103 0 l74 -89 l73 0 l-44 89 Z" /><glyph glyph-name="" unicode="&#x1ef3;" d="M181 -110 l138 659 l-97 0 l-59 -334 l-53 334 l-101 0 l104 -528 l-29 -131 l97 0 ZM165 699 l-101 0 l67 -109 l71 0 l-37 109 Z" /><glyph glyph-name="" unicode="&#x179;" d="M175 604 l-156 -499 l0 -105 l260 0 l0 96 l-155 0 l155 499 l0 105 l-255 0 l0 -96 l151 0 ZM114 741 l71 0 l73 89 l-101 0 l-43 -89 Z" /><glyph glyph-name="" unicode="&#x17a;" d="M107 590 l71 0 l67 109 l-101 0 l-37 -109 ZM157 461 l-141 -373 l0 -88 l245 0 l0 88 l-142 0 l142 373 l0 88 l-240 0 l0 -88 l136 0 Z" /><glyph glyph-name="" unicode="&#x17d;" d="M262 838 l-66 0 l-45 -39 l-45 39 l-66 0 l70 -97 l82 0 l70 97 ZM175 604 l-156 -499 l0 -105 l260 0 l0 96 l-155 0 l155 499 l0 105 l-255 0 l0 -96 l151 0 Z" /><glyph glyph-name="" unicode="&#x17e;" d="M251 699 l-66 0 l-41 -48 l-41 48 l-66 0 l66 -109 l82 0 l66 109 ZM157 461 l-141 -373 l0 -88 l245 0 l0 88 l-142 0 l142 373 l0 88 l-240 0 l0 -88 l136 0 Z" /><glyph glyph-name="" unicode="&#x17b;" d="M196 819 l-90 0 l0 -78 l90 0 l0 78 ZM175 604 l-156 -499 l0 -105 l260 0 l0 96 l-155 0 l155 499 l0 105 l-255 0 l0 -96 l151 0 Z" /><glyph glyph-name="" unicode="&#x17c;" d="M157 461 l-141 -373 l0 -88 l245 0 l0 88 l-142 0 l142 373 l0 88 l-240 0 l0 -88 l136 0 ZM188 688 l-88 0 l0 -98 l88 0 l0 98 Z" /><glyph glyph-name="" unicode="æ" d="M453 0 l0 97 l-133 0 l0 211 l126 0 l0 97 l-126 0 l0 198 l131 0 l0 97 l-308 0 l-131 -700 l99 0 l18 110 l84 0 l0 -110 l240 0 ZM213 205 l-68 0 l68 404 l0 -404 Z" /><glyph glyph-name="" unicode="æ" d="M345 555 q-34 0 -52 -9 q-18 -9 -29 -24 q-12 15 -30 24 q-18 9 -51 9 l-23 0 q-122 0 -122 -122 l0 -71 l95 0 l0 68 q0 18 10 28 q9 9 28 9 l6 0 q19 0 28 -9 q9 -10 9 -28 l0 -82 l-105 -35 q-42 -14 -60 -39 q-18 -25 -17 -72 l0 -115 q0 -45 22 -69 q22 -24 65 -24 l1 0 q29 0 54 12 q24 12 57 35 q14 -23 40 -35 q26 -12 65 -12 l39 0 q122 0 122 122 l0 67 l-97 0 l0 -62 q0 -37 -37 -37 l-13 0 q-36 0 -36 37 l0 114 l183 0 l0 198 q0 122 -122 122 l-30 0 ZM214 101 q-13 -8 -26 -12 q-13 -4 -26 -4 q-32 0 -32 31 l0 81 q0 18 6 29 q7 10 23 16 l55 21 l0 -162 ZM314 429 q0 37 36 37 l11 0 q37 0 37 -37 l0 -108 l-84 0 l0 108 Z" /><glyph glyph-name="" unicode="&#x1fc;" d="M136 700 l-131 -700 l99 0 l18 110 l84 0 l0 -110 l240 0 l0 97 l-133 0 l0 211 l126 0 l0 97 l-126 0 l0 198 l131 0 l0 97 l-308 0 ZM206 205 l-68 0 l68 404 l0 -404 ZM226 741 l71 0 l73 89 l-101 0 l-43 -89 Z" /><glyph glyph-name="" unicode="&#x1fd;" d="M345 555 q-34 0 -52 -9 q-18 -9 -29 -24 q-12 15 -30 24 q-18 9 -51 9 l-23 0 q-122 0 -122 -122 l0 -71 l95 0 l0 68 q0 18 10 28 q9 9 28 9 l6 0 q19 0 28 -9 q9 -10 9 -28 l0 -82 l-105 -35 q-42 -14 -60 -39 q-18 -25 -17 -72 l0 -115 q0 -45 22 -69 q22 -24 65 -24 l1 0 q29 0 54 12 q24 12 57 35 q14 -23 40 -35 q26 -12 65 -12 l39 0 q122 0 122 122 l0 67 l-97 0 l0 -62 q0 -37 -37 -37 l-13 0 q-36 0 -36 37 l0 114 l183 0 l0 198 q0 122 -122 122 l-30 0 ZM214 101 q-13 -8 -26 -12 q-13 -4 -26 -4 q-32 0 -32 31 l0 81 q0 18 6 29 q7 10 23 16 l55 21 l0 -162 ZM314 429 q0 37 36 37 l11 0 q37 0 37 -37 l0 -108 l-84 0 l0 108 ZM229 590 l71 0 l67 109 l-101 0 l-37 -109 Z" /><glyph glyph-name="" unicode="&#x152;" d="M183 700 q-77 0 -115 -38 q-38 -38 -38 -115 l0 -394 q0 -77 38 -115 q38 -38 115 -38 l294 0 l0 97 l-133 0 l0 211 l126 0 l0 97 l-126 0 l0 198 l131 0 l0 97 l-292 0 ZM237 94 l-39 0 q-31 0 -46 15 q-15 16 -15 47 l0 388 q0 31 15 47 q15 15 46 15 l39 0 l0 -512 Z" /><glyph glyph-name="" unicode="&#x153;" d="M348 555 q-34 0 -52 -9 q-18 -9 -29 -24 q-11 15 -29 24 q-18 9 -51 9 l-38 0 q-122 0 -122 -122 l0 -317 q0 -122 122 -122 l38 0 q33 0 51 9 q18 9 29 23 q11 -14 29 -23 q18 -9 52 -9 l30 0 q122 0 122 122 l0 63 l-97 0 l0 -58 q0 -37 -37 -37 l-13 0 q-36 0 -36 37 l0 114 l183 0 l0 198 q0 122 -122 122 l-30 0 ZM181 463 q36 1 36 -35 l0 -309 q-1 -33 -36 -33 l-18 0 q-18 0 -26 9 q-9 8 -9 26 l0 307 q0 18 9 27 q8 8 26 8 l18 0 ZM317 429 q0 37 36 37 l11 0 q37 0 37 -37 l0 -108 l-84 0 l0 108 Z" /><glyph glyph-name="" unicode="ð" d="M44 0 l161 0 q78 0 116 38 q37 38 37 115 l0 394 q0 77 -37 115 q-38 38 -116 38 l-161 0 l0 -302 l-42 0 l0 -86 l42 0 l0 -312 ZM151 606 l39 0 q31 0 46 -15 q15 -16 15 -47 l0 -388 q0 -31 -15 -47 q-15 -15 -46 -15 l-39 0 l0 218 l60 0 l0 86 l-60 0 l0 208 Z" /><glyph glyph-name="" unicode="ð" d="M314 710 l-80 0 l-22 -38 l-82 36 l-41 -80 l94 -41 q21 -8 30 -19 q9 -10 9 -31 l0 -24 q-21 18 -47 29 q-26 10 -53 10 l-1 0 q-46 0 -70 -27 q-24 -27 -24 -75 l0 -334 q0 -122 122 -122 l47 0 q122 0 122 122 l0 434 q0 32 -10 54 q-11 23 -36 39 l42 67 ZM180 464 q37 0 37 -37 l0 -305 q0 -37 -37 -37 l-16 0 q-36 0 -36 37 l0 305 q0 37 36 37 l16 0 Z" /><glyph glyph-name="" unicode="þ" d="M139 130 l61 0 q130 0 130 130 l0 186 q0 130 -130 130 l-61 0 l0 124 l-107 0 l0 -700 l107 0 l0 130 ZM223 441 l0 -177 q0 -40 -40 -40 l-44 0 l0 257 l44 0 q40 0 40 -40 l0 0 Z" /><glyph glyph-name="" unicode="þ" d="M29 710 l0 -820 l101 0 l0 144 q17 -16 40 -28 q24 -11 55 -12 l1 0 q46 0 70 28 q24 27 24 75 l0 356 q0 48 -24 75 q-24 27 -70 27 l-1 0 q-31 -1 -55 -13 q-23 -13 -40 -30 l0 198 l-101 0 ZM130 445 q12 8 25 13 q13 5 28 5 q18 0 27 -8 q9 -8 9 -26 l0 -309 q0 -18 -9 -26 q-9 -8 -27 -8 q-15 0 -28 5 q-13 5 -25 13 l0 341 Z" /><glyph glyph-name="" unicode="&#x259;" d="M26 116 q0 -122 122 -122 l39 0 q122 0 122 122 l0 317 q0 122 -122 122 l-39 0 q-122 0 -122 -122 l0 -63 l97 0 l0 58 q0 37 37 37 l13 0 q36 0 36 -37 l0 -114 l-183 0 l0 -198 ZM173 83 l-11 0 q-37 0 -37 37 l0 108 l84 0 l0 -108 q0 -37 -36 -37 l0 0 Z" /><glyph glyph-name="" unicode="ß" d="M323 278 q0 38 -14 60 q-15 21 -46 30 q28 10 43 35 q15 24 15 69 l0 111 q0 63 -32 95 q-32 32 -95 32 l-38 0 q-62 0 -95 -32 q-32 -32 -32 -95 l0 -583 l101 0 l0 579 q0 20 10 30 q10 9 29 9 l14 0 q19 0 29 -9 q9 -10 9 -30 l0 -133 q0 -19 -9 -29 q-10 -9 -29 -9 l-23 0 l0 -92 l25 0 q19 0 29 -9 q9 -10 9 -30 l0 -149 q0 -37 -36 -37 l-27 0 l0 -91 l41 0 q122 0 122 122 l0 156 Z" /><glyph glyph-name="" unicode="0" d="M343 124 l0 452 q0 130 -130 130 l-53 0 q-130 0 -130 -130 l0 -452 q0 -130 130 -130 l53 0 q130 0 130 130 l0 0 ZM237 571 l0 -442 q0 -21 -10 -31 q-10 -10 -30 -10 l-20 0 q-21 0 -31 10 q-10 10 -10 31 l0 442 q0 21 10 31 q10 10 31 10 l20 0 q20 0 30 -10 q10 -10 10 -31 l0 0 Z" /><glyph glyph-name="" unicode="1" d="M176 703 l-68 0 l-12 -16 q-16 -23 -34 -34 q-18 -12 -47 -15 l-8 -1 l0 -78 l66 0 l0 -559 l103 0 l0 703 Z" /><glyph glyph-name="" unicode="2" d="M79 265 q-31 -39 -43 -70 q-12 -32 -12 -69 l0 -126 l302 0 l0 97 l-196 0 l0 25 q0 24 6 40 q7 17 23 37 l113 142 q32 39 43 71 q12 31 11 67 l0 97 q0 130 -129 130 l-42 0 q-129 0 -129 -130 l0 -129 l102 0 l0 124 q0 21 10 31 q10 10 30 10 l13 0 q39 1 39 -41 l0 -97 q0 -18 -6 -33 q-6 -15 -22 -34 l-113 -142 Z" /><glyph glyph-name="" unicode="3" d="M224 129 q0 -21 -10 -31 q-10 -10 -30 -10 l-18 0 q-21 0 -31 10 q-10 10 -10 31 l0 105 l-102 0 l0 -111 q0 -65 32 -97 q33 -32 97 -32 l48 0 q130 0 130 130 l0 148 q0 38 -14 60 q-15 21 -46 30 q28 10 43 35 q15 24 15 69 l0 110 q0 130 -130 130 l-43 0 q-130 0 -130 -130 l0 -97 l102 0 l0 92 q0 21 10 31 q10 10 30 10 l16 0 q39 1 39 -41 l0 -127 q0 -40 -39 -40 l-91 0 l0 -96 l93 0 q39 1 39 -41 l0 -138 Z" /><glyph glyph-name="" unicode="4" d="M14 120 l184 0 l0 -120 l96 0 l0 120 l50 0 l0 93 l-50 0 l0 487 l-140 0 l-140 -477 l0 -103 ZM198 213 l-97 0 l97 340 l0 -340 Z" /><glyph glyph-name="" unicode="5" d="M332 337 q-1 54 -29 84 q-29 30 -78 30 l-1 0 q-31 0 -53 -10 q-22 -10 -40 -26 l2 188 l189 0 l0 97 l-288 0 l0 -382 l94 0 q16 19 31 27 q14 8 30 8 q19 0 28 -11 q9 -11 9 -33 l0 -180 q0 -21 -10 -31 q-10 -10 -30 -10 l-13 0 q-20 0 -30 10 q-10 10 -10 31 l0 118 l-103 0 l0 -124 q0 -65 32 -97 q32 -32 96 -32 l45 0 q129 0 129 130 l0 213 Z" /><glyph glyph-name="" unicode="6" d="M136 571 q0 42 39 41 l17 0 q39 1 39 -41 l0 -89 l103 0 l0 96 q0 65 -31 97 q-32 31 -97 31 l-46 0 q-130 0 -130 -130 l0 -452 q0 -130 130 -130 l47 0 q130 0 130 130 l0 183 q0 53 -30 84 q-29 31 -83 32 l-5 0 q-24 0 -44 -6 q-21 -5 -39 -15 l0 169 ZM136 317 q10 5 25 8 q15 3 30 3 q22 0 31 -10 q10 -10 10 -32 l0 -157 q0 -41 -39 -41 l-18 0 q-39 0 -39 41 l0 188 Z" /><glyph glyph-name="" unicode="7" d="M176 603 l-133 -603 l104 0 l131 595 l0 105 l-267 0 l0 -97 l165 0 Z" /><glyph glyph-name="" unicode="8" d="M160 706 q-130 0 -130 -130 l0 -108 q0 -45 15 -69 q15 -25 43 -35 q-31 -9 -46 -30 q-14 -22 -14 -60 l0 -150 q0 -130 130 -130 l47 0 q130 0 130 130 l0 150 q0 38 -14 60 q-15 21 -46 30 q28 10 43 35 q15 24 15 69 l0 108 q0 130 -130 130 l-43 0 ZM132 272 q0 20 10 30 q10 10 31 10 l18 0 q40 0 40 -40 l0 -145 q0 -40 -40 -40 l-18 0 q-21 0 -31 10 q-10 10 -10 30 l0 145 ZM174 403 q-21 0 -31 10 q-10 10 -10 31 l0 129 q0 20 10 30 q10 10 31 10 l16 0 q40 0 40 -40 l0 -129 q0 -21 -10 -31 q-10 -10 -30 -10 l-16 0 Z" /><glyph glyph-name="" unicode="9" d="M189 88 l-17 0 q-39 0 -39 41 l0 81 l-103 0 l0 -88 q0 -66 32 -97 q31 -31 97 -31 l45 0 q130 0 130 130 l0 452 q0 130 -130 130 l-45 0 q-130 0 -130 -130 l0 -191 q0 -53 30 -84 q29 -31 83 -32 l4 0 q23 0 44 6 q20 5 38 14 l0 -160 q0 -41 -39 -41 l0 0 ZM228 375 q-9 -5 -24 -8 q-15 -3 -30 -3 q-21 0 -30 10 q-10 10 -10 32 l0 165 q0 42 39 41 l16 0 q39 1 39 -41 l0 -196 Z" /><glyph glyph-name="" unicode="." d="M126 133 l-101 0 l0 -133 l101 0 l0 133 Z" /><glyph glyph-name="" unicode="," d="M126 133 l-101 0 l0 -133 l35 0 q-3 -12 -8 -26 q-6 -15 -15 -36 l-13 -27 l41 -12 l23 34 q24 33 31 56 q8 23 7 62 l0 82 Z" /><glyph glyph-name="" unicode=":" d="M126 133 l-101 0 l0 -133 l101 0 l0 133 ZM126 548 l-101 0 l0 -133 l101 0 l0 133 Z" /><glyph glyph-name="" unicode=";" d="M126 133 l-101 0 l0 -133 l35 0 q-3 -12 -8 -26 q-6 -15 -15 -36 l-13 -27 l41 -12 l23 34 q24 33 31 56 q8 23 7 62 l0 82 ZM126 548 l-101 0 l0 -133 l101 0 l0 133 Z" /><glyph glyph-name="" unicode="&#x2026;" d="M126 133 l-101 0 l0 -133 l101 0 l0 133 ZM276 133 l-101 0 l0 -133 l101 0 l0 133 ZM427 133 l-101 0 l0 -133 l101 0 l0 133 Z" /><glyph glyph-name="" unicode="·" d="M126 366 l-101 0 l0 -133 l101 0 l0 133 Z" /><glyph glyph-name="" unicode="&amp;" d="M334 0 l112 0 l-99 181 l78 234 l-102 0 l-40 -129 l-106 197 q-10 19 -14 35 q-3 15 -3 33 l0 24 q0 37 38 37 l9 0 q37 0 37 -37 l0 -92 l101 0 l0 99 q0 62 -31 93 q-31 31 -94 31 l-37 0 q-125 0 -125 -126 l0 -26 q0 -29 4 -52 q5 -23 20 -51 l23 -42 l-39 -34 q-27 -23 -37 -52 q-10 -29 -10 -66 l0 -141 q0 -122 122 -122 l30 0 q52 0 79 19 q27 18 44 60 l40 -73 ZM178 86 l-21 0 q-36 0 -36 37 l0 131 q0 22 6 36 q6 14 22 27 l4 3 l82 -151 l-15 -42 q-7 -22 -16 -31 q-9 -10 -26 -10 l0 0 Z" /><glyph glyph-name="" unicode="!" d="M136 539 l0 161 l-103 0 l0 -161 l28 -341 l48 0 l27 341 ZM135 133 l-100 0 l0 -133 l100 0 l0 133 Z" /><glyph glyph-name="" unicode="¡" d="M109 502 l-48 0 l-28 -341 l0 -161 l103 0 l0 161 l-27 341 ZM135 700 l-100 0 l0 -133 l100 0 l0 133 Z" /><glyph glyph-name="" unicode="?" d="M161 399 q-27 -28 -37 -49 q-10 -21 -9 -59 l0 -101 l82 0 l0 63 q0 20 3 33 q3 13 15 27 l41 47 q32 34 44 60 q13 25 12 61 l0 95 q0 130 -130 130 l-35 0 q-130 0 -130 -130 l0 -125 l97 0 l0 120 q0 21 10 31 q10 10 30 10 l13 0 q39 1 39 -41 l0 -93 q0 -16 -6 -29 q-5 -12 -18 -26 l-21 -24 ZM206 133 l-100 0 l0 -133 l100 0 l0 133 Z" /><glyph glyph-name="" unicode="¿" d="M168 301 q27 28 37 49 q10 21 9 59 l0 101 l-82 0 l0 -63 q0 -20 -3 -33 q-3 -13 -15 -27 l-41 -47 q-32 -34 -44 -60 q-13 -25 -12 -61 l0 -95 q0 -130 130 -130 l35 0 q130 0 130 130 l0 125 l-97 0 l0 -120 q0 -21 -10 -31 q-10 -10 -30 -10 l-13 0 q-39 0 -39 41 l0 93 q0 16 6 29 q5 12 18 26 l21 24 ZM123 567 l100 0 l0 133 l-100 0 l0 -133 Z" /><glyph glyph-name="" unicode="&#x201c;" d="M23 455 l99 0 l0 133 l-37 0 q1 15 8 33 q6 17 18 43 l12 30 l-40 11 l-23 -36 q-24 -34 -31 -58 q-7 -24 -6 -65 l0 -91 ZM161 455 l99 0 l0 133 l-37 0 q1 15 8 33 q6 17 17 43 l13 30 l-40 11 l-23 -36 q-24 -34 -31 -58 q-7 -24 -6 -65 l0 -91 Z" /><glyph glyph-name="" unicode="&#x201d;" d="M262 700 l-99 0 l0 -133 l36 0 q-1 -15 -8 -33 q-6 -18 -17 -43 l-12 -30 l40 -11 l23 36 q24 34 31 58 q7 24 6 65 l0 91 ZM124 700 l-99 0 l0 -133 l37 0 q-2 -15 -8 -33 q-6 -18 -17 -43 l-13 -30 l40 -11 l23 36 q24 34 31 58 q7 24 6 65 l0 91 Z" /><glyph glyph-name="" unicode="&#x2018;" d="M23 455 l101 0 l0 133 l-37 0 q1 15 8 33 q6 17 17 43 l13 30 l-41 11 l-23 -36 q-24 -34 -31 -58 q-8 -24 -7 -65 l0 -91 Z" /><glyph glyph-name="" unicode="&#x2019;" d="M126 700 l-101 0 l0 -133 l37 0 q-2 -15 -8 -33 q-6 -18 -17 -43 l-13 -30 l41 -11 l23 36 q24 34 31 58 q8 24 7 65 l0 91 Z" /><glyph glyph-name="" unicode="&#x201e;" d="M262 134 l-99 0 l0 -133 l36 0 q-1 -15 -8 -33 q-6 -17 -17 -43 l-12 -30 l40 -11 l23 36 q24 34 31 58 q7 24 6 65 l0 91 ZM124 134 l-99 0 l0 -133 l37 0 q-2 -15 -8 -33 q-6 -17 -17 -43 l-13 -30 l40 -11 l23 36 q24 34 31 58 q7 24 6 65 l0 91 Z" /><glyph glyph-name="" unicode="&#x201a;" d="M126 134 l-101 0 l0 -133 l37 0 q-2 -15 -8 -33 q-6 -17 -17 -43 l-13 -30 l41 -11 l23 36 q24 34 31 58 q8 24 7 65 l0 91 Z" /><glyph glyph-name="" unicode="«" d="M4 285 l63 -160 l74 0 l-50 160 l50 159 l-75 0 l-62 -159 ZM121 285 l56 -160 l73 0 l-43 160 l43 159 l-75 0 l-54 -159 Z" /><glyph glyph-name="" unicode="»" d="M194 444 l-75 0 l50 -159 l-50 -160 l74 0 l63 160 l-62 159 ZM85 444 l-75 0 l43 -159 l-43 -160 l73 0 l56 160 l-54 159 Z" /><glyph glyph-name="" unicode="&#x2039;" d="M4 285 l77 -160 l84 0 l-64 160 l64 159 l-85 0 l-76 -159 Z" /><glyph glyph-name="" unicode="&#x203a;" d="M95 444 l-85 0 l64 -159 l-64 -160 l84 0 l77 160 l-76 159 Z" /><glyph glyph-name="" unicode="-" d="M13 331 l0 -93 l187 0 l0 93 l-187 0 Z" /><glyph glyph-name="" unicode="&#x2013;" d="M13 323 l0 -77 l347 0 l0 77 l-347 0 Z" /><glyph glyph-name="" unicode="&#x2014;" d="M13 323 l0 -77 l537 0 l0 77 l-537 0 Z" /><glyph glyph-name="" unicode="/" d="M211 732 l-78 0 l-130 -764 l78 0 l130 764 Z" /><glyph glyph-name="" unicode="\" d="M133 -32 l78 0 l-130 764 l-78 0 l130 -764 Z" /><glyph glyph-name="" unicode="|" d="M161 763 l-74 0 l0 -830 l74 0 l0 830 Z" /><glyph glyph-name="" unicode="(" d="M199 -19 q-51 67 -69 124 q-18 57 -17 169 l0 152 q-1 112 17 169 q18 57 69 124 l-55 23 q-67 -64 -91 -130 q-24 -65 -22 -187 l0 -150 q-2 -122 22 -187 q24 -66 91 -130 l55 23 Z" /><glyph glyph-name="" unicode=")" d="M8 719 q51 -67 69 -124 q18 -57 17 -169 l0 -152 q1 -112 -17 -169 q-18 -57 -69 -124 l55 -23 q67 64 91 130 q24 65 22 187 l0 150 q2 122 -22 187 q-24 66 -91 130 l-55 -23 Z" /><glyph glyph-name="" unicode="[" d="M197 31 l-80 0 l0 638 l80 0 l0 63 l-159 0 l0 -764 l159 0 l0 63 Z" /><glyph glyph-name="" unicode="]" d="M7 -32 l159 0 l0 764 l-159 0 l0 -63 l80 0 l0 -638 l-80 0 l0 -63 Z" /><glyph glyph-name="" unicode="{" d="M81 205 q-2 -93 20 -140 q22 -47 93 -107 l55 23 q-57 65 -72 106 q-15 40 -13 117 l0 57 q0 38 -14 60 q-15 21 -46 30 q28 10 44 35 q16 24 16 69 l0 41 q-2 77 13 118 q15 40 72 105 l-55 23 q-71 -60 -93 -107 q-22 -47 -20 -140 l0 -72 q0 -18 -9 -25 q-9 -8 -27 -11 l-34 -6 l0 -60 l34 -7 q17 -3 27 -10 q9 -8 9 -26 l0 -73 Z" /><glyph glyph-name="" unicode="}" d="M176 278 q0 18 9 26 q10 7 27 10 l34 7 l0 60 l-34 6 q-18 3 -27 11 q-9 7 -9 25 l0 72 q2 93 -20 140 q-22 47 -93 107 l-55 -23 q57 -65 72 -105 q15 -41 13 -118 l0 -41 q0 -45 16 -69 q16 -25 44 -35 q-31 -9 -46 -30 q-14 -22 -14 -60 l0 -57 q2 -77 -13 -117 q-15 -41 -72 -106 l55 -23 q71 60 93 107 q22 47 20 140 l0 73 Z" /><glyph glyph-name="" unicode="@" d="M390 30 q37 0 56 20 q18 20 18 63 l0 349 q0 89 -37 127 q-38 38 -119 37 l-118 0 q-81 1 -119 -37 q-37 -38 -37 -127 l0 -373 q-1 -90 36 -128 q37 -37 120 -36 l241 0 l0 34 l-241 0 q-63 -1 -92 29 q-28 29 -28 101 l0 373 q0 72 28 101 q29 30 92 29 l118 0 q63 1 92 -29 q28 -29 28 -101 l0 -348 q0 -25 -9 -38 q-9 -12 -28 -12 l-6 0 q-12 0 -18 6 q-6 6 -6 19 l0 340 q0 94 -96 94 l-30 0 q-48 0 -72 -23 q-25 -24 -25 -71 l0 -70 l80 0 l0 60 q0 15 7 22 q7 7 22 7 l5 0 q15 0 22 -7 q6 -7 6 -22 l0 -81 l-84 -28 q-35 -11 -49 -33 q-14 -21 -14 -60 l0 -109 q0 -38 19 -58 q19 -21 54 -21 q23 0 43 10 q20 10 39 31 q8 -21 24 -30 q16 -10 44 -10 l34 0 ZM240 106 q-26 0 -26 27 l0 78 q0 15 5 23 q5 9 18 14 l43 16 l0 -144 q-11 -7 -20 -10 q-10 -4 -20 -4 l0 0 Z" /><glyph glyph-name="" unicode="©" d="M459 542 q0 87 -38 126 q-39 39 -118 38 l-113 0 q-79 1 -118 -38 q-38 -39 -38 -126 l0 -384 q0 -87 38 -126 q39 -39 118 -38 l113 0 q79 -1 118 38 q38 39 38 126 l0 384 ZM433 158 q0 -74 -32 -107 q-32 -34 -98 -33 l-113 0 q-66 -1 -98 33 q-32 33 -32 107 l0 384 q0 74 32 108 q32 33 98 32 l113 0 q66 1 98 -32 q32 -34 32 -108 l0 -384 ZM281 302 l0 -110 q0 -14 -6 -20 q-7 -6 -21 -6 l-10 0 q-14 0 -21 6 q-6 6 -6 20 l0 318 q0 13 6 20 q7 6 21 6 l9 0 q13 0 20 -6 q6 -7 6 -20 l0 -97 l80 0 l0 107 q0 46 -24 69 q-24 22 -72 22 l-32 0 q-48 0 -71 -22 q-24 -23 -24 -69 l0 -339 q0 -46 24 -69 q23 -22 71 -22 l34 0 q48 0 72 22 q24 23 24 69 l0 121 l-80 0 Z" /><glyph glyph-name="" unicode="&#x2117;" d="M459 542 q0 87 -38 126 q-39 39 -118 38 l-113 0 q-79 1 -118 -38 q-38 -39 -38 -126 l0 -384 q0 -87 38 -126 q39 -39 118 -38 l113 0 q79 -1 118 38 q38 39 38 126 l0 384 ZM433 158 q0 -74 -32 -107 q-32 -34 -98 -33 l-113 0 q-66 -1 -98 33 q-32 33 -32 107 l0 384 q0 74 32 108 q32 33 98 32 l113 0 q66 1 98 -32 q32 -34 32 -108 l0 -384 ZM223 272 l44 0 q48 0 72 23 q23 22 23 68 l0 153 q0 46 -23 69 q-24 22 -72 22 l-124 0 l0 -513 l80 0 l0 178 ZM282 505 l0 -131 q0 -13 -6 -20 q-7 -6 -22 -6 l-31 0 l0 184 l31 0 q15 0 22 -7 q6 -6 6 -20 l0 0 Z" /><glyph glyph-name="" unicode="®" d="M275 610 q0 51 -23 74 q-24 22 -74 22 l-60 0 q-50 0 -74 -22 q-23 -23 -23 -74 l0 -178 q0 -52 23 -75 q24 -22 74 -22 l60 0 q50 0 74 22 q23 23 23 75 l0 178 ZM255 432 q0 -42 -18 -60 q-19 -18 -59 -18 l-60 0 q-40 0 -59 18 q-18 18 -18 60 l0 178 q0 41 18 59 q19 18 59 18 l60 0 q40 0 59 -18 q18 -18 18 -59 l0 -178 ZM218 599 q0 23 -14 34 q-14 11 -41 11 l-80 0 l0 -246 l48 0 l0 92 l21 0 q19 0 19 -16 l0 -76 l47 0 l0 81 q0 13 -6 21 q-6 7 -20 11 q13 4 19 12 q7 9 7 25 l0 51 ZM171 544 q0 -7 -5 -11 q-4 -3 -14 -3 l-21 0 l0 73 l23 0 q17 0 17 -13 l0 -46 Z" /><glyph glyph-name="" unicode="&#x2120;" d="M290 700 l-77 0 l0 -305 l47 0 l0 216 l34 -216 l49 0 l35 218 l0 -218 l52 0 l0 305 l-76 0 l-32 -220 l-32 220 ZM88 509 l-54 0 l0 -58 q0 -59 63 -59 l27 0 q31 0 47 15 q15 15 15 44 l0 50 q0 18 -6 30 q-7 12 -23 23 l-54 36 q-7 4 -11 10 q-4 5 -4 15 l0 23 q0 10 5 14 q4 4 14 4 l7 0 q10 0 14 -4 q5 -4 5 -14 l0 -45 l52 0 l0 51 q0 29 -15 44 q-16 15 -47 15 l-26 0 q-63 0 -63 -59 l0 -42 q0 -17 7 -29 q7 -12 24 -24 l54 -36 q7 -5 11 -10 q3 -6 3 -15 l0 -31 q0 -10 -4 -14 q-5 -4 -16 -4 l-6 0 q-10 0 -15 4 q-4 4 -4 14 l0 52 Z" /><glyph glyph-name="" unicode="&#x2122;" d="M326 395 l34 216 l0 -216 l53 0 l0 305 l-76 0 l-32 -223 l-33 223 l-76 0 l0 -305 l46 0 l0 220 l34 -220 l50 0 ZM125 395 l0 255 l49 0 l0 50 l-154 0 l0 -50 l49 0 l0 -255 l56 0 Z" /><glyph glyph-name="" unicode="*" d="M162 702 l-57 0 l2 -95 l-90 52 l-3 0 l0 -63 l72 -37 l-72 -37 l0 -63 l3 0 l90 52 l-2 -95 l57 0 l-2 95 l90 -52 l3 0 l0 63 l-73 37 l73 37 l0 63 l-3 0 l-91 -52 l3 95 Z" /><glyph glyph-name="" unicode="&#x2020;" d="M149 348 l-3 214 l80 -3 l0 62 l-80 -3 l3 84 l-62 0 l2 -84 l-79 3 l0 -62 l79 3 l-2 -214 l62 0 Z" /><glyph glyph-name="" unicode="&#x2021;" d="M88 452 l1 -109 l-79 3 l0 -62 l79 3 l-2 -84 l62 0 l-3 84 l80 -3 l0 62 l-80 -3 l2 109 l-2 110 l80 -3 l0 62 l-80 -3 l3 84 l-62 0 l2 -84 l-79 3 l0 -62 l79 3 l-1 -110 Z" /><glyph glyph-name="" unicode="&#x2022;" d="M196 395 q0 28 -16 42 q-16 14 -46 14 l-30 0 q-31 0 -46 -14 q-16 -14 -16 -42 l0 -86 q0 -56 62 -56 l30 0 q30 0 46 14 q16 14 16 42 l0 86 Z" /><glyph glyph-name="" unicode="^" d="M235 700 l-70 0 l-100 -205 l76 0 l59 125 l59 -125 l76 0 l-100 205 Z" /><glyph glyph-name="" unicode="~" d="M67 293 q19 19 38 26 q19 6 36 6 l2 0 q21 0 51 -11 l13 -5 q14 -5 27 -8 q14 -3 27 -3 l3 0 q18 0 38 8 q20 9 37 28 l0 80 q-19 -18 -38 -25 q-18 -7 -35 -7 l-3 0 q-9 0 -22 3 q-13 2 -28 8 l-18 6 q-11 4 -24 7 q-13 3 -26 3 l-3 0 q-18 0 -39 -8 q-20 -8 -36 -27 l0 -81 Z" /><glyph glyph-name="" unicode="$" d="M269 360 l-105 77 q-15 11 -23 23 q-8 13 -8 34 l0 76 q0 20 10 30 q10 10 31 10 l12 0 q40 0 40 -40 l0 -120 l103 0 l0 124 q0 61 -28 93 q-28 31 -86 35 l0 71 l-72 0 l0 -71 q-58 -4 -86 -36 q-28 -32 -28 -93 l0 -93 q-1 -40 13 -68 q14 -28 49 -53 l105 -77 q16 -11 23 -23 q7 -13 7 -35 l0 -94 q0 -20 -9 -30 q-10 -10 -31 -10 l-14 0 q-40 0 -40 40 l0 141 l-103 0 l0 -145 q0 -61 28 -93 q29 -32 87 -35 l0 -75 l71 0 l0 75 q116 6 116 129 l0 112 q1 41 -13 69 q-14 27 -49 52 l0 0 Z" /><glyph glyph-name="" unicode="£" d="M18 273 l41 0 l0 -176 l-41 0 l0 -97 l341 0 l0 97 l-194 0 l0 176 l126 0 l0 95 l-126 0 l0 203 q0 42 39 41 l11 0 q20 0 30 -10 q10 -10 10 -31 l0 -108 l102 0 l0 114 q0 65 -32 97 q-32 32 -97 32 l-39 0 q-130 0 -130 -130 l0 -208 l-41 0 l0 -95 Z" /><glyph glyph-name="" unicode="&#x20ac;" d="M16 437 l0 -62 l37 0 l0 -41 l-37 0 l0 -62 l37 0 l0 -148 q0 -130 130 -130 l42 0 q130 0 130 130 l0 98 l-103 0 l0 -93 q0 -41 -39 -41 l-15 0 q-39 0 -39 41 l0 143 l145 0 l0 62 l-145 0 l0 41 l145 0 l0 62 l-145 0 l0 134 q0 42 39 41 l13 0 q39 1 39 -41 l0 -86 l103 0 l0 92 q0 65 -32 97 q-32 32 -97 32 l-41 0 q-130 0 -130 -130 l0 -139 l-37 0 Z" /><glyph glyph-name="" unicode="¥" d="M26 293 l0 -61 l93 0 l0 -41 l-93 0 l0 -62 l93 0 l0 -129 l104 0 l0 129 l93 0 l0 62 l-93 0 l0 41 l93 0 l0 61 l-84 0 l104 407 l-101 0 l-62 -289 l-59 289 l-108 0 l103 -407 l-83 0 Z" /><glyph glyph-name="" unicode="¢" d="M209 415 l97 0 l0 100 q0 55 -25 85 q-26 31 -76 36 l0 67 l-72 0 l0 -67 q-52 -5 -78 -35 q-26 -30 -26 -86 l0 -327 q0 -113 104 -122 l0 -69 l72 0 l0 69 q50 5 76 36 q26 30 26 86 l0 119 l-97 0 l0 -115 q0 -36 -36 -36 l-10 0 q-37 0 -37 36 l0 318 q0 37 37 37 l9 0 q36 0 36 -37 l0 -95 Z" /><glyph glyph-name="" unicode="#" d="M288 702 l-80 0 l0 -138 l-65 -17 l0 155 l-80 0 l0 -176 l-48 -12 l0 -111 l48 12 l0 -182 l-48 -12 l0 -111 l48 12 l0 -124 l80 0 l0 145 l65 17 l0 -162 l80 0 l0 183 l48 13 l0 111 l-48 -13 l0 182 l48 13 l0 111 l-48 -13 l0 117 ZM143 436 l65 17 l0 -182 l-65 -17 l0 182 Z" /><glyph glyph-name="" unicode="¶" d="M245 630 l0 -630 l69 0 l0 700 l-112 0 q-87 0 -129 -42 q-43 -43 -43 -130 l0 -357 q1 -87 41 -128 q41 -41 115 -43 l3 0 l0 630 l56 0 Z" /><glyph glyph-name="" unicode="§" d="M105 406 l222 -90 l0 17 q1 35 -10 56 q-12 20 -52 36 l-100 41 q-15 6 -23 14 q-8 9 -8 26 l0 68 q0 20 10 30 q10 10 31 10 l12 0 q21 0 31 -10 q10 -10 10 -30 l0 -82 l100 0 l0 85 q0 65 -32 97 q-32 32 -97 32 l-37 0 q-130 0 -130 -130 l0 -63 q0 -46 17 -69 q17 -23 56 -38 l0 0 ZM254 295 l-222 89 l0 -17 q-1 -35 10 -56 q12 -20 52 -36 l100 -41 q15 -6 23 -14 q8 -9 8 -26 l0 -68 q0 -20 -10 -30 q-10 -10 -31 -10 l-12 0 q-21 0 -31 10 q-10 10 -10 30 l0 82 l-100 0 l0 -85 q0 -65 32 -97 q32 -32 97 -32 l37 0 q130 0 130 130 l0 64 q0 46 -17 69 q-17 23 -56 38 l0 0 Z" /><glyph glyph-name="" unicode="ª" d="M28 467 q0 -28 14 -41 q13 -14 37 -14 l2 0 q20 0 33 7 q12 7 26 19 l0 -23 l58 0 l0 224 q0 33 -18 50 q-18 17 -53 17 l-26 0 q-35 0 -53 -17 q-17 -17 -17 -50 l0 -33 l56 0 l0 27 q0 11 6 16 q5 6 17 6 l7 0 q11 0 17 -6 q5 -5 5 -16 l0 -36 l-69 -21 q-23 -7 -33 -22 q-9 -14 -9 -40 l0 -47 ZM105 466 q-10 0 -14 4 q-5 5 -5 15 l0 25 q0 10 3 16 q4 6 12 9 l38 12 l0 -69 q-15 -12 -34 -12 l0 0 Z" /><glyph glyph-name="" unicode="º" d="M125 652 q11 0 16 -6 q6 -6 6 -17 l0 -140 q0 -11 -6 -17 q-5 -6 -16 -6 l-15 0 q-22 0 -22 23 l0 140 q0 23 22 23 l15 0 ZM135 412 q35 0 53 18 q18 18 18 53 l0 152 q0 35 -18 53 q-18 18 -53 18 l-36 0 q-34 0 -52 -18 q-18 -18 -18 -53 l0 -152 q0 -35 18 -53 q18 -18 52 -18 l36 0 Z" /><glyph glyph-name="" unicode="°" d="M237 622 q0 41 -21 62 q-21 22 -60 22 l-54 0 q-39 0 -60 -22 q-22 -21 -22 -62 l0 -196 q0 -41 22 -63 q21 -22 60 -22 l54 0 q39 0 60 22 q21 22 21 63 l0 196 ZM165 439 q0 -14 -7 -21 q-6 -7 -19 -7 l-20 0 q-13 0 -19 7 q-7 7 -7 21 l0 168 q0 29 26 29 l20 0 q26 0 26 -29 l0 -168 Z" /><glyph glyph-name="" unicode="%" d="M149 280 q5 0 10 0 q4 0 9 1 l-93 -283 l70 0 l70 236 l0 -152 q0 -43 22 -65 q22 -23 64 -23 l43 0 q42 0 64 23 q22 22 22 65 l0 251 q0 42 -22 65 q-22 22 -64 22 l-40 0 q-10 0 -19 -2 l94 284 l-71 0 l-70 -237 l0 153 q0 43 -22 65 q-22 23 -63 23 l-44 0 q-41 0 -63 -23 q-22 -22 -22 -65 l0 -251 q0 -42 22 -64 q21 -23 63 -23 l40 0 ZM329 349 q26 0 26 -29 l0 -223 q0 -29 -26 -29 l-15 0 q-26 0 -26 29 l0 223 q0 14 7 22 q6 7 18 7 l16 0 ZM140 632 q25 0 25 -29 l0 -223 q0 -29 -25 -29 l-16 0 q-25 0 -25 29 l0 223 q0 29 25 29 l16 0 Z" /><glyph glyph-name="" unicode="&quot;" d="M125 700 l-92 0 l-15 -268 l66 0 l41 268 ZM250 700 l-92 0 l-16 -268 l67 0 l41 268 Z" /><glyph glyph-name="" unicode="&#39;" d="M128 700 l-95 0 l-15 -268 l69 0 l41 268 Z" /><glyph glyph-name="" unicode="+" d="M116 208 l82 0 l0 109 l106 0 l0 78 l-106 0 l0 108 l-82 0 l0 -108 l-106 0 l0 -78 l106 0 l0 -109 Z" /><glyph glyph-name="" unicode="&#x2212;" d="M10 397 l0 -82 l294 0 l0 82 l-294 0 Z" /><glyph glyph-name="" unicode="÷" d="M10 395 l0 -78 l294 0 l0 78 l-294 0 ZM115 434 l84 0 l0 85 l-84 0 l0 -85 ZM115 192 l84 0 l0 85 l-84 0 l0 -85 Z" /><glyph glyph-name="" unicode="=" d="M15 467 l0 -78 l284 0 l0 78 l-284 0 ZM15 322 l0 -78 l284 0 l0 78 l-284 0 Z" /><glyph glyph-name="" unicode="×" d="M239 216 l57 58 l-83 82 l83 83 l-55 56 l-83 -83 l-83 83 l-57 -58 l83 -82 l-83 -83 l55 -56 l83 83 l83 -83 Z" /><glyph glyph-name="" unicode="&lt;" d="M15 410 l0 -107 l277 -94 l0 88 l-207 60 l207 62 l0 85 l-277 -94 Z" /><glyph glyph-name="" unicode="&gt;" d="M22 504 l0 -85 l207 -62 l-207 -60 l0 -88 l277 94 l0 107 l-277 94 Z" /><glyph glyph-name="" unicode="±" d="M117 271 l82 0 l0 109 l106 0 l0 78 l-106 0 l0 108 l-82 0 l0 -108 l-106 0 l0 -78 l106 0 l0 -109 ZM10 227 l0 -78 l294 0 l0 78 l-294 0 Z" /><glyph glyph-name="" unicode="_" d="M-2 -22 l0 -78 l463 0 l0 78 l-463 0 Z" /><glyph glyph-name="" unicode=" " d="" /><glyph glyph-name="" unicode=" " d="" /><glyph glyph-name="" unicode="&#x2003;" d="" /><glyph glyph-name="" unicode="&#x2002;" d="" /><glyph glyph-name="" unicode="&#x2004;" d="" /><glyph glyph-name="" unicode="&#x2005;" d="" /><glyph glyph-name="" unicode="&#x2009;" d="" /><glyph glyph-name="" unicode="&#x200a;" d="" /><glyph glyph-name="" unicode="&#xfb03;" d="M47 549 l-31 0 l0 -88 l31 0 l0 -461 l101 0 l0 461 l61 0 l0 88 l-61 0 l0 46 q0 28 28 28 l36 0 l0 87 l-56 0 q-109 0 -109 -109 l0 -52 ZM262 549 l-31 0 l0 -88 l31 0 l0 -461 l101 0 l0 461 l61 0 l0 88 l-61 0 l0 46 q0 28 28 28 l36 0 l0 87 l-56 0 q-109 0 -109 -109 l0 -52 ZM459 595 l105 0 l0 99 l-105 0 l0 -99 ZM461 0 l101 0 l0 549 l-101 0 l0 -549 Z" /><glyph glyph-name="" unicode="&#xfb04;" d="M47 549 l-31 0 l0 -88 l31 0 l0 -461 l101 0 l0 461 l61 0 l0 88 l-61 0 l0 46 q0 28 28 28 l36 0 l0 87 l-56 0 q-109 0 -109 -109 l0 -52 ZM262 549 l-31 0 l0 -88 l31 0 l0 -461 l101 0 l0 461 l61 0 l0 88 l-61 0 l0 46 q0 28 28 28 l36 0 l0 87 l-56 0 q-109 0 -109 -109 l0 -52 ZM461 0 l101 0 l0 710 l-101 0 l0 -710 Z" /><glyph glyph-name="" unicode="&#xfb00;" d="M47 549 l-31 0 l0 -88 l31 0 l0 -461 l101 0 l0 461 l61 0 l0 88 l-61 0 l0 46 q0 28 28 28 l36 0 l0 87 l-56 0 q-109 0 -109 -109 l0 -52 ZM262 549 l-31 0 l0 -88 l31 0 l0 -461 l101 0 l0 461 l61 0 l0 88 l-61 0 l0 46 q0 28 28 28 l36 0 l0 87 l-56 0 q-109 0 -109 -109 l0 -52 Z" /><glyph glyph-name="" unicode="&#xfb01;" d="M47 549 l-31 0 l0 -88 l31 0 l0 -461 l101 0 l0 461 l61 0 l0 88 l-61 0 l0 46 q0 28 28 28 l36 0 l0 87 l-56 0 q-109 0 -109 -109 l0 -52 ZM244 595 l105 0 l0 99 l-105 0 l0 -99 ZM246 0 l101 0 l0 549 l-101 0 l0 -549 Z" /><glyph glyph-name="" unicode="&#xfb02;" d="M47 549 l-31 0 l0 -88 l31 0 l0 -461 l101 0 l0 461 l61 0 l0 88 l-61 0 l0 46 q0 28 28 28 l36 0 l0 87 l-56 0 q-109 0 -109 -109 l0 -52 ZM246 0 l101 0 l0 710 l-101 0 l0 -710 Z" /><glyph glyph-name="" unicode="´" d="M188 590 l71 0 l67 109 l-101 0 l-37 -109 Z" /><glyph glyph-name="" unicode="&#x2dd;" d="M155 590 l52 0 l66 109 l-86 0 l-32 -109 ZM245 590 l52 0 l66 109 l-87 0 l-31 -109 Z" /><glyph glyph-name="" unicode="`" d="M295 699 l-101 0 l67 -109 l71 0 l-37 109 Z" /><glyph glyph-name="" unicode="&#x2c6;" d="M291 699 l-82 0 l-66 -109 l66 0 l41 48 l41 -48 l66 0 l-66 109 Z" /><glyph glyph-name="" unicode="&#x2c7;" d="M357 699 l-66 0 l-41 -48 l-41 48 l-66 0 l66 -109 l82 0 l66 109 Z" /><glyph glyph-name="" unicode="&#x2d8;" d="M152 672 q0 -44 20 -65 q20 -20 63 -20 l30 0 q43 0 63 20 q20 21 20 65 l0 27 l-66 0 l0 -25 q0 -27 -28 -27 l-8 0 q-28 0 -28 27 l0 25 l-66 0 l0 -27 Z" /><glyph glyph-name="" unicode="&#x2dc;" d="M187 699 q-48 0 -48 -51 l0 -58 l59 0 l0 32 q0 6 2 9 q2 3 8 3 q6 0 10 -2 q4 -3 12 -8 l28 -20 q12 -9 22 -11 q9 -3 25 -3 l8 0 q23 0 36 12 q12 13 12 38 l0 59 l-59 0 l0 -33 q0 -6 -2 -9 q-2 -3 -8 -3 q-6 0 -10 3 q-4 2 -12 8 l-27 19 q-12 9 -22 12 q-10 3 -26 3 l-8 0 Z" /><glyph glyph-name="" unicode="¯" d="M144 672 l0 -75 l212 0 l0 75 l-212 0 Z" /><glyph glyph-name="" unicode="¨" d="M270 590 l83 0 l0 102 l-83 0 l0 -102 ZM230 692 l-83 0 l0 -102 l83 0 l0 102 Z" /><glyph glyph-name="" unicode="&#x2d9;" d="M294 688 l-88 0 l0 -98 l88 0 l0 98 Z" /><glyph glyph-name="" unicode="&#x2da;" d="M336 647 q0 25 -15 40 q-16 15 -50 15 l-42 0 q-34 0 -50 -15 q-15 -15 -15 -40 l0 -6 q0 -25 15 -39 q16 -15 50 -15 l42 0 q34 0 50 15 q15 14 15 39 l0 6 ZM311 641 q0 -15 -10 -23 q-10 -9 -32 -9 l-37 0 q-23 0 -33 9 q-10 8 -10 23 l0 6 q0 16 10 24 q10 9 32 9 l38 0 q22 0 32 -9 q10 -8 10 -24 l0 -6 Z" /><glyph glyph-name="" unicode="&#x326;" d="M292 -41 l-81 0 l0 -97 l30 0 q0 -7 -4 -17 q-3 -10 -13 -26 l-14 -22 l28 -18 l20 24 q21 25 28 45 q7 19 6 51 l0 60 Z" /><glyph glyph-name="" unicode="¸" d="M304 0 l-64 0 l-45 -99 l89 0 l20 99 Z" /><glyph glyph-name="" unicode="&#x2db;" d="M253 18 l-13 -20 q-10 -15 -15 -27 q-5 -12 -5 -25 l0 -6 q0 -23 12 -35 q12 -12 41 -12 l53 0 l0 57 l-26 0 q-6 0 -8 2 q-3 2 -3 7 q0 6 2 12 q3 6 8 15 l19 32 l-65 0 Z" /></font>
</defs>
</svg>
